<svg xmlns="http://www.w3.org/2000/svg" xmlns:xlink="http://www.w3.org/1999/xlink" viewBox="0 0 679.32 429.7"><defs><style>.cls-1{fill:#fff;}.cls-2{fill:#a0c0fc;}.cls-3{fill:#4c60fa;}.cls-4{fill:#e79c88;}.cls-5{fill:url(#Degradado_sin_nombre_6);}.cls-6{fill:#7c9afb;}.cls-10,.cls-11,.cls-12,.cls-13,.cls-14,.cls-16,.cls-18,.cls-19,.cls-20,.cls-21,.cls-22,.cls-28,.cls-35,.cls-7,.cls-8,.cls-9{fill:none;}.cls-10,.cls-11,.cls-12,.cls-16,.cls-7,.cls-8,.cls-9{stroke:#fff;}.cls-10,.cls-28,.cls-7,.cls-8{stroke-miterlimit:10;}.cls-7{stroke-width:1.43px;}.cls-8,.cls-9{stroke-width:1.5px;}.cls-11,.cls-12,.cls-13,.cls-14,.cls-16,.cls-18,.cls-19,.cls-20,.cls-21,.cls-22,.cls-35,.cls-9{stroke-linecap:round;stroke-linejoin:round;}.cls-10{stroke-width:1.1px;}.cls-11{stroke-width:1.59px;}.cls-12{stroke-width:0.99px;}.cls-13{stroke:#e79c88;}.cls-13,.cls-14{stroke-width:2px;}.cls-14{stroke:#a0c0fc;}.cls-15{fill:#e9a79a;}.cls-16{stroke-width:0.79px;}.cls-17{fill:#1a246e;}.cls-18,.cls-19,.cls-22,.cls-35{stroke:#000;}.cls-18{stroke-width:0.5px;}.cls-19{stroke-width:0.51px;}.cls-20,.cls-21{stroke:#171717;}.cls-20{stroke-width:0.68px;}.cls-21{stroke-width:0.44px;}.cls-22{stroke-width:0.39px;}.cls-23{clip-path:url(#clip-path);}.cls-24{clip-path:url(#clip-path-2);}.cls-25{fill:#e2c64a;}.cls-26{fill:#d9ad44;}.cls-27{fill:#e9d47c;}.cls-28{stroke:#d19734;stroke-width:0.84px;}.cls-29{fill:#d19734;}.cls-30{fill:#dab03c;}.cls-31{fill:#c67b5b;}.cls-32{fill:#3149d7;}.cls-33{fill:#2f313a;}.cls-34{fill:#d1e3fd;}.cls-35{stroke-width:0.38px;}.cls-36{clip-path:url(#clip-path-3);}.cls-37{clip-path:url(#clip-path-4);}</style><linearGradient id="Degradado_sin_nombre_6" x1="200.33" y1="193.42" x2="559.12" y2="193.42" gradientUnits="userSpaceOnUse"><stop offset="0" stop-color="#8de2fd"/><stop offset="1" stop-color="#4c60fa"/></linearGradient><clipPath id="clip-path" transform="translate(-33.91 -30.39)"><path class="cls-1" d="M195.52,128s-1.36-5.31-8.35-1.47C187.17,126.57,190,132.09,195.52,128Z"/></clipPath><clipPath id="clip-path-2" transform="translate(-33.91 -30.39)"><path class="cls-1" d="M201.28,128s2.1-5.26,5.92-1.61C207.2,126.4,205.69,131.56,201.28,128Z"/></clipPath><clipPath id="clip-path-3" transform="translate(-33.91 -30.39)"><path class="cls-1" d="M530.82,217.74s1.33-5.21,8.19-1.44C539,216.3,536.26,221.72,530.82,217.74Z"/></clipPath><clipPath id="clip-path-4" transform="translate(-33.91 -30.39)"><path class="cls-1" d="M525.17,217.71s-2-5.15-5.8-1.58C519.37,216.13,520.85,221.19,525.17,217.71Z"/></clipPath></defs><g id="OBJECTS"><path class="cls-2" d="M633.86,343.94H108.75a6.46,6.46,0,0,1-6.46-6.46V84.14h538V337.48A6.46,6.46,0,0,1,633.86,343.94Z" transform="translate(-33.91 -30.39)"/><path class="cls-3" d="M640.32,84.21h-538V76.82a18,18,0,0,1,18-18H622.35a18,18,0,0,1,18,18Z" transform="translate(-33.91 -30.39)"/><circle class="cls-4" cx="102.11" cy="41.54" r="4.38"/><circle class="cls-1" cx="121.64" cy="41.54" r="4.38"/><path class="cls-1" d="M179.45,71.93a4.38,4.38,0,1,1-4.38-4.38A4.38,4.38,0,0,1,179.45,71.93Z" transform="translate(-33.91 -30.39)"/><path class="cls-5" d="M557.67,104.85a6.39,6.39,0,0,0-5.45-2.3l-34.76,2.94A6.36,6.36,0,0,0,513.15,116l7.36,8.65L467.89,164l-19.55-21.36a7.61,7.61,0,0,0-10.11-1l-111,80.67L297.36,201.2a7.63,7.63,0,0,0-9.21.32l-85,69.24a7.63,7.63,0,1,0,9.64,11.83L293.3,217l29.61,20.88a7.63,7.63,0,0,0,8.88-.07l109.9-79.87,19.6,21.43a7.63,7.63,0,0,0,10.2,1l58.92-44.08,8.1,9.53a6.35,6.35,0,0,0,4.85,2.24,6.85,6.85,0,0,0,1.34-.14,6.38,6.38,0,0,0,4.77-4.46l9.4-32.78A6.34,6.34,0,0,0,557.67,104.85Z" transform="translate(-33.91 -30.39)"/><rect class="cls-6" x="227.11" y="229.39" width="28.93" height="49.37"/><rect class="cls-6" x="269.56" y="243.38" width="28.93" height="35.37"/><rect class="cls-6" x="312.01" y="216.03" width="28.93" height="62.73"/><rect class="cls-6" x="354.46" y="205.47" width="28.93" height="73.29"/><rect class="cls-6" x="396.91" y="177.47" width="28.93" height="101.29"/><rect class="cls-6" x="439.36" y="206.02" width="28.93" height="72.74"/><polyline class="cls-7" points="155.9 82.79 155.9 278.56 537.15 278.56"/><circle class="cls-8" cx="659.03" cy="77.82" r="19.54"/><polyline class="cls-9" points="650.77 78.82 657.57 83.8 666.33 71.43"/><circle class="cls-8" cx="54.19" cy="360.99" r="19.54" transform="translate(-273.29 113.66) rotate(-45)"/><line class="cls-9" x1="14.76" y1="324.4" x2="25.81" y2="335.45"/><line class="cls-9" x1="25.81" y1="324.4" x2="14.76" y2="335.45"/><rect class="cls-9" x="639.49" y="257.93" width="14.77" height="14.77"/><rect class="cls-9" x="315.1" y="355.36" width="14.77" height="14.77"/><path class="cls-9" d="M580,167.6h0a7.39,7.39,0,0,1-7.39-7.39h0a7.38,7.38,0,0,1,7.39-7.38h0a7.37,7.37,0,0,1,7.38,7.38h0A7.38,7.38,0,0,1,580,167.6Z" transform="translate(-33.91 -30.39)"/><rect class="cls-9" x="6.42" y="184.52" width="14.77" height="14.77"/><circle class="cls-1" cx="201.09" cy="91.36" r="4.46"/><circle class="cls-1" cx="214.02" cy="91.36" r="4.46"/><circle class="cls-1" cx="226.94" cy="91.36" r="4.46"/><path class="cls-1" d="M273.78,118.79a3,3,0,1,1-3,3,3,3,0,0,1,3-3m0-1.5a4.46,4.46,0,1,0,4.46,4.46,4.45,4.45,0,0,0-4.46-4.46Z" transform="translate(-33.91 -30.39)"/><path class="cls-4" d="M117.32,275.31a18.16,18.16,0,1,1-18-18.33A18.15,18.15,0,0,1,117.32,275.31Z" transform="translate(-33.91 -30.39)"/><polyline class="cls-9" points="58.47 243.81 63.73 249.01 72.05 239.51"/><rect class="cls-3" x="50.67" y="116.75" width="87.59" height="29.27" rx="3.4" transform="translate(155.02 232.36) rotate(180)"/><line class="cls-10" x1="33.92" y1="97.72" x2="91.29" y2="97.72"/><line class="cls-10" x1="33.92" y1="104.25" x2="50.8" y2="104.25"/><polygon class="cls-3" points="93.93 111.72 93.93 124.96 77.06 111.72 93.93 111.72"/><rect class="cls-4" x="271.56" y="6.26" width="103.86" height="89.12" rx="6.54"/><rect class="cls-11" x="293.71" y="27.9" width="10.58" height="10.58"/><line class="cls-11" x1="311.94" y1="33.19" x2="332.44" y2="33.19"/><rect class="cls-11" x="293.71" y="45.53" width="10.58" height="10.58"/><line class="cls-11" x1="311.94" y1="50.82" x2="353.28" y2="50.82"/><rect class="cls-11" x="293.71" y="63.17" width="10.58" height="10.58"/><line class="cls-11" x1="311.94" y1="68.46" x2="353.28" y2="68.46"/><circle class="cls-3" cx="644.39" cy="206.17" r="35.07" transform="translate(-64.21 226.03) rotate(-22)"/><rect class="cls-1" x="595.55" y="175.08" width="6.78" height="11.62"/><rect class="cls-1" x="605.93" y="160.5" width="6.78" height="26.19"/><rect class="cls-1" x="616.31" y="165.93" width="6.78" height="20.76"/><line class="cls-12" x1="588.57" y1="186.69" x2="632.39" y2="186.69"/><line class="cls-13" x1="3.42" y1="45.16" x2="36.81" y2="45.16"/><line class="cls-13" x1="634.42" y1="323.13" x2="674.82" y2="323.13"/><line class="cls-14" x1="449.12" y1="1" x2="525.96" y2="1"/><line class="cls-14" x1="227.7" y1="360.36" x2="284.02" y2="360.36"/><polygon class="cls-15" points="152.79 412.71 154.71 371.77 170.63 371.77 166.37 411.93 152.79 412.71"/><path d="M185.84,436.88a14.34,14.34,0,0,0,12.93-.09s2-6.12,7.54-2.57c0,0,6.42,7.18,15.95,9.11,13.21,2.68,13.8,8.83,13.8,8.83h-56s2-8.35,2.85-13.63A2.14,2.14,0,0,1,185.84,436.88Z" transform="translate(-33.91 -30.39)"/><rect class="cls-1" x="146.15" y="421.77" width="56.01" height="6.12"/><path class="cls-16" d="M217,441.66s-2.12,0-3.79,2.88" transform="translate(-33.91 -30.39)"/><path class="cls-16" d="M214.3,440.22s-2.12,0-3.78,2.88" transform="translate(-33.91 -30.39)"/><path class="cls-16" d="M211.55,438.51s-2.12,0-3.78,2.88" transform="translate(-33.91 -30.39)"/><polygon class="cls-15" points="108.33 412.71 113.79 371.77 129.72 371.77 121.9 411.93 108.33 412.71"/><path d="M141.7,436.88a14.34,14.34,0,0,0,12.93-.09s2-6.12,7.54-2.57c0,0,6.41,7.18,15.94,9.11,13.22,2.68,13.81,8.83,13.81,8.83h-56s2-8.35,2.86-13.63A2.14,2.14,0,0,1,141.7,436.88Z" transform="translate(-33.91 -30.39)"/><rect class="cls-1" x="102.01" y="421.77" width="56.01" height="6.12"/><path class="cls-16" d="M172.86,441.66s-2.13,0-3.79,2.88" transform="translate(-33.91 -30.39)"/><path class="cls-16" d="M170.16,440.22s-2.12,0-3.79,2.88" transform="translate(-33.91 -30.39)"/><path class="cls-16" d="M167.41,438.51s-2.12,0-3.79,2.88" transform="translate(-33.91 -30.39)"/><path class="cls-17" d="M213.32,236.46s1.77,5.43,2.51,30.69c.15,5.19,0,12.4-.33,17.58l-7.44,144.09-27.21-.1,7-146.67L165.18,428.64,138.72,428,163,243.68l26-2.39Z" transform="translate(-33.91 -30.39)"/><line class="cls-18" x1="153.98" y1="251.66" x2="168.65" y2="249.15"/><path class="cls-15" d="M204.08,184.54s21.74,18.3,42.52,27.66c2.5,1.13,8.48-.3,10.43-2.23h0a6.63,6.63,0,0,0-.9-10.14L218,170.4Z" transform="translate(-33.91 -30.39)"/><path class="cls-1" d="M203.19,161.91s15.17,0,31.52,19.88L221,201.66l-25.85-12.29Z" transform="translate(-33.91 -30.39)"/><path class="cls-15" d="M257.88,208.92l25.91-43.09-8.69-5.62-32.83,40.32c-2.61,2.33.62,8.56,3.68,11.27h0C247.62,213.31,254.46,214.27,257.88,208.92Z" transform="translate(-33.91 -30.39)"/><path class="cls-15" d="M275.1,160.21l.79-6.78a3.11,3.11,0,0,1,2.2-2.56l7.2-2.12a2.35,2.35,0,0,1,2.71,1.1h0a2.34,2.34,0,0,1-.93,3.2l-3.45,1.87s4.76,3.82.13,8.91Z" transform="translate(-33.91 -30.39)"/><path class="cls-15" d="M278.09,150.87l9.45-12.78a1.8,1.8,0,0,1,2.66-.26h0a1.79,1.79,0,0,1,.39,2.16l-6,11.49Z" transform="translate(-33.91 -30.39)"/><path class="cls-15" d="M285.66,147.78l3.61-1.21a2.48,2.48,0,0,1,2.18.47l.83.67a2.5,2.5,0,0,1,.62,3.15l-4.64,8.19-5.9-4.39Z" transform="translate(-33.91 -30.39)"/><path class="cls-15" d="M292.23,149h1.35a2.43,2.43,0,0,1,1.71.71l1.11,1.09a2.48,2.48,0,0,1,.73,1.76h0a2.44,2.44,0,0,1-.5,1.47l-5.93,7.84L285.6,158Z" transform="translate(-33.91 -30.39)"/><path class="cls-15" d="M294.38,152.11h1.34a2.47,2.47,0,0,1,1.72.71l1.11,1.09a2.48,2.48,0,0,1,.73,1.76h0a2.5,2.5,0,0,1-.5,1.47l-2.09,2.76a6.39,6.39,0,0,1-8.94,1.25h0Z" transform="translate(-33.91 -30.39)"/><path class="cls-15" d="M293.85,161.51l-2.77,3a7.08,7.08,0,0,1-10,.46l-6-4.79,4.66-6.69,5.86,0,5.1,3.56Z" transform="translate(-33.91 -30.39)"/><path class="cls-19" d="M278.58,150.79l7.84-2.57a2.14,2.14,0,0,1,2.66,1.42h0a2.14,2.14,0,0,1-.73,2.31l-4.73,3s4.25,2.1.75,6.92" transform="translate(-33.91 -30.39)"/><path class="cls-1" d="M184.74,159.77a69.76,69.76,0,0,0-19.94,4.63c-1.56.63-3.1,1.31-4.51,2-4.43,2.32-1.25,7.32-.7,12.43l1.65,71s30.54,13.29,54.86-.66l2.21-68c.49-7.12-2.42-16.59-9.13-18.24A136.64,136.64,0,0,0,188,159.5Z" transform="translate(-33.91 -30.39)"/><path class="cls-15" d="M200.59,161.12A60.25,60.25,0,0,0,188,159.5a43.94,43.94,0,0,0-12.64,1.69l19.81,11.15C200,165.45,200.59,161.12,200.59,161.12Z" transform="translate(-33.91 -30.39)"/><line class="cls-20" x1="183.76" y1="169.7" x2="184.17" y2="154.26"/><polygon class="cls-15" points="95.3 168.57 121.52 208.61 114.46 216.62 85.52 187.21 95.3 168.57"/><path class="cls-15" d="M179.51,240.83l-11.21-5.92,1.1-2.55a2.33,2.33,0,0,0-.6-2.67,2.13,2.13,0,0,0-2.72-.05l-11,9L148.36,247c6.06,5.39,10,5.32,12.3,4.28.27.09.53.19.8.27l9.32,2.77a1.74,1.74,0,0,0,2.29-.86c.31-.63.42-1.64-1.38-2.58l1.8.94a1.8,1.8,0,0,0,2.39-.94c.4-.82-.09-1.9-1.14-2.62l1.37.56a1.87,1.87,0,0,0,2.54-1.15,2.07,2.07,0,0,0-1-2.45l-2-1,2.36.59a2,2,0,0,0,2.64-1.38A2.22,2.22,0,0,0,179.51,240.83Z" transform="translate(-33.91 -30.39)"/><line class="cls-21" x1="142.33" y1="214.09" x2="135.7" y2="210.85"/><line class="cls-21" x1="140.55" y1="217.76" x2="134.16" y2="215"/><line class="cls-21" x1="138.38" y1="220.74" x2="132.96" y2="218.52"/><path class="cls-15" d="M166,187.93l-33.34,29.82A9,9,0,0,1,121,219h0a9.77,9.77,0,0,1-1.68-14.28l31.35-31.77a10.29,10.29,0,0,1,14.46-1.22h0A11.23,11.23,0,0,1,166,187.93Z" transform="translate(-33.91 -30.39)"/><path class="cls-1" d="M166.71,163.67s-13.39,2.71-30,23.34l15.88,17.88,20-14.89Z" transform="translate(-33.91 -30.39)"/><line class="cls-20" x1="126.16" y1="168.93" x2="136.98" y2="160.9"/><path d="M209.47,117c-1,9.92-9.55,21.15-20.29,21.13S171.84,129.58,169,120c-4.44-14.75,8.86-22.11,23.63-19.45C199.25,101.78,210.54,106.22,209.47,117Z" transform="translate(-33.91 -30.39)"/><polygon class="cls-15" points="149.88 104.08 147.02 133.49 162.23 133.58 161.42 107.21 149.88 104.08"/><polygon points="161.96 124.72 152.02 112.89 161.45 109.07 161.96 124.72"/><path class="cls-15" d="M186.18,106.09a21.7,21.7,0,0,1,10.13-.38c4.52,1,10.32,3.82,11,12.1,1.18,13.79-.52,24.9-7.34,28-5.23,2.39-9,1.45-15.05-2.07-2.23-1.31-4.36-6.85-5-9.49l-2.57-7.38S170.43,110.36,186.18,106.09Z" transform="translate(-33.91 -30.39)"/><path d="M180.16,130.89s6.69-20.94-3.08-21.52l-5.39,10.43,2.83,8.73Z" transform="translate(-33.91 -30.39)"/><path class="cls-15" d="M181.85,135.36a15.54,15.54,0,0,0-2.23-5.36c-1.51-2.26-3.67-4.34-6.39-2.67-4.63,2.84,1.06,10.26,6.14,10.36,1.49,0,2.73-1.14,2.48-2.33Z" transform="translate(-33.91 -30.39)"/><path d="M179.2,109.92s33.69,6.35,33.15-6.13c-.49-11.71-17.76-7.44-22.47-3l-13.18,6.8Z" transform="translate(-33.91 -30.39)"/><polyline class="cls-22" points="165.97 99.43 167.22 102.32 165.61 103.58"/><path d="M201.66,118.82a1.78,1.78,0,0,0,1.5,2.31,13,13,0,0,1,3.43.89,1,1,0,0,0,1.38-.49h0a1.48,1.48,0,0,0,0-1.4,5,5,0,0,0-3.41-2.57C202.14,117.06,201.66,118.82,201.66,118.82Z" transform="translate(-33.91 -30.39)"/><path d="M195,118.66s.67,1.94-2.22,2.3a33.67,33.67,0,0,0-6.09,1.6,1.68,1.68,0,0,1-1.89-.5h0a1.1,1.1,0,0,1,.06-1.4,12,12,0,0,1,6.15-3.3C194.39,116.9,195,118.66,195,118.66Z" transform="translate(-33.91 -30.39)"/><path class="cls-1" d="M195.52,128s-1.36-5.31-8.35-1.47C187.17,126.57,190,132.09,195.52,128Z" transform="translate(-33.91 -30.39)"/><g class="cls-23"><path d="M194.15,127.3a2.42,2.42,0,1,1-2.69-2.2A2.46,2.46,0,0,1,194.15,127.3Z" transform="translate(-33.91 -30.39)"/></g><path d="M187.08,126.45a7.59,7.59,0,0,1,2.2-1.11,8.11,8.11,0,0,1,2.46-.38,4.86,4.86,0,0,1,2.43.69,3.37,3.37,0,0,1,1.51,2.11.32.32,0,0,1-.24.38.3.3,0,0,1-.37-.24h0v0a2.92,2.92,0,0,0-1.19-1.75,4.37,4.37,0,0,0-2.16-.68,7.11,7.11,0,0,0-2.32.29,7,7,0,0,0-2.13,1,.15.15,0,0,1-.18-.25Z" transform="translate(-33.91 -30.39)"/><path class="cls-1" d="M201.28,128s2.1-5.26,5.92-1.61C207.2,126.4,205.69,131.56,201.28,128Z" transform="translate(-33.91 -30.39)"/><g class="cls-24"><path d="M202.64,127a1.87,1.87,0,1,0,2.18-2A2.1,2.1,0,0,0,202.64,127Z" transform="translate(-33.91 -30.39)"/></g><path d="M207.09,126.47a2.7,2.7,0,0,0-1.12-1,2.26,2.26,0,0,0-1.42-.13h0a3.3,3.3,0,0,0-1.74.86,4.46,4.46,0,0,0-1.12,1.61v0a.28.28,0,0,1-.35.15.26.26,0,0,1-.15-.35h0a5.11,5.11,0,0,1,1.31-1.77,3.83,3.83,0,0,1,2-.89h0a2.69,2.69,0,0,1,1.66.21,3,3,0,0,1,1.2,1.1.12.12,0,0,1,0,.17A.13.13,0,0,1,207.09,126.47Z" transform="translate(-33.91 -30.39)"/><path class="cls-22" d="M193.78,135.93s2.37,2.46,6.54,1" transform="translate(-33.91 -30.39)"/><rect class="cls-25" x="440.56" y="402.04" width="105.08" height="13.34"/><rect class="cls-26" x="451.43" y="402.04" width="19.99" height="13.34"/><rect class="cls-27" x="518.48" y="402.04" width="14.66" height="13.34"/><rect class="cls-25" x="440.56" y="375.36" width="105.08" height="13.34"/><rect class="cls-26" x="451.43" y="375.36" width="19.99" height="13.34"/><rect class="cls-27" x="518.48" y="375.36" width="14.66" height="13.34"/><rect class="cls-25" x="440.56" y="335.35" width="105.08" height="13.34"/><rect class="cls-26" x="451.43" y="335.35" width="19.99" height="13.34"/><rect class="cls-27" x="518.48" y="335.35" width="14.66" height="13.34"/><rect class="cls-25" x="453.07" y="415.38" width="105.08" height="13.34"/><rect class="cls-26" x="463.94" y="415.38" width="19.99" height="13.34"/><rect class="cls-27" x="530.99" y="415.38" width="14.66" height="13.34"/><rect class="cls-25" x="453.07" y="362.02" width="105.08" height="13.34"/><rect class="cls-26" x="463.94" y="362.02" width="19.99" height="13.34"/><rect class="cls-27" x="530.99" y="362.02" width="14.66" height="13.34"/><rect class="cls-25" x="453.07" y="348.69" width="105.08" height="13.34"/><rect class="cls-26" x="463.94" y="348.69" width="19.99" height="13.34"/><rect class="cls-27" x="530.99" y="348.69" width="14.66" height="13.34"/><rect class="cls-25" x="453.07" y="388.7" width="105.08" height="13.34"/><rect class="cls-26" x="463.94" y="388.7" width="19.99" height="13.34"/><rect class="cls-27" x="530.99" y="388.7" width="14.66" height="13.34"/><line class="cls-28" x1="545.65" y1="415.38" x2="453.07" y2="415.38"/><line class="cls-28" x1="545.65" y1="402.04" x2="453.07" y2="402.04"/><line class="cls-28" x1="545.65" y1="388.7" x2="453.07" y2="388.7"/><line class="cls-28" x1="545.65" y1="375.36" x2="453.07" y2="375.36"/><line class="cls-28" x1="558.16" y1="362.02" x2="453.07" y2="362.02"/><line class="cls-28" x1="558.16" y1="348.69" x2="453.07" y2="348.69"/><circle class="cls-29" cx="627.85" cy="414.28" r="44.52" transform="matrix(0.99, -0.15, 0.15, 0.99, -88.77, 68.09)"/><circle class="cls-25" cx="621.56" cy="412.58" r="44.52" transform="translate(111.58 956.56) rotate(-83.92)"/><circle class="cls-30" cx="621.56" cy="412.58" r="35.71" transform="translate(-137.61 207.4) rotate(-20.03)"/><path class="cls-29" d="M589.14,405.86a35.71,35.71,0,0,1,61.46-14,35.7,35.7,0,1,0-58.05,41.58,37.46,37.46,0,0,1-3.41-27.54Z" transform="translate(-33.91 -30.39)"/><path class="cls-29" d="M613,435.88l1.34-4.95c-5.52-1.77-7.8-4.43-6-11.16a27.4,27.4,0,0,1,1.48-4.23l7,1.91a15.59,15.59,0,0,0-.66,1.93c-.79,2.93-1,4.63,1.81,5.4s3.39-.17,4.4-3.92c.5-1.84.67-2.47-.1-3.64-1.57-2.53-6.41-5.28-8.41-7.73-1.8-2.12-1.73-4.42-.13-10.32,1.84-6.8,4.49-8.53,11.06-7.1l1.06-3.93,4,1.09-1.06,3.93c5.9,1.87,7.42,4.53,5.79,10.56a29,29,0,0,1-1.3,3.81l-7-1.89a21.35,21.35,0,0,0,.65-2.15c.72-2.66.7-4.1-2-4.82-2.29-.62-3.13,0-4,3.14s-.79,3.68,1.11,5.21c2.06,1.72,4.15,3,5.93,4.54,2.47,2.17,4.21,3.32,2.44,9.86-2.5,9.21-5.07,11.92-12.19,10.53L617,437Z" transform="translate(-33.91 -30.39)"/><path d="M459.67,448.5l-10.35,5.57a3,3,0,0,0-1.44,3.26c.25,1,1.13,1.83,3.42,1.9,5.08.15,34.48-3.34,34.48-3.34l.49,3.23,11.2-.2S495.69,444,492.53,442Z" transform="translate(-33.91 -30.39)"/><path class="cls-31" d="M479,439.43l-19.33,9.07s7.18,5.15,15.07,1.83S492.53,442,492.53,442l-1.4-3.89Z" transform="translate(-33.91 -30.39)"/><polygon class="cls-31" points="458.62 411.6 445.61 364.35 427.41 365.1 444.63 414.41 458.62 411.6"/><polygon class="cls-32" points="406.73 326.08 431.65 401.49 462.7 395.08 437.15 313.91 406.73 326.08"/><path class="cls-32" d="M555.2,316.26s27.72,39.57-6.94,50.61l-93.42-.49a15.24,15.24,0,0,1-14.2-9.91h0a15.25,15.25,0,0,1,11.46-20.32l83.19-11.21-2.62-8.8Z" transform="translate(-33.91 -30.39)"/><path class="cls-3" d="M565.79,316.32s21.83,31.16,2.51,45.89a23.66,23.66,0,0,1-14.51,4.68l-88.36-.45a15.26,15.26,0,0,1-14.21-9.92h0c-3.31-8.86,2.24-20.06,11.54-21.81L526,326.19l4.05-10.06Z" transform="translate(-33.91 -30.39)"/><path d="M402,448.2l-10.35,5.57a3,3,0,0,0-1.44,3.26c.26,1,1.13,1.83,3.42,1.9,5.09.15,33.1-3.34,33.1-3.34l0,2.89,10.52.12s.8-14.92-2.36-16.91Z" transform="translate(-33.91 -30.39)"/><path class="cls-31" d="M421.29,439.13,402,448.2s7.18,5.16,15.07,1.84,17.79-8.35,17.79-8.35l-1.4-3.88Z" transform="translate(-33.91 -30.39)"/><polygon class="cls-31" points="400.91 411.3 423.78 364.24 403 364.98 386.13 413.18 400.91 411.3"/><polygon class="cls-3" points="417.66 314.07 384.6 398.91 414.19 409.6 447.41 328.41 417.66 314.07"/><path class="cls-31" d="M516.16,259.09l-1.86,57.12a9,9,0,0,0,9.5,9.09h0a9,9,0,0,0,8.42-8.58l3.28-56.79Z" transform="translate(-33.91 -30.39)"/><path class="cls-4" d="M512.33,280.49S509.6,250,525.45,249c18-1.17,12.29,36.06,12.4,33.41Z" transform="translate(-33.91 -30.39)"/><polygon class="cls-31" points="446.38 291.29 487.45 279.26 489.89 294.91 449.15 298.82 446.38 291.29"/><path class="cls-4" d="M545.18,243.78l20.47,3.29s3.9-.57,7.1,10.64c2.73,9.55-7.33,58.18-7.33,58.18H529.71l-9.45-30.73a28.36,28.36,0,0,1-1.57-7.56,33.84,33.84,0,0,1,2.49-16l2-12.26,12.25-4.56Z" transform="translate(-33.91 -30.39)"/><path class="cls-31" d="M552.61,245l-7.43-1.19-10.56,1.31L530,246.84s-4.36,6.65,2.86,7.48C541.62,255.33,548.46,252,552.61,245Z" transform="translate(-33.91 -30.39)"/><path class="cls-31" d="M556.49,257.91l5.57,56.87a9,9,0,0,0,10.47,8h0a9,9,0,0,0,7.39-9.48l-4.12-56.71Z" transform="translate(-33.91 -30.39)"/><path class="cls-4" d="M556,279.52s-5.83-31.44,7.59-32.46c18-1.36,18.18,34.12,18,31.48Z" transform="translate(-33.91 -30.39)"/><polygon class="cls-31" points="494.99 293.7 534.43 277.07 538.63 292.35 498.6 300.87 494.99 293.7"/><path class="cls-31" d="M528.89,324.09s-7-9.54-20.26,3.47l4.43,3.7H532.5l2.47-6.59Z" transform="translate(-33.91 -30.39)"/><path d="M522.78,330.89h36.31a4.07,4.07,0,0,1,4.07,4.07H522.78Z" transform="translate(-33.91 -30.39)"/><path d="M526.11,335h-62L450.45,292a3.88,3.88,0,0,1,3.74-4.89h53.95a3.88,3.88,0,0,1,3.74,2.86Z" transform="translate(-33.91 -30.39)"/><path class="cls-33" d="M522.78,335H458.52L444.84,292a3.88,3.88,0,0,1,3.74-4.89h56.23a3.87,3.87,0,0,1,3.74,2.86Z" transform="translate(-33.91 -30.39)"/><path class="cls-34" d="M485.69,310.84a4.51,4.51,0,1,1-4.51-4.51A4.51,4.51,0,0,1,485.69,310.84Z" transform="translate(-33.91 -30.39)"/><circle cx="556.42" cy="223.43" r="11.96" transform="matrix(0.56, -0.83, 0.83, 0.56, 25.85, 528.97)"/><path d="M549,192.9s3.36-2.22,7.52,2.74,4.58,16.08-2.76,18.77Z" transform="translate(-33.91 -30.39)"/><path d="M549,192.9s-5.08-12-20.44-8.46-24.71,18.62-10.78,26.66Z" transform="translate(-33.91 -30.39)"/><path d="M517.83,208.27c.76,10,9,17.58,19.78,16.77s19-9.61,18.21-19.65-10.13-17.52-20.94-16.71S517.07,198.23,517.83,208.27Z" transform="translate(-33.91 -30.39)"/><polygon class="cls-31" points="506.23 189.64 514.3 214.97 505.36 222.35 500.28 218.81 497.44 194.07 506.23 189.64"/><polygon points="499.55 212.46 506.89 198.19 497.69 195.94 499.55 212.46"/><path class="cls-31" d="M538.27,192.55a22,22,0,0,0-10.23.37c-4.48,1.3-10.1,4.61-10.21,13-.17,14,2.29,24.23,9.38,26.86,5.45,2,9.21.79,15-3.19,2.16-1.49,4-6.42,4.37-9.12l2-7.62S554.44,195.69,538.27,192.55Z" transform="translate(-33.91 -30.39)"/><path d="M546.45,217.1s-10.3-18.23-.56-24.27c0,0,4.41-.67,6.85,7.87C556.64,214.38,546.45,217.1,546.45,217.1Z" transform="translate(-33.91 -30.39)"/><path class="cls-31" d="M544.72,220.9a15.48,15.48,0,0,1,1.85-5.56c1.35-2.39,3.37-4.65,6.23-3.17,4.87,2.52-.31,10.42-5.41,10.89-1.5.14-2.83-.95-2.67-2.16Z" transform="translate(-33.91 -30.39)"/><path class="cls-1" d="M545.24,223.54a2.11,2.11,0,1,0,1.91-2.29A2.12,2.12,0,0,0,545.24,223.54Z" transform="translate(-33.91 -30.39)"/><path d="M549,195.9s-20.81,17.41-33.6,7.53c0,0-4.8-11.4,14.6-15.06S549,195.9,549,195.9Z" transform="translate(-33.91 -30.39)"/><polyline class="cls-35" points="492.64 189.64 491.42 192.48 492.99 193.72"/><path d="M524,209.84a1.52,1.52,0,0,1-1.28,2,10.91,10.91,0,0,0-2.92.76.89.89,0,0,1-1.17-.42h0a1.23,1.23,0,0,1,0-1.19,4.33,4.33,0,0,1,2.9-2.19C523.55,208.35,524,209.84,524,209.84Z" transform="translate(-33.91 -30.39)"/><path d="M531.85,209.56s-.57,1.64,1.9,1.95a27.58,27.58,0,0,1,5.17,1.37,1.46,1.46,0,0,0,1.61-.43h0a.94.94,0,0,0,0-1.19,10.09,10.09,0,0,0-5.23-2.81C532.33,208.06,531.85,209.56,531.85,209.56Z" transform="translate(-33.91 -30.39)"/><path class="cls-1" d="M530.82,217.74s1.33-5.21,8.19-1.44C539,216.3,536.26,221.72,530.82,217.74Z" transform="translate(-33.91 -30.39)"/><g class="cls-36"><path d="M532.16,217a2.38,2.38,0,1,0,2.64-2.15A2.41,2.41,0,0,0,532.16,217Z" transform="translate(-33.91 -30.39)"/></g><path d="M538.92,216.42a6.88,6.88,0,0,0-2.09-1,7.36,7.36,0,0,0-2.27-.28,4.31,4.31,0,0,0-2.12.67,2.78,2.78,0,0,0-1.16,1.72v0a.31.31,0,0,1-.61-.11h0a3.34,3.34,0,0,1,1.49-2.08,4.86,4.86,0,0,1,2.38-.67,7.78,7.78,0,0,1,2.41.37,7.32,7.32,0,0,1,2.16,1.09.15.15,0,0,1-.18.24Z" transform="translate(-33.91 -30.39)"/><path class="cls-1" d="M525.17,217.71s-2-5.15-5.8-1.58C519.37,216.13,520.85,221.19,525.17,217.71Z" transform="translate(-33.91 -30.39)"/><g class="cls-37"><path d="M523.84,216.7a1.84,1.84,0,1,1-3.53.59,1.84,1.84,0,1,1,3.53-.59Z" transform="translate(-33.91 -30.39)"/></g><path d="M519.26,216.06a3,3,0,0,1,1.19-1.08,2.62,2.62,0,0,1,1.62-.2h0a3.7,3.7,0,0,1,2,.88,4.94,4.94,0,0,1,1.29,1.73.26.26,0,0,1-.14.35.25.25,0,0,1-.34-.14h0v0a4.55,4.55,0,0,0-1.1-1.59,3.33,3.33,0,0,0-1.71-.84h0a2.22,2.22,0,0,0-1.39.13,2.7,2.7,0,0,0-1.11.93.12.12,0,0,1-.17,0A.13.13,0,0,1,519.26,216.06Z" transform="translate(-33.91 -30.39)"/><path class="cls-35" d="M532.84,225.35s-1.53,2.35-5.63.93" transform="translate(-33.91 -30.39)"/><line class="cls-14" x1="41.13" y1="428.7" x2="649.37" y2="428.7"/></g></svg>