<svg xmlns="http://www.w3.org/2000/svg" xmlns:xlink="http://www.w3.org/1999/xlink" viewBox="0 0 2274.23 1403.21"><defs><style>.cls-1{fill:none;}.cls-2,.cls-9{fill:#bdd0fb;}.cls-3{isolation:isolate;}.cls-4{fill:url(#linear-gradient);}.cls-5{fill:#91b3fa;}.cls-6{fill:#dce5fe;}.cls-7{fill:url(#linear-gradient-2);}.cls-110,.cls-117,.cls-120,.cls-8{fill:#fff;}.cls-8{opacity:0.1;}.cls-9{mix-blend-mode:soft-light;}.cls-10{fill:url(#linear-gradient-3);}.cls-11{fill:url(#linear-gradient-4);}.cls-12{fill:url(#linear-gradient-5);}.cls-13{fill:url(#linear-gradient-6);}.cls-14{fill:url(#linear-gradient-7);}.cls-15{fill:url(#linear-gradient-8);}.cls-16{fill:url(#linear-gradient-9);}.cls-17{fill:url(#linear-gradient-10);}.cls-18{fill:url(#linear-gradient-11);}.cls-19{fill:url(#linear-gradient-12);}.cls-20{fill:url(#linear-gradient-13);}.cls-21{fill:url(#linear-gradient-14);}.cls-22{fill:url(#linear-gradient-15);}.cls-23{fill:url(#linear-gradient-16);}.cls-24{fill:url(#linear-gradient-17);}.cls-25{fill:url(#linear-gradient-18);}.cls-26{fill:url(#linear-gradient-19);}.cls-27{fill:url(#linear-gradient-20);}.cls-28{fill:url(#linear-gradient-21);}.cls-29{fill:url(#linear-gradient-22);}.cls-30{fill:url(#linear-gradient-23);}.cls-31{fill:url(#linear-gradient-24);}.cls-32{fill:url(#linear-gradient-25);}.cls-33{fill:url(#linear-gradient-26);}.cls-34{fill:url(#linear-gradient-27);}.cls-35{fill:url(#linear-gradient-28);}.cls-36{fill:url(#linear-gradient-29);}.cls-37{fill:url(#linear-gradient-30);}.cls-38{fill:url(#linear-gradient-31);}.cls-39{fill:url(#linear-gradient-32);}.cls-40{fill:url(#linear-gradient-33);}.cls-41{fill:url(#linear-gradient-34);}.cls-42{fill:url(#linear-gradient-35);}.cls-43{fill:url(#linear-gradient-36);}.cls-44{fill:url(#linear-gradient-37);}.cls-45{fill:url(#linear-gradient-38);}.cls-46{fill:url(#linear-gradient-39);}.cls-47{fill:url(#linear-gradient-40);}.cls-48{fill:url(#linear-gradient-41);}.cls-49{fill:url(#linear-gradient-42);}.cls-50{fill:url(#linear-gradient-43);}.cls-51{fill:url(#linear-gradient-44);}.cls-52{fill:url(#linear-gradient-45);}.cls-53{clip-path:url(#clip-path);}.cls-54{fill:url(#linear-gradient-46);}.cls-55{fill:url(#linear-gradient-47);}.cls-56{fill:url(#linear-gradient-48);}.cls-57{fill:url(#linear-gradient-49);}.cls-58{fill:url(#linear-gradient-50);}.cls-59{fill:url(#linear-gradient-51);}.cls-60{fill:url(#linear-gradient-52);}.cls-61{fill:url(#linear-gradient-53);}.cls-62{fill:url(#linear-gradient-54);}.cls-63{fill:url(#linear-gradient-55);}.cls-64{fill:url(#linear-gradient-56);}.cls-65{fill:url(#linear-gradient-57);}.cls-66{fill:url(#linear-gradient-58);}.cls-67{fill:url(#linear-gradient-59);}.cls-68{fill:url(#linear-gradient-60);}.cls-69{fill:url(#linear-gradient-61);}.cls-70{fill:url(#linear-gradient-62);}.cls-71{fill:url(#linear-gradient-63);}.cls-72{fill:url(#linear-gradient-64);}.cls-73{fill:url(#linear-gradient-65);}.cls-74{fill:url(#linear-gradient-66);}.cls-75{fill:url(#linear-gradient-67);}.cls-76{fill:url(#linear-gradient-68);}.cls-77{fill:url(#linear-gradient-69);}.cls-78{fill:url(#linear-gradient-70);}.cls-79{fill:url(#linear-gradient-71);}.cls-80{fill:url(#linear-gradient-72);}.cls-81{fill:url(#linear-gradient-73);}.cls-82{fill:url(#linear-gradient-74);}.cls-83{fill:url(#linear-gradient-75);}.cls-84{fill:url(#linear-gradient-76);}.cls-85{fill:url(#linear-gradient-77);}.cls-86{fill:url(#linear-gradient-78);}.cls-87{fill:url(#linear-gradient-79);}.cls-88{fill:url(#linear-gradient-80);}.cls-89{fill:url(#linear-gradient-81);}.cls-90{fill:url(#linear-gradient-82);}.cls-91{fill:url(#linear-gradient-83);}.cls-92{fill:url(#linear-gradient-84);}.cls-93{fill:url(#linear-gradient-85);}.cls-94{fill:url(#linear-gradient-86);}.cls-95{fill:url(#linear-gradient-87);}.cls-96{fill:url(#linear-gradient-88);}.cls-97{fill:url(#linear-gradient-89);}.cls-98{fill:url(#linear-gradient-90);}.cls-99{fill:url(#linear-gradient-91);}.cls-100{fill:url(#linear-gradient-92);}.cls-101{fill:url(#linear-gradient-93);}.cls-102{fill:url(#linear-gradient-94);}.cls-103{fill:url(#linear-gradient-95);}.cls-104{fill:url(#linear-gradient-96);}.cls-105{fill:url(#linear-gradient-97);}.cls-106{fill:url(#linear-gradient-98);}.cls-107{fill:url(#linear-gradient-99);}.cls-108{clip-path:url(#clip-path-2);}.cls-109{fill:url(#linear-gradient-100);}.cls-110{opacity:0.57;}.cls-111{clip-path:url(#clip-path-3);}.cls-112{fill:url(#linear-gradient-101);}.cls-113{clip-path:url(#clip-path-4);}.cls-114{fill:url(#linear-gradient-102);}.cls-115{fill:url(#linear-gradient-103);}.cls-116{opacity:0.6;}.cls-118{fill:url(#linear-gradient-104);}.cls-119{fill:url(#linear-gradient-105);}.cls-120{opacity:0.83;}.cls-121{fill:url(#linear-gradient-106);}</style><linearGradient id="linear-gradient" x1="-4098.2" y1="821.58" x2="-1823.97" y2="821.58" gradientTransform="matrix(-1, 0, 0, 1, -1723.59, 0)" gradientUnits="userSpaceOnUse"><stop offset="0" stop-color="#dae3fe"/><stop offset="1" stop-color="#e9effd"/></linearGradient><linearGradient id="linear-gradient-2" x1="1271.68" y1="517.09" x2="1379.19" y2="1630.1" gradientTransform="translate(2211.84 -398.49) rotate(87.49)" gradientUnits="userSpaceOnUse"><stop offset="0" stop-color="#4042e2"/><stop offset="1" stop-color="#4f52ff"/></linearGradient><linearGradient id="linear-gradient-3" x1="1030.61" y1="1000.88" x2="904.93" y2="1406.64" gradientUnits="userSpaceOnUse"><stop offset="0" stop-color="#fe7062"/><stop offset="1" stop-color="#ff928e"/></linearGradient><linearGradient id="linear-gradient-4" x1="1403.33" y1="869.45" x2="1277.65" y2="1275.21" xlink:href="#linear-gradient-3"/><linearGradient id="linear-gradient-5" x1="1187.54" y1="773.33" x2="1061.86" y2="1179.09" xlink:href="#linear-gradient-3"/><linearGradient id="linear-gradient-6" x1="1417.06" y1="1148" x2="1291.38" y2="1553.77" xlink:href="#linear-gradient-3"/><linearGradient id="linear-gradient-7" x1="1611.26" y1="973.42" x2="1485.58" y2="1379.18" xlink:href="#linear-gradient-3"/><linearGradient id="linear-gradient-8" x1="1115.75" y1="1281.97" x2="1432.6" y2="1281.97" gradientTransform="matrix(1, 0, 0, 1, 0, 0)" xlink:href="#linear-gradient"/><linearGradient id="linear-gradient-9" x1="1479.76" y1="1233.25" x2="1629.4" y2="1233.25" gradientTransform="matrix(1, 0, 0, 1, 0, 0)" xlink:href="#linear-gradient"/><linearGradient id="linear-gradient-10" x1="1128.91" y1="1184.94" x2="1262.31" y2="1184.94" gradientTransform="matrix(1, 0, 0, 1, 0, 0)" xlink:href="#linear-gradient"/><linearGradient id="linear-gradient-11" x1="1495.76" y1="1341.19" x2="1640.11" y2="1341.19" gradientTransform="matrix(1, 0, 0, 1, 0, 0)" xlink:href="#linear-gradient"/><linearGradient id="linear-gradient-12" x1="6814.73" y1="1257.43" x2="6355.92" y2="1779.84" gradientTransform="translate(-6172.5)" gradientUnits="userSpaceOnUse"><stop offset="0" stop-color="#09005d"/><stop offset="1" stop-color="#1a0f91"/></linearGradient><linearGradient id="linear-gradient-13" x1="6714.95" y1="1219.28" x2="6256.14" y2="1741.69" xlink:href="#linear-gradient-12"/><linearGradient id="linear-gradient-14" x1="6404.09" y1="1349.68" x2="6557.73" y2="1349.68" gradientTransform="translate(-6172.5)" xlink:href="#linear-gradient-3"/><linearGradient id="linear-gradient-15" x1="6495.42" y1="1349.68" x2="6649.06" y2="1349.68" gradientTransform="translate(-6172.5)" xlink:href="#linear-gradient-3"/><linearGradient id="linear-gradient-16" x1="6542.81" y1="1178.07" x2="6741.33" y2="1178.07" gradientTransform="translate(-6172.5)" xlink:href="#linear-gradient-3"/><linearGradient id="linear-gradient-17" x1="6529.34" y1="1231.16" x2="6626.72" y2="1231.16" gradientTransform="translate(-6172.5)" xlink:href="#linear-gradient-3"/><linearGradient id="linear-gradient-18" x1="6504.12" y1="1295.74" x2="6595.72" y2="1295.74" gradientTransform="translate(-6272.89 -123.39)" xlink:href="#linear-gradient-3"/><linearGradient id="linear-gradient-19" x1="6476.91" y1="1360.32" x2="6568.51" y2="1360.32" gradientTransform="translate(-6272.89 -123.39)" xlink:href="#linear-gradient-3"/><linearGradient id="linear-gradient-20" x1="6445.49" y1="1424.9" x2="6542.87" y2="1424.9" gradientTransform="translate(-6172.5)" xlink:href="#linear-gradient-3"/><linearGradient id="linear-gradient-21" x1="6417.9" y1="1489.48" x2="6515.28" y2="1489.48" gradientTransform="translate(-6172.5)" xlink:href="#linear-gradient-3"/><linearGradient id="linear-gradient-22" x1="502.02" y1="1177.38" x2="555.31" y2="1177.38" gradientTransform="matrix(1, 0, 0, 1, 0, 0)" xlink:href="#linear-gradient-2"/><linearGradient id="linear-gradient-23" x1="502.02" y1="1166.93" x2="553.81" y2="1166.93" gradientTransform="matrix(1, 0, 0, 1, 0, 0)" xlink:href="#linear-gradient-12"/><linearGradient id="linear-gradient-24" x1="506.94" y1="1152.35" x2="521.95" y2="1152.35" gradientUnits="userSpaceOnUse"><stop offset="0" stop-color="#ff928e"/><stop offset="1" stop-color="#feb3b1"/></linearGradient><linearGradient id="linear-gradient-25" x1="395.77" y1="1176.23" x2="416.19" y2="1176.23" gradientTransform="matrix(1, 0, 0, 1, 0, 0)" xlink:href="#linear-gradient-2"/><linearGradient id="linear-gradient-26" x1="395.92" y1="1160.5" x2="425.9" y2="1160.5" gradientTransform="matrix(1, 0, 0, 1, 0, 0)" xlink:href="#linear-gradient-12"/><linearGradient id="linear-gradient-27" x1="411.5" y1="1139.83" x2="429.44" y2="1139.83" xlink:href="#linear-gradient-24"/><linearGradient id="linear-gradient-28" x1="369.94" y1="1192.3" x2="605.63" y2="925.65" gradientTransform="matrix(1, 0, 0, 1, 0, 0)" xlink:href="#linear-gradient-12"/><linearGradient id="linear-gradient-29" x1="552.55" y1="902.7" x2="613.55" y2="1144.7" xlink:href="#linear-gradient-3"/><linearGradient id="linear-gradient-30" x1="471.96" y1="1073.39" x2="480.56" y2="1056.2" gradientTransform="matrix(1, 0, 0, 1, 0, 0)" xlink:href="#linear-gradient-2"/><linearGradient id="linear-gradient-31" x1="493.7" y1="878.32" x2="429.83" y2="934.88" xlink:href="#linear-gradient-24"/><linearGradient id="linear-gradient-32" x1="500.92" y1="915.72" x2="561.92" y2="1157.72" xlink:href="#linear-gradient-3"/><linearGradient id="linear-gradient-33" x1="144.91" y1="2591.18" x2="205.91" y2="2833.18" gradientTransform="translate(414.5 -88.17) rotate(-28.71)" xlink:href="#linear-gradient-3"/><linearGradient id="linear-gradient-34" x1="717.62" y1="783.65" x2="636.89" y2="875.16" xlink:href="#linear-gradient-24"/><linearGradient id="linear-gradient-35" x1="577.71" y1="737.59" x2="546.38" y2="825.59" xlink:href="#linear-gradient-24"/><linearGradient id="linear-gradient-36" x1="-189.21" y1="2395.29" x2="-235.44" y2="2456.45" gradientTransform="matrix(0.92, -0.39, 0.39, 0.92, -166.01, -1553.98)" xlink:href="#linear-gradient-24"/><linearGradient id="linear-gradient-37" x1="-224.52" y1="2410.04" x2="-169.29" y2="2410.04" gradientTransform="matrix(0.92, -0.39, 0.39, 0.92, -166.01, -1553.98)" xlink:href="#linear-gradient-12"/><linearGradient id="linear-gradient-38" x1="-256.92" y1="2443.72" x2="-219.84" y2="2405.68" gradientTransform="matrix(0.92, -0.39, 0.39, 0.92, -166.01, -1553.98)" xlink:href="#linear-gradient-24"/><linearGradient id="linear-gradient-39" x1="518.92" y1="906.8" x2="455.05" y2="963.36" xlink:href="#linear-gradient-24"/><linearGradient id="linear-gradient-40" x1="725.43" y1="794.16" x2="646.63" y2="883.45" xlink:href="#linear-gradient-24"/><linearGradient id="linear-gradient-41" x1="692.14" y1="839.96" x2="656.14" y2="942.62" xlink:href="#linear-gradient-24"/><linearGradient id="linear-gradient-42" x1="638.89" y1="1215.22" x2="902.92" y2="861.04" gradientTransform="matrix(1, 0, 0, 1, 0, 0)" xlink:href="#linear-gradient-12"/><linearGradient id="linear-gradient-43" x1="983.15" y1="235.3" x2="1463.74" y2="1091.24" xlink:href="#linear-gradient-3"/><linearGradient id="linear-gradient-44" x1="1890" y1="344.82" x2="1400.56" y2="548.75" gradientUnits="userSpaceOnUse"><stop offset="0" stop-color="#e1473d"/><stop offset="1" stop-color="#e9605a"/></linearGradient><linearGradient id="linear-gradient-45" x1="1497.24" y1="645.58" x2="1691.45" y2="627.93" xlink:href="#linear-gradient-3"/><clipPath id="clip-path" transform="translate(-100.39 -123.39)"><path class="cls-1" d="M1584.4,977.06c-6.66-6.78-21.19-32.95-33.65-100.6-12-65.39-18.66-150.19-18.66-238.8s6.63-173.41,18.66-238.79c12.46-67.66,27-93.83,33.65-100.61,6.67,6.78,21.2,32.95,33.65,100.61,12,65.38,107,150.18,107,238.79s-95,173.41-107,238.8C1605.6,944.11,1591.07,970.28,1584.4,977.06Z"/></clipPath><linearGradient id="linear-gradient-46" x1="1742.27" y1="625.66" x2="1218.48" y2="655.72" gradientTransform="matrix(1, 0, 0, 1, 0, 0)" xlink:href="#linear-gradient-12"/><linearGradient id="linear-gradient-47" x1="750.08" y1="811.76" x2="730.76" y2="325.57" gradientTransform="matrix(1, 0, 0, 1, 0, 0)" xlink:href="#linear-gradient-12"/><linearGradient id="linear-gradient-48" x1="667.48" y1="587.52" x2="809.52" y2="587.52" gradientTransform="matrix(1, 0, 0, 1, 0, 0)" xlink:href="#linear-gradient"/><linearGradient id="linear-gradient-49" x1="656.74" y1="640.83" x2="798.78" y2="640.83" gradientTransform="matrix(1, 0, 0, 1, 0, 0)" xlink:href="#linear-gradient"/><linearGradient id="linear-gradient-50" x1="1198.05" y1="-334.51" x2="1216.05" y2="277.55" xlink:href="#linear-gradient-24"/><linearGradient id="linear-gradient-51" x1="848.26" y1="-324.22" x2="866.26" y2="287.84" xlink:href="#linear-gradient-24"/><linearGradient id="linear-gradient-52" x1="667.48" y1="703.26" x2="809.52" y2="703.26" gradientTransform="matrix(1, 0, 0, 1, 0, 0)" xlink:href="#linear-gradient"/><linearGradient id="linear-gradient-53" x1="678.75" y1="772.56" x2="820.79" y2="772.56" gradientTransform="matrix(1, 0, 0, 1, 0, 0)" xlink:href="#linear-gradient"/><linearGradient id="linear-gradient-54" x1="749.77" y1="1032.54" x2="971.3" y2="1032.54" gradientTransform="matrix(1, 0, 0, 1, 0, 0)" xlink:href="#linear-gradient"/><linearGradient id="linear-gradient-55" x1="724.83" y1="860.08" x2="741.44" y2="860.08" gradientTransform="matrix(1, 0, 0, 1, 0, 0)" xlink:href="#linear-gradient"/><linearGradient id="linear-gradient-56" x1="1545.75" y1="585.04" x2="1664.33" y2="585.04" gradientTransform="matrix(1, 0, 0, 1, 0, 0)" xlink:href="#linear-gradient"/><linearGradient id="linear-gradient-57" x1="334.87" y1="1491.39" x2="380.11" y2="1491.39" gradientTransform="translate(1290.1)" xlink:href="#linear-gradient-12"/><linearGradient id="linear-gradient-58" x1="448.11" y1="1438.03" x2="283.55" y2="1567.24" gradientTransform="translate(1290.1)" xlink:href="#linear-gradient-2"/><linearGradient id="linear-gradient-59" x1="347.45" y1="1439.9" x2="338.81" y2="1515.31" gradientTransform="translate(1290.1)" xlink:href="#linear-gradient-24"/><linearGradient id="linear-gradient-60" x1="477.35" y1="1475.21" x2="312.79" y2="1604.42" gradientTransform="translate(1290.1)" xlink:href="#linear-gradient-2"/><linearGradient id="linear-gradient-61" x1="403.75" y1="1492.54" x2="468.86" y2="1492.54" gradientTransform="translate(1290.1)" xlink:href="#linear-gradient-12"/><linearGradient id="linear-gradient-62" x1="559.21" y1="1461.13" x2="550.57" y2="1536.53" gradientTransform="translate(1056.76 24.83) rotate(-3.61)" xlink:href="#linear-gradient-24"/><linearGradient id="linear-gradient-63" x1="-228.22" y1="1377.76" x2="264.26" y2="773.65" gradientTransform="matrix(-1, 0, 0, 1, 1469.84, 0)" xlink:href="#linear-gradient-12"/><linearGradient id="linear-gradient-64" x1="517.22" y1="1069.17" x2="613.48" y2="1069.17" gradientTransform="translate(1290.1)" xlink:href="#linear-gradient-24"/><linearGradient id="linear-gradient-65" x1="1712.81" y1="587.96" x2="1914.81" y2="503.29" gradientTransform="translate(1290.1)" xlink:href="#linear-gradient-2"/><linearGradient id="linear-gradient-66" x1="449.14" y1="982.98" x2="398.71" y2="1034.44" gradientTransform="translate(1290.1)" xlink:href="#linear-gradient-3"/><linearGradient id="linear-gradient-67" x1="1758.55" y1="573.8" x2="1565.05" y2="642.3" gradientTransform="translate(1290.1)" xlink:href="#linear-gradient-24"/><linearGradient id="linear-gradient-68" x1="1849.25" y1="967.83" x2="1824.25" y2="1048.83" xlink:href="#linear-gradient-24"/><linearGradient id="linear-gradient-69" x1="1754.59" y1="562.62" x2="1561.09" y2="631.12" gradientTransform="translate(1290.1)" xlink:href="#linear-gradient-24"/><linearGradient id="linear-gradient-70" x1="800.5" y1="993.76" x2="544.87" y2="1330.93" gradientTransform="translate(822.96 65.79) rotate(-7.69)" xlink:href="#linear-gradient-3"/><linearGradient id="linear-gradient-71" x1="390.68" y1="976.49" x2="410.74" y2="921.69" gradientTransform="translate(1290.1)" xlink:href="#linear-gradient-24"/><linearGradient id="linear-gradient-72" x1="1662.74" y1="1043.26" x2="1830.74" y2="1096.76" xlink:href="#linear-gradient-24"/><linearGradient id="linear-gradient-73" x1="-208.45" y1="1044.58" x2="-172.82" y2="1044.58" gradientTransform="matrix(-1, 0, 0, 1, 1469.84, 0)" xlink:href="#linear-gradient-44"/><linearGradient id="linear-gradient-74" x1="-242.87" y1="1004.76" x2="-181.5" y2="1004.76" gradientTransform="matrix(-1, 0, 0, 1, 1469.84, 0)" xlink:href="#linear-gradient-44"/><linearGradient id="linear-gradient-75" x1="521.51" y1="1304.17" x2="500.01" y2="1232.17" gradientTransform="translate(1290.1)" xlink:href="#linear-gradient-24"/><linearGradient id="linear-gradient-76" x1="385.09" y1="886.87" x2="439.89" y2="957.43" gradientTransform="translate(1290.1)" xlink:href="#linear-gradient-12"/><linearGradient id="linear-gradient-77" x1="502.42" y1="1309.87" x2="480.92" y2="1237.87" gradientTransform="translate(1290.1)" xlink:href="#linear-gradient-24"/><linearGradient id="linear-gradient-78" x1="515.47" y1="1093.51" x2="539.2" y2="1093.51" gradientTransform="translate(1290.1)" xlink:href="#linear-gradient-24"/><linearGradient id="linear-gradient-79" x1="1744.05" y1="662.48" x2="1946.05" y2="577.82" gradientTransform="translate(1290.1)" xlink:href="#linear-gradient-2"/><linearGradient id="linear-gradient-80" x1="732.6" y1="972.88" x2="717.17" y2="926.57" gradientTransform="translate(1290.1)" xlink:href="#linear-gradient-24"/><linearGradient id="linear-gradient-81" x1="2019.39" y1="1107.98" x2="2181.73" y2="1107.98" gradientTransform="matrix(1, 0, 0, 1, 0, 0)" xlink:href="#linear-gradient"/><linearGradient id="linear-gradient-82" x1="816.76" y1="1091.34" x2="849.69" y2="1239.01" gradientTransform="translate(1290.1)" xlink:href="#linear-gradient-3"/><linearGradient id="linear-gradient-83" x1="1742.21" y1="658.1" x2="1944.21" y2="573.44" gradientTransform="translate(1290.1)" xlink:href="#linear-gradient-2"/><linearGradient id="linear-gradient-84" x1="755.54" y1="1040.67" x2="823.5" y2="1076.85" gradientTransform="translate(1290.1)" gradientUnits="userSpaceOnUse"><stop offset="0" stop-color="#53d8ff"/><stop offset="1" stop-color="#3840f7"/></linearGradient><linearGradient id="linear-gradient-85" x1="858.2" y1="1046.48" x2="808.03" y2="1142.96" gradientTransform="translate(1290.1)" xlink:href="#linear-gradient-24"/><linearGradient id="linear-gradient-86" x1="3839.43" y1="4606.17" x2="3783.94" y2="4679.57" gradientTransform="matrix(-0.69, -0.73, -0.73, 0.69, 7995.85, 544.78)" xlink:href="#linear-gradient-24"/><linearGradient id="linear-gradient-87" x1="3797.05" y1="4623.8" x2="3863.33" y2="4623.8" gradientTransform="matrix(-0.69, -0.73, -0.73, 0.69, 7995.85, 544.78)" xlink:href="#linear-gradient-12"/><linearGradient id="linear-gradient-88" x1="3758.16" y1="4664.3" x2="3802.67" y2="4618.64" gradientTransform="matrix(-0.69, -0.73, -0.73, 0.69, 7995.85, 544.78)" xlink:href="#linear-gradient-24"/><linearGradient id="linear-gradient-89" x1="1425.75" y1="1509.53" x2="1494.7" y2="1509.53" gradientTransform="matrix(-1, 0, 0, 1, 3517.76, 0)" xlink:href="#linear-gradient-2"/><linearGradient id="linear-gradient-90" x1="1425.75" y1="1496.02" x2="1492.75" y2="1496.02" gradientTransform="matrix(-1, 0, 0, 1, 3517.76, 0)" xlink:href="#linear-gradient-12"/><linearGradient id="linear-gradient-91" x1="1432.12" y1="1477.15" x2="1451.54" y2="1477.15" gradientTransform="matrix(-1, 0, 0, 1, 3517.76, 0)" xlink:href="#linear-gradient-24"/><linearGradient id="linear-gradient-92" x1="1288.29" y1="1508.04" x2="1314.71" y2="1508.04" gradientTransform="matrix(-1, 0, 0, 1, 3517.76, 0)" xlink:href="#linear-gradient-2"/><linearGradient id="linear-gradient-93" x1="1288.48" y1="1487.7" x2="1327.27" y2="1487.7" gradientTransform="matrix(-1, 0, 0, 1, 3517.76, 0)" xlink:href="#linear-gradient-12"/><linearGradient id="linear-gradient-94" x1="1308.64" y1="1460.96" x2="1331.85" y2="1460.96" gradientTransform="matrix(-1, 0, 0, 1, 3517.76, 0)" xlink:href="#linear-gradient-24"/><linearGradient id="linear-gradient-95" x1="-1016.17" y1="1479.19" x2="-661.98" y2="989.51" gradientTransform="matrix(-1, 0, 0, 1, 1184.76, 0)" xlink:href="#linear-gradient-12"/><linearGradient id="linear-gradient-96" x1="2124.45" y1="138.98" x2="1714.16" y2="774.38" gradientTransform="matrix(1, 0, 0, 1, 0, 0)" xlink:href="#linear-gradient-2"/><linearGradient id="linear-gradient-97" x1="1884" y1="277.23" x2="2183.06" y2="277.23" gradientTransform="matrix(1, 0, 0, 1, 0, 0)" xlink:href="#linear-gradient"/><linearGradient id="linear-gradient-98" x1="1916.46" y1="290.15" x2="2123.2" y2="290.15" gradientTransform="matrix(1, 0, 0, 1, 0, 0)" xlink:href="#linear-gradient"/><linearGradient id="linear-gradient-99" x1="2085.39" y1="217.97" x2="2140.4" y2="217.97" gradientTransform="translate(208.21 -722.25) rotate(20.38)" xlink:href="#linear-gradient"/><clipPath id="clip-path-2" transform="translate(-100.39 -123.39)"><path class="cls-2" d="M456.07,330.74a74.56,74.56,0,1,0,74.55,74.56A74.56,74.56,0,0,0,456.07,330.74Zm0,117a42.48,42.48,0,1,1,42.47-42.48A42.48,42.48,0,0,1,456.07,447.78Z"/></clipPath><linearGradient id="linear-gradient-100" x1="361.64" y1="221.21" x2="365.56" y2="764.59" xlink:href="#linear-gradient-3"/><clipPath id="clip-path-3" transform="translate(-100.39 -123.39)"><path class="cls-1" d="M637.82,330.74a74.56,74.56,0,1,0,74.55,74.56A74.56,74.56,0,0,0,637.82,330.74Zm0,117a42.48,42.48,0,1,1,42.47-42.48A42.48,42.48,0,0,1,637.82,447.78Z"/></clipPath><linearGradient id="linear-gradient-101" x1="543.51" y1="219.9" x2="547.43" y2="763.28" xlink:href="#linear-gradient-3"/><clipPath id="clip-path-4" transform="translate(-100.39 -123.39)"><path class="cls-1" d="M819.56,330.74a74.56,74.56,0,1,0,74.56,74.56A74.56,74.56,0,0,0,819.56,330.74Zm0,117A42.48,42.48,0,1,1,862,405.3,42.47,42.47,0,0,1,819.56,447.78Z"/></clipPath><linearGradient id="linear-gradient-102" x1="724.95" y1="218.59" x2="728.87" y2="761.97" xlink:href="#linear-gradient-3"/><linearGradient id="linear-gradient-103" x1="1901.44" y1="427.75" x2="1896.41" y2="943.37" xlink:href="#linear-gradient-44"/><linearGradient id="linear-gradient-104" x1="1965.31" y1="759.09" x2="2276.56" y2="392.67" gradientTransform="matrix(1, 0, 0, 1, 0, 0)" xlink:href="#linear-gradient-2"/><linearGradient id="linear-gradient-105" x1="2113.73" y1="506.48" x2="2293.82" y2="506.48" xlink:href="#linear-gradient-3"/><linearGradient id="linear-gradient-106" x1="2214.25" y1="337.4" x2="2337.95" y2="337.4" xlink:href="#linear-gradient-44"/></defs><g class="cls-3"><g id="Illustration"><path class="cls-4" d="M526.27,1488.09c-291.46-51.55-234-412.42-170-522.15s82.41-102.13-88.9-213.8S62.11,453.07,140.2,314s226.65-151.22,408.28-63.62S712,105.86,888.59,124.46s128.15,223.85,347.8,153.36,153.5,31.58,320.52,61.89,380.26-197.94,567.14-39,74.32,317-14.29,394.06-60.53,134.13,104.16,189,245.66,248.75,30.57,443.19-987.29,185.8-987.29,185.8S817.73,1539.63,526.27,1488.09Z" transform="translate(-100.39 -123.39)"/><path class="cls-5" d="M281.89,538.8c.5-8.33,14.32-11.46,18.63-4.21,41.6,70.15,158,250.83,296.83,331.38,226,131.16,409.56,380.64,315.95,547.37C913.3,1413.34,227.4,1447,281.89,538.8Z" transform="translate(-100.39 -123.39)"/><path class="cls-6" d="M324.94,642.17c.67,1.89,1.66,4.1,2.53,6.17l2.78,6.28c1.9,4.16,3.79,8.34,5.75,12.48q5.81,12.45,11.84,24.81c8,16.49,16.4,32.79,24.85,49.06q25.51,48.72,53.21,96.24c9.21,15.84,18.72,31.51,28.27,47.15l14.49,23.35,14.83,23.15q29.94,46.1,62.18,90.63c21.67,29.54,44,58.6,67.21,86.92s47.75,55.56,72.93,82.15q38,39.63,79.35,75.93a1077,1077,0,0,0,86.71,67.44h0a1,1,0,0,1-1.1,1.62,998.71,998.71,0,0,1-88.26-66q-41.82-36-80.5-75.36-38.25-39.73-73.57-82.14c-23.37-28.37-46-57.34-67.58-87.11a2082.17,2082.17,0,0,1-119.24-185.3q-27.31-47.85-52.34-96.95c-8.21-16.43-16.35-32.89-24.13-49.53-3.88-8.31-7.74-16.65-11.47-25-1.87-4.19-3.68-8.42-5.5-12.63l-2.66-6.36c-.84-2.18-1.74-4.17-2.52-6.63a1,1,0,0,1,1.84-.62Z" transform="translate(-100.39 -123.39)"/><path class="cls-2" d="M528.06,457.06c1.15-6.12,10.38-6.78,12.44-.87,19.88,57.12,77,205.36,158.65,282C832,862.86,925.68,1070.31,848.67,1182.83,848.67,1182.83,402.57,1124.93,528.06,457.06Z" transform="translate(-100.39 -123.39)"/><path class="cls-6" d="M545.91,539c.24,1.42.66,3.14,1,4.75l1.17,4.89,2.46,9.75q2.52,9.75,5.15,19.46c3.53,13,7.26,25.85,11.09,38.71q11.48,38.59,24.48,76.7c17.44,50.76,36.56,101,58.32,150,11,24.46,22.26,48.8,34.43,72.7s25.1,47.38,38.82,70.4,28.3,45.54,44,67.28a778.18,778.18,0,0,0,50.37,62.66h0a1,1,0,0,1-1.44,1.34A703.84,703.84,0,0,1,763.56,1056c-16.1-21.61-31-44.07-45.23-66.95-14.05-23-27-46.63-39.43-70.51S655,870.3,644.17,845.65s-20.94-49.6-30.58-74.73c-4.83-12.55-9.43-25.2-14-37.86L593,714l-6.38-19.14c-8.36-25.58-16.28-51.29-23.48-77.21q-5.36-19.46-10.3-39c-1.61-6.52-3.22-13-4.73-19.61l-2.19-9.85-1-4.95c-.32-1.68-.68-3.23-.92-5.13a1,1,0,0,1,.84-1.09,1,1,0,0,1,1.08.79Z" transform="translate(-100.39 -123.39)"/><path class="cls-2" d="M1410,1493.84S1801.34,960.35,2229.29,760c28.77-13.46,61.07,10.09,56.85,41.57C2258,1012.12,2114.9,1626.3,1410,1493.84Z" transform="translate(-100.39 -123.39)"/><path class="cls-6" d="M1485.21,1480.6a1.75,1.75,0,0,0,1.06,3.33c78.73-19.19,402.85-140,672.88-539.95a1.22,1.22,0,0,0-1.94-1.49C2085.36,1031.28,1808.78,1353.73,1485.21,1480.6Z" transform="translate(-100.39 -123.39)"/><path class="cls-2" d="M231.57,1121.35c-5-6.15,1.71-15.21,9.06-12.19,71,29.1,259.76,99.49,398.71,87.9,226.25-18.88,501.24,67,548.67,231.41C1188,1428.47,777,1791.41,231.57,1121.35Z" transform="translate(-100.39 -123.39)"/><path class="cls-6" d="M324.83,1173.1c1.62,1,3.57,2,5.4,3l5.62,3,11.32,5.84q11.34,5.77,22.76,11.4,22.86,11.22,46,21.91,46.19,21.45,93.17,41.1c62.68,26.06,126.21,50.12,190.83,70.81,32.35,10.21,64.82,20.09,97.63,28.7s65.84,16.34,99.13,22.77c4.15.9,8.33,1.62,12.5,2.36l12.51,2.24,12.52,2.24,12.58,1.89,12.57,1.89c4.2.61,8.38,1.32,12.59,1.76l25.26,3a972.68,972.68,0,0,0,101.55,5.47h0a1,1,0,0,1,0,2,899.63,899.63,0,0,1-102-3.39l-25.4-2.71c-4.24-.39-8.44-1-12.66-1.61L946.08,1395l-12.64-1.76-12.59-2.09-12.6-2.1c-4.2-.7-8.4-1.37-12.57-2.22-66.91-12.63-132.85-30.08-197.59-51-32.4-10.42-64.45-21.87-96.3-33.81s-63.42-24.62-94.64-38.11-62.25-27.42-92.88-42.19q-23-11.12-45.68-22.7c-7.55-3.9-15.1-7.81-22.6-11.82l-11.2-6.1-5.57-3.11c-1.86-1.1-3.66-2-5.62-3.35a1,1,0,0,1,1-1.65Z" transform="translate(-100.39 -123.39)"/><ellipse class="cls-7" cx="1314.1" cy="956.29" rx="568.75" ry="613.91" transform="translate(200.72 2103.79) rotate(-87.49)"/><ellipse class="cls-8" cx="1180.62" cy="791.22" rx="481.73" ry="455.08"/><path class="cls-9" d="M1470.94,959c-.15,100.32-7,200.83-24.71,299.72-4.47,24.71-9.66,49.29-15.84,73.64a708.07,708.07,0,0,1-22.13,72.06c-8.84,23.53-19.09,46.73-33,67.92-7,10.52-15,20.6-24.77,28.9a70.66,70.66,0,0,1-16.21,10.45,48.68,48.68,0,0,1-18.94,4.46,47.69,47.69,0,0,1-19.13-3.52,66.66,66.66,0,0,1-16.6-9.88c-10-8-18.17-18-25.31-28.44-14.15-21-24.55-44.19-33.48-67.69a691.64,691.64,0,0,1-22.36-72c-6.25-24.34-11.49-48.91-16-73.61-9-49.4-15.15-99.27-19.29-149.28s-6.18-100.2-6.43-150.39c-.12-25.09.56-50.18,1.45-75.25s2.32-50.12,4.17-75.14c3.71-50,9.25-100,17.49-149.47,4.14-24.75,9-49.4,14.76-73.83a708.92,708.92,0,0,1,21-72.34c4.21-11.84,8.81-23.55,14.07-35a254.75,254.75,0,0,1,18-33.2c6.91-10.52,14.86-20.57,24.75-28.62a63.23,63.23,0,0,1,16.37-9.81,46.25,46.25,0,0,1,18.82-3.34,49.88,49.88,0,0,1,18.6,4.36,72.19,72.19,0,0,1,16.16,10.09c9.87,8,18,17.83,25.29,28.12,14.41,20.75,25.28,43.62,34.69,66.9a686.28,686.28,0,0,1,23.77,71.47c6.69,24.2,12.36,48.67,17.27,73.29C1462.76,758.18,1470.65,858.7,1470.94,959Zm-7.43,0q.13-75-6-149.78A1441.52,1441.52,0,0,0,1438,660.66c-4.62-24.55-10-49-16.39-73.11a682.71,682.71,0,0,0-22.85-71.29c-9.08-23.2-19.62-46-33.6-66.59-7-10.23-15-19.94-24.46-27.84a71,71,0,0,0-15.5-9.92,46.38,46.38,0,0,0-17.71-4.31,43.33,43.33,0,0,0-17.86,3.36,60.8,60.8,0,0,0-15.62,9.6c-9.49,7.89-17.19,17.81-23.87,28.24a251.82,251.82,0,0,0-17.42,33c-5.08,11.37-9.52,23-13.57,34.84a707.39,707.39,0,0,0-20,72.13c-5.5,24.37-10,49-13.88,73.65-7.67,49.39-12.65,99.19-15.8,149.08s-4.29,99.91-4.19,149.9q-.21,75,5.25,149.82c3.74,49.84,9.48,99.55,18.06,148.77,4.3,24.61,9.33,49.09,15.34,73.32a688.73,688.73,0,0,0,21.64,71.6c8.66,23.33,18.78,46.28,32.46,66.95,6.89,10.25,14.72,20,24.22,27.68a62.14,62.14,0,0,0,15.49,9.39,42.61,42.61,0,0,0,17.52,3.34,44.65,44.65,0,0,0,17.34-4.25,66.25,66.25,0,0,0,15.17-10c9.29-8,17-17.82,23.73-28.16,13.44-20.83,23.42-43.83,32-67.2a705.25,705.25,0,0,0,21.38-71.68c6-24.24,10.91-48.74,15.17-73.35,8.52-49.23,14.19-99,18-148.79S1463.53,1009,1463.51,959Z" transform="translate(-100.39 -123.39)"/><path class="cls-9" d="M1724,959c-.34,64.6-8.65,129.23-25.94,191.52-17.59,62.15-44.12,122-80.13,175.63a504.69,504.69,0,0,1-61.2,74.94,429,429,0,0,1-75.33,60.65,363.08,363.08,0,0,1-87.9,40.19,328.82,328.82,0,0,1-191.14.09,363.55,363.55,0,0,1-88-40.13,430.23,430.23,0,0,1-75.44-60.6,506.66,506.66,0,0,1-61.32-74.93c-36.08-53.69-62.66-113.51-80.33-175.69a695.17,695.17,0,0,1-19.45-95,713.92,713.92,0,0,1,.06-193.41,694.93,694.93,0,0,1,19.51-94.93c17.72-62.15,44.34-121.93,80.45-175.56A505.56,505.56,0,0,1,1039.19,517a428.19,428.19,0,0,1,75.41-60.5,365,365,0,0,1,87.9-40,326.38,326.38,0,0,1,190.84.08,364.36,364.36,0,0,1,87.83,40,427.82,427.82,0,0,1,75.31,60.54,505.44,505.44,0,0,1,61.21,74.87c36,53.62,62.6,113.37,80.23,175.5C1715.26,829.82,1723.6,894.44,1724,959Zm-8.51,0c-.09-63.86-8-127.8-24.9-189.44s-42.46-121-77.58-174.43a500.23,500.23,0,0,0-59.82-74.72,417.19,417.19,0,0,0-74-60.67,357.34,357.34,0,0,0-86.78-40.11,318.42,318.42,0,0,0-188.93.07,357.52,357.52,0,0,0-86.71,40.19,417.62,417.62,0,0,0-73.89,60.71,500.63,500.63,0,0,0-59.7,74.74c-35,53.44-60.51,112.84-77.37,174.36a700.24,700.24,0,0,0-18.6,93.84,729.82,729.82,0,0,0,.06,190.92,700,700,0,0,0,18.66,93.81c16.91,61.5,42.41,120.86,77.48,174.24a500.09,500.09,0,0,0,59.71,74.65c22.3,22.81,46.92,43.47,73.86,60.61a358.65,358.65,0,0,0,86.65,40,316.07,316.07,0,0,0,188.63.08,358.63,358.63,0,0,0,86.71-40c27-17.12,51.64-37.76,74-60.56a500.28,500.28,0,0,0,59.83-74.64c35.14-53.39,60.7-112.77,77.69-174.3S1715.34,1022.9,1715.48,959Z" transform="translate(-100.39 -123.39)"/><path class="cls-9" d="M800.75,738.56l128-1,128-.59,255.9-.47,255.9.52,128,.64,127.95,1.12a.38.38,0,0,1,.38.37.39.39,0,0,1-.38.38l-127.95,1.11-128,.64-255.9.52-255.9-.47-128-.59-128-1a.55.55,0,0,1-.55-.56A.56.56,0,0,1,800.75,738.56Z" transform="translate(-100.39 -123.39)"/><path class="cls-9" d="M949.19,524.25c30.28-.48,60.56-.68,90.84-1l90.85-.59c30.28-.25,60.56-.22,90.84-.3l90.84-.17,181.68.52,90.84.64c30.28.38,60.57.6,90.85,1.12a.38.38,0,0,1,.37.38.39.39,0,0,1-.37.37c-30.28.51-60.57.73-90.85,1.11l-90.84.64-181.68.52-90.84-.17c-30.28-.08-60.56,0-90.84-.3l-90.85-.58c-30.28-.35-60.56-.56-90.84-1a.56.56,0,0,1-.55-.57A.57.57,0,0,1,949.19,524.25Z" transform="translate(-100.39 -123.39)"/><path class="cls-9" d="M756.29,952.87l139.07-1,139.06-.59,278.14-.47,278.13.52,139.07.64,139.07,1.11a.38.38,0,0,1,0,.75l-139.07,1.12-139.07.64-278.13.52-278.14-.47L895.36,955l-139.07-1a.57.57,0,0,1-.56-.57A.56.56,0,0,1,756.29,952.87Z" transform="translate(-100.39 -123.39)"/><path class="cls-9" d="M800.75,1167.18l128-1,128-.58,255.9-.48,255.9.52,128,.64,127.95,1.12a.38.38,0,1,1,0,.75l-127.95,1.12-128,.64-255.9.52-255.9-.48-128-.58-128-1a.57.57,0,0,1-.55-.57A.55.55,0,0,1,800.75,1167.18Z" transform="translate(-100.39 -123.39)"/><path class="cls-9" d="M1694.23,1384H967.5a2,2,0,0,1,0-3.93h726.73a2,2,0,1,1,0,3.93Z" transform="translate(-100.39 -123.39)"/><circle class="cls-10" cx="981.16" cy="1160.53" r="27.46"/><circle class="cls-11" cx="1353.88" cy="1029.1" r="27.46"/><circle class="cls-12" cx="1138.09" cy="932.98" r="27.46"/><circle class="cls-13" cx="1367.61" cy="1307.66" r="27.46"/><circle class="cls-14" cx="1561.81" cy="1133.07" r="27.46"/><path class="cls-15" d="M1237.4,1356.15c-43.07,0-86.2-14.59-121.65-41.72l2.38-3.12c42.37,32.43,95.91,46.57,146.88,38.84s99.15-37.37,132.14-81.27a200,200,0,0,0,31.7-61.09l3.75,1.16a204,204,0,0,1-32.31,62.28c-33.6,44.72-82.69,74.9-134.69,82.8A187.63,187.63,0,0,1,1237.4,1356.15Z" transform="translate(-100.39 -123.39)"/><path class="cls-16" d="M1576.08,1284.58c-22.74,0-41.89-5.76-57.25-17.26-38.62-28.92-39.07-84.84-39.07-85.4h3.93c0,.54.47,54.55,37.52,82.28,25.13,18.8,61.16,21.51,107.09,8l1.1,3.77Q1600.15,1284.58,1576.08,1284.58Z" transform="translate(-100.39 -123.39)"/><path class="cls-17" d="M1136.18,1287.07a8.94,8.94,0,0,1-7.27-3.2l3-2.48c3.44,4.25,11.82-.4,13.47-1.37,36.43-21.54,66-50,85.52-82.32,21.57-35.71,30.9-76.35,26.28-114.42l3.89-.47c4.73,38.93-4.79,80.46-26.81,116.91-19.85,32.87-49.89,61.8-86.88,83.67C1143.29,1285.84,1139.44,1287.07,1136.18,1287.07Z" transform="translate(-100.39 -123.39)"/><path class="cls-18" d="M1499.44,1397.53l-3.68-1.36c4.75-12.88,14.14-23.43,23.59-32.91a391.19,391.19,0,0,1,82.48-63.23c11.43-6.55,23.9-12.93,37.64-15.19l.64,3.87c-13.12,2.16-25.21,8.35-36.32,14.72a387.38,387.38,0,0,0-81.66,62.6C1513,1375.2,1503.93,1385.36,1499.44,1397.53Z" transform="translate(-100.39 -123.39)"/><path class="cls-19" d="M560.27,1523.25a2.87,2.87,0,0,1-2.9-2.84V1181.1a2.9,2.9,0,0,1,5.79,0v339.31A2.87,2.87,0,0,1,560.27,1523.25Z" transform="translate(-100.39 -123.39)"/><path class="cls-20" d="M427,1523.25a2.87,2.87,0,0,1-2.9-2.84V1181.1a2.9,2.9,0,0,1,5.79,0v339.31A2.87,2.87,0,0,1,427,1523.25Z" transform="translate(-100.39 -123.39)"/><path class="cls-21" d="M234.48,1523.25a3,3,0,0,1-1.13-.23,2.82,2.82,0,0,1-1.53-3.72l147.86-341.46a2.9,2.9,0,0,1,3.79-1.5,2.82,2.82,0,0,1,1.53,3.72L237.14,1521.52A2.89,2.89,0,0,1,234.48,1523.25Z" transform="translate(-100.39 -123.39)"/><path class="cls-22" d="M325.81,1523.25a3,3,0,0,1-1.13-.23,2.81,2.81,0,0,1-1.53-3.72L471,1177.84a2.92,2.92,0,0,1,3.8-1.5,2.82,2.82,0,0,1,1.53,3.72L328.47,1521.52A2.9,2.9,0,0,1,325.81,1523.25Z" transform="translate(-100.39 -123.39)"/><path class="cls-23" d="M564.75,1182.07H374.39a4,4,0,0,1-4.08-4h0a4,4,0,0,1,4.08-4H564.75a4,4,0,0,1,4.08,4h0A4,4,0,0,1,564.75,1182.07Z" transform="translate(-100.39 -123.39)"/><path class="cls-24" d="M451.33,1234h-91.6a2.84,2.84,0,1,1,0-5.68h91.6a2.84,2.84,0,1,1,0,5.68Z" transform="translate(-100.39 -123.39)"/><rect class="cls-25" x="231.24" y="1169.51" width="91.6" height="5.68"/><rect class="cls-26" x="204.03" y="1234.09" width="91.6" height="5.68"/><path class="cls-27" d="M367.48,1427.74h-91.6a2.84,2.84,0,1,1,0-5.68h91.6a2.84,2.84,0,1,1,0,5.68Z" transform="translate(-100.39 -123.39)"/><path class="cls-28" d="M339.89,1492.31h-91.6a2.84,2.84,0,1,1,0-5.67h91.6a2.84,2.84,0,1,1,0,5.67Z" transform="translate(-100.39 -123.39)"/><path class="cls-29" d="M553.81,1174.8c-9.13.79-25,2.07-37.47,2.62-7.51.33-11.83-.4-14.32-1.4,0,.28,0,.54,0,.79a2.58,2.58,0,0,0,2.46,2.44,437.48,437.48,0,0,0,49.06,0,1.84,1.84,0,0,0,1.5-2.76A16.49,16.49,0,0,0,553.81,1174.8Z" transform="translate(-100.39 -123.39)"/><path class="cls-30" d="M516.34,1177.42c12.49-.55,28.34-1.83,37.47-2.62-9-11-37.47-18.44-37.47-18.44h-8.05A33.79,33.79,0,0,0,502,1176C504.51,1177,508.83,1177.75,516.34,1177.42Z" transform="translate(-100.39 -123.39)"/><path class="cls-31" d="M506.94,1143.23l.75,14.9a3.4,3.4,0,0,0,2.91,3.2,13.21,13.21,0,0,0,6-.5,4,4,0,0,0,2.71-3.1l2.6-14.5Z" transform="translate(-100.39 -123.39)"/><path class="cls-32" d="M402.42,1177.31c-4-.55-5.75-2.61-6.5-4.81l0,.06c-.58,2.32.77,4.72,3.47,5.87a22.75,22.75,0,0,0,9.6,1.5,9.54,9.54,0,0,0,7.2-3.32l0,0C413.21,1178.06,409,1178.23,402.42,1177.31Z" transform="translate(-100.39 -123.39)"/><path class="cls-33" d="M421.09,1143.13h-6.64c-10.11-.21-16.45,21.11-18.53,29.37.75,2.2,2.54,4.26,6.5,4.81,6.6.92,10.79.75,13.77-.73,5.47-7.19,8.17-17.71,9.47-23.85A8.38,8.38,0,0,0,421.09,1143.13Z" transform="translate(-100.39 -123.39)"/><path class="cls-34" d="M415.31,1129.3,411.62,1144a4,4,0,0,0,2.07,4.5c2.06,1.06,5,2.17,7.63,1.85a3.3,3.3,0,0,0,2.71-2.21l5.41-15.42Z" transform="translate(-100.39 -123.39)"/><path class="cls-35" d="M410.91,1133.54c4.58,4.06,19.5,4.6,19.5,4.6C484.12,1009.22,506.1,990.9,506.1,990.9c-7.76,48.66-1.25,156.39-1.25,156.39,8.86,3.91,20.29,0,20.29,0a830.15,830.15,0,0,1,27.43-203.91c-36.31-.82-55.61-13.24-61.92-18.23C460.39,973.94,410.91,1133.54,410.91,1133.54Z" transform="translate(-100.39 -123.39)"/><path class="cls-36" d="M499.87,776.89c-6.87,34.28-4.41,95.63-2.79,123.61.46,7.86-5,18.77-9.47,26.21a2.33,2.33,0,0,0,.94,3.28c7.43,3.82,32.6,15.65,61.77,17.12a4.15,4.15,0,0,0,4.19-3.1c21.64-80.8,46.77-132.44,46.77-132.44C573.53,767.26,499.87,776.89,499.87,776.89Z" transform="translate(-100.39 -123.39)"/><path class="cls-37" d="M509.76,987.85a1.72,1.72,0,0,1-.89-.25,1.74,1.74,0,0,1-.58-2.37,54.09,54.09,0,0,1,21.3-18.49,1.72,1.72,0,0,1,1.5,3.1A51.62,51.62,0,0,0,511.23,987,1.72,1.72,0,0,1,509.76,987.85Z" transform="translate(-100.39 -123.39)"/><path class="cls-38" d="M456.77,875.26c2.21,16,8.73,33.39,21.77,51.89l5-4A153.32,153.32,0,0,1,481,873.52C473,872,463.48,873.57,456.77,875.26Z" transform="translate(-100.39 -123.39)"/><path class="cls-39" d="M507.55,819.18l-7.68-42.29s-51.28,39.2-43.1,98.37c6.71-1.69,16.22-3.31,24.26-1.74C483.38,854.53,490.38,833.91,507.55,819.18Z" transform="translate(-100.39 -123.39)"/><path class="cls-40" d="M595.62,803.29l-17.88,43.6c15.17,21,53.64,27.45,68.77,24A90.71,90.71,0,0,1,639,843.38C612.85,835.28,595.62,803.29,595.62,803.29Z" transform="translate(-100.39 -123.39)"/><path class="cls-41" d="M639,843.38a90.71,90.71,0,0,0,7.51,27.55c42.29-5.58,41.58-34.69,41.58-34.69l-4.94-2.47C669.43,843.28,650.13,846.83,639,843.38Z" transform="translate(-100.39 -123.39)"/><path class="cls-42" d="M583.05,758.94l-9.56,35.13a6.83,6.83,0,0,1-9.14,4.55,137.41,137.41,0,0,1-13.77-6.29,9.21,9.21,0,0,1-3.25-13.24l19.87-29.62Z" transform="translate(-100.39 -123.39)"/><path class="cls-43" d="M597.22,723.4c.24.56,2.41,40.81,2.41,40.81l-23,.75-7.72-37.84S593.26,714,597.22,723.4Z" transform="translate(-100.39 -123.39)"/><path class="cls-44" d="M576,734.16l2.5,20.24a2.87,2.87,0,0,0,.2.75c.62,1.47,3.12,6.39,8,3.53,4.43-2.61,8.51-4.91,11.78-4.78a2.85,2.85,0,0,1,2.72,2.69,122.65,122.65,0,0,1-.35,19.11,2.85,2.85,0,0,1-2.92,2.5c-4.43-.13-13.77-.66-21.19-2.84a2.87,2.87,0,0,1-2-2.13c-1.08-5-4.42-20.15-6-24.23-1.48-3.83-7-4.94-9.28-5.23a2.85,2.85,0,0,1-1.9-1.12c-1.61-2.19-4.43-7.5,2.09-11.67a2.86,2.86,0,0,0,.82-4c-1.82-2.66-3.44-7,1.43-10.94s9.91-2.07,12.8-.24a2.86,2.86,0,0,0,3.63-.5,2.26,2.26,0,0,1,2.5-.56,2.81,2.81,0,0,0,3.54-2.17c.62-3.1,2.59-6.77,8.32-7.26,10.17-.87,14.08,9.63,13.16,16.62s-12,7.31-18.07,5.49c-4.62-1.38-9.12,2.5-11,4.45A2.8,2.8,0,0,0,576,734.16Z" transform="translate(-100.39 -123.39)"/><path class="cls-45" d="M569.7,756.35s1.08-12.24-3.75-13.92-10.55,1.34-7.09,9.11C563.16,761.2,569.7,756.35,569.7,756.35Z" transform="translate(-100.39 -123.39)"/><path class="cls-46" d="M481.46,922.4l23.15-1.88,10,9.24s-2.37,3.28-9.78,1.39a107,107,0,0,0-17.58-2.35s-10.23,4.62-10.36-4Z" transform="translate(-100.39 -123.39)"/><path class="cls-47" d="M687.54,840.41c-.17,1.57-6.1,1.47-6.58-5.44,1.07-2.74,4.49-15,7.06-16.49,13.69-7.94,36.73-15.32,36.73-15.32a4.31,4.31,0,0,1-1.91,5.71l-11.74,4.87c.35,3.79,1.28,7.27.63,11.37a12.28,12.28,0,0,1-4.77,7.83c-2.53,1.93-5.91,4.4-8.87,6.2A12.19,12.19,0,0,1,687.54,840.41Z" transform="translate(-100.39 -123.39)"/><path class="cls-48" d="M694.27,836.54l-1.63-1.09c.79-1.18,7.78-11.55,10.65-13.55a3.72,3.72,0,0,0,1.76-2.08,1.7,1.7,0,0,0-.26-1l-9.16,2.74-4.84,5-1.41-1.36,5.2-5.38,10.95-3.27.41.5a3.9,3.9,0,0,1,1,3.06c-.17,1.21-1,2.33-2.58,3.42C702.23,825,696.35,833.43,694.27,836.54Z" transform="translate(-100.39 -123.39)"/><path class="cls-49" d="M663.84,777.86s120.83,318.66,159,384.95c44.31,77,173.73,27.92,167.29-36.48S832.49,795.74,832.49,795.74Z" transform="translate(-100.39 -123.39)"/><polygon class="cls-50" points="726.71 422.33 1477.71 161.95 1469.82 866.59 706.19 696.2 726.71 422.33"/><ellipse class="cls-51" cx="1478.42" cy="516.31" rx="73.78" ry="362.12"/><path class="cls-52" d="M1584.4,977.06c-6.66-6.78-21.19-32.95-33.65-100.6-12-65.39-18.66-150.19-18.66-238.8s6.63-173.41,18.66-238.79c12.46-67.66,27-93.83,33.65-100.61,6.67,6.78,21.2,32.95,33.65,100.61,12,65.38,18.67,150.18,18.67,238.79s-6.63,173.41-18.67,238.8C1605.6,944.11,1591.07,970.28,1584.4,977.06Z" transform="translate(-100.39 -123.39)"/><g class="cls-53"><path class="cls-54" d="M1679,635c0,61.53-33.14,111.41-98.74,111.41S1461.44,696.49,1461.44,635s53.18-111.4,118.79-111.4S1679,573.44,1679,635Z" transform="translate(-100.39 -123.39)"/></g><path class="cls-55" d="M706,530.58c35.33-4.1,86-5.58,140.77,7-18,94.27-15.33,192.53,5.54,294.27H697.79a50.06,50.06,0,0,1-49.47-42.22c-7.7-48.77-17.12-130.74-7.08-196.57A74.09,74.09,0,0,1,706,530.58Z" transform="translate(-100.39 -123.39)"/><path class="cls-56" d="M798.69,602.62H678.33a10.82,10.82,0,0,1-9.09-16.7,2.94,2.94,0,1,1,4.94,3.2,4.94,4.94,0,0,0,4.15,7.62H798.69a4.94,4.94,0,0,0,4.94-4.94v-8.57a4.94,4.94,0,0,0-4.94-4.93H677.43a2.95,2.95,0,0,1,0-5.89H798.69a10.84,10.84,0,0,1,10.83,10.82v8.57A10.84,10.84,0,0,1,798.69,602.62Z" transform="translate(-100.39 -123.39)"/><path class="cls-57" d="M788,655.93H667.59a10.82,10.82,0,0,1-9.09-16.7,2.94,2.94,0,1,1,4.94,3.19,4.95,4.95,0,0,0,4.15,7.63H788a5,5,0,0,0,4.94-4.94v-8.57A5,5,0,0,0,788,631.6H666.7a2.94,2.94,0,0,1,0-5.88H788a10.83,10.83,0,0,1,10.82,10.82v8.57A10.83,10.83,0,0,1,788,655.93Z" transform="translate(-100.39 -123.39)"/><path class="cls-58" d="M936.22,526.5a2.94,2.94,0,0,1-.89-5.75l568.8-181a2.94,2.94,0,1,1,1.78,5.61l-568.79,181A2.82,2.82,0,0,1,936.22,526.5Z" transform="translate(-100.39 -123.39)"/><path class="cls-59" d="M859.31,557.94a2.94,2.94,0,0,1-1.12-5.66l29.28-12a2.94,2.94,0,0,1,2.22,5.45l-29.27,12A2.93,2.93,0,0,1,859.31,557.94Z" transform="translate(-100.39 -123.39)"/><path class="cls-60" d="M798.69,718.36H678.33a10.82,10.82,0,0,1-9.09-16.7,2.94,2.94,0,1,1,4.94,3.2,4.94,4.94,0,0,0,4.15,7.62H798.69a4.94,4.94,0,0,0,4.94-4.94V699a4.94,4.94,0,0,0-4.94-4.94H677.43a2.95,2.95,0,0,1,0-5.89H798.69A10.84,10.84,0,0,1,809.52,699v8.56A10.84,10.84,0,0,1,798.69,718.36Z" transform="translate(-100.39 -123.39)"/><path class="cls-61" d="M810,787.66H689.6a10.82,10.82,0,0,1-9.09-16.7,2.94,2.94,0,1,1,4.94,3.19,4.95,4.95,0,0,0,4.15,7.63H810a4.94,4.94,0,0,0,4.94-4.94v-8.57a4.94,4.94,0,0,0-4.94-4.94H688.7a2.94,2.94,0,1,1,0-5.88H810a10.84,10.84,0,0,1,10.83,10.82v8.57A10.84,10.84,0,0,1,810,787.66Z" transform="translate(-100.39 -123.39)"/><path class="cls-62" d="M917.47,1164.44a78.31,78.31,0,0,1-16.72-1.82,77.33,77.33,0,0,1-54.55-44.18L750,904.79a2.94,2.94,0,1,1,5.37-2.41L851.57,1116A71.46,71.46,0,0,0,902,1156.87a70,70,0,0,0,61.62-15.75c.91-.8,1.82-1.61,2.74-2.45a2.94,2.94,0,1,1,4,4.34c-1,.87-1.89,1.71-2.83,2.54A75.62,75.62,0,0,1,917.47,1164.44Z" transform="translate(-100.39 -123.39)"/><path class="cls-63" d="M738.5,874.94a3,3,0,0,1-2.69-1.74l-10.72-23.83a2.94,2.94,0,1,1,5.36-2.42l10.73,23.84a2.94,2.94,0,0,1-1.47,3.89A3.1,3.1,0,0,1,738.5,874.94Z" transform="translate(-100.39 -123.39)"/><path class="cls-64" d="M1661.39,631.6a2.94,2.94,0,0,1-2.93-2.73c-2.14-30.18-12.6-52.68-31.09-66.89-31.94-24.55-77.67-16.14-78.12-16.06a2.94,2.94,0,1,1-1.11-5.77c2-.39,48.71-9,82.78,17.14,19.9,15.28,31.14,39.22,33.41,71.16a3,3,0,0,1-2.73,3.15Z" transform="translate(-100.39 -123.39)"/><path class="cls-65" d="M1670.21,1507.5a3.94,3.94,0,0,0-.11-1c-5.09-20.2-30.38-32.78-30.38-32.78l-10,.79c-5.76,17.8-5,28.72-4.09,33.58,0,.14.07.27.1.4A237.53,237.53,0,0,0,1670.21,1507.5Z" transform="translate(-100.39 -123.39)"/><path class="cls-66" d="M1625.71,1508.47a4.36,4.36,0,0,0,3.18,3.21c11.76,2.47,30.45.48,38.29-.54a3.66,3.66,0,0,0,3-3.64A237.53,237.53,0,0,1,1625.71,1508.47Z" transform="translate(-100.39 -123.39)"/><path class="cls-67" d="M1625.68,1459.56l4.24,20.43a3.33,3.33,0,0,0,2.85,2.75,28.83,28.83,0,0,0,6.58-.1,4.2,4.2,0,0,0,3.32-4.94l-3-18.14Z" transform="translate(-100.39 -123.39)"/><path class="cls-68" d="M1713.6,1508.21c-11.06-.31-16.79-1.61-19.75-2.82,0,1.1,0,2.22,0,3.38A2.18,2.18,0,0,0,1696,1511l60.76-.39a2.78,2.78,0,0,0,2.24-4C1751,1507.21,1730.71,1508.69,1713.6,1508.21Z" transform="translate(-100.39 -123.39)"/><path class="cls-69" d="M1759,1506.56a3.33,3.33,0,0,0-.24-.46c-5.37-7.5-19-22.43-46-28.91l-13-.4s-5.77,10-5.88,28.6c3,1.21,8.69,2.51,19.75,2.82C1730.71,1508.69,1751,1507.21,1759,1506.56Z" transform="translate(-100.39 -123.39)"/><path class="cls-70" d="M1696.75,1457.75c.21,1,2.9,15.5,4,21.13a2.82,2.82,0,0,0,2.53,2.39,29.6,29.6,0,0,0,8.87-.69,3.84,3.84,0,0,0,2.66-4l-1.45-23Z" transform="translate(-100.39 -123.39)"/><path class="cls-71" d="M1686.94,1189.36s17.82,122.46,30.68,268.18a5.56,5.56,0,0,1-4.59,5.64,67.55,67.55,0,0,1-14.49,1.68,5.37,5.37,0,0,1-5.11-4.48c-4.38-25.7-35.65-163.59-43.85-193.94,0,0-9.43,128.91-6.42,195.8a3.17,3.17,0,0,1-2.79,3.3,52.89,52.89,0,0,1-11.63,0,4.24,4.24,0,0,1-3.78-3.6c-3.12-21.74-21.08-151.18-20.32-244.42,0-5.26,6.17-48.46,6.17-48.46Z" transform="translate(-100.39 -123.39)"/><path class="cls-72" d="M1839.7,1072.27s-5-13.13-10.82-11.93-12.2,5.68-12.2,5.68l-9.36,12.66s26.28,10.36,35.52,4.42c0,0,26.84,4.64,60.74-.92a132.85,132.85,0,0,1-9.55-28.78C1876.86,1063.11,1858.37,1070.37,1839.7,1072.27Z" transform="translate(-100.39 -123.39)"/><path class="cls-73" d="M1981.89,977s-38.43,48.41-87.86,76.39a132.85,132.85,0,0,0,9.55,28.78c25.64-4.21,55.31-14.25,80.47-36.56Z" transform="translate(-100.39 -123.39)"/><path class="cls-74" d="M1693.84,983.42l2.39,64.08a177.54,177.54,0,0,0,19.37,5.5c3.84-12.37,12.31-27.56,19.24-38.85C1709.38,1005.15,1693.84,983.42,1693.84,983.42Z" transform="translate(-100.39 -123.39)"/><path class="cls-75" d="M1821,982.32c-34.92,37.71-63.19,39.93-86.11,31.83-6.93,11.29-15.4,26.48-19.24,38.85,93.26,20.56,115.23-65.18,115.23-65.18Z" transform="translate(-100.39 -123.39)"/><path class="cls-76" d="M1828,978.32s4-4.32,11.47-3,14.07,3.94,18.71,0,6.27,1.35,6.27,1.35l-13.89,10.56Z" transform="translate(-100.39 -123.39)"/><path class="cls-77" d="M1819.72,985.71s2.76-11.53,11.07-10,27.16,11.83,32,10,11.08-6.42,14.27-4.82l-5.62,7s14.44-8.32,16.92-3.21l-24,13.52S1829.21,994.66,1819.72,985.71Z" transform="translate(-100.39 -123.39)"/><path class="cls-78" d="M1608.13,1196.41a5,5,0,0,1-3.31-4.24c-2.37-23-13.84-165.56,58.6-224.2,0,0,4.15-10.87,38.3,15.85s15.87,54.72,7.69,93.35c-9.89,46.74-27.25,84.95-19.57,113.72a4,4,0,0,1-2.44,4.78C1660.87,1205.44,1634.45,1205.77,1608.13,1196.41Z" transform="translate(-100.39 -123.39)"/><path class="cls-79" d="M1691.68,925.25c0,2-29,43.12-29,43.12s5.19,10.22,30,18.53l21.4-44Z" transform="translate(-100.39 -123.39)"/><path class="cls-80" d="M1680.3,1066.32s54.89,46,114.15,25.91a14.11,14.11,0,0,1,11.13.84l17,9a15.22,15.22,0,0,0,20.16-5.65c2.37-4,4.39-8.48,4.79-12.81l-33.34-13.5,2.46-4.09s-16.28-1.38-20.54,10.29c0,0-31,12.89-83.29-44.62C1712.85,1031.69,1689.13,1051.87,1680.3,1066.32Z" transform="translate(-100.39 -123.39)"/><path class="cls-81" d="M1677.35,1065.84a.94.94,0,0,1-.53-.16c-23.11-15.61-34-40.81-34.08-41.06a.94.94,0,1,1,1.73-.74c.1.25,10.77,24.95,33.4,40.25a.93.93,0,0,1-.52,1.71Z" transform="translate(-100.39 -123.39)"/><path class="cls-82" d="M1711.77,1030.92a.94.94,0,0,1-.79-.44c-.07-.1-7.13-11.09-20.58-35.17-4.13-7.41-9.57-12.09-16.15-13.94-10.9-3-21.41,2.8-21.51,2.86a1,1,0,0,1-1.28-.35.93.93,0,0,1,.35-1.28c.45-.26,11.26-6.31,22.93-3,7.09,2,12.91,7,17.3,14.83,13.42,24,20.45,35,20.52,35.08a.94.94,0,0,1-.28,1.29A.9.9,0,0,1,1711.77,1030.92Z" transform="translate(-100.39 -123.39)"/><path class="cls-83" d="M1714.45,901.71s10.3,23.64,11,36,3.36,20.46-11,23-26.43-4.65-33-17c0,0-10.26-19.05-8-26.85S1714.45,901.71,1714.45,901.71Z" transform="translate(-100.39 -123.39)"/><path class="cls-84" d="M1686.37,934.82l.82-.36a2,2,0,0,0,1-2.7c-2-3.91-6-12.87-.87-15,6.57-2.69,32.58-8,38.19-17.23,5.4-8.87.62-20.32-6.57-23.58a1,1,0,0,0-1.29.42l-.6,1.13a1,1,0,0,1-1.8-.18h0a1,1,0,0,0-1.75-.25c-1.73,2.76-6.39,7.24-18.84,9.54-17.71,3.26-29.41,10.43-29.7,22.66a1,1,0,0,1-1.51.8c-1.31-.79-3.4-1.17-6.19,1.18-4.87,4.09-2.88,14.7,7.78,23.42a1,1,0,0,1,0,1.56c-1.94,1.26-4.82,4.25,2.65,8.24,7.72,4.13,13.48,3.79,15.7,3.42a1,1,0,0,0,.79-1.17L1681.73,936a1,1,0,0,1,1-1.19Z" transform="translate(-100.39 -123.39)"/><path class="cls-85" d="M1686.82,937.09s-3.93-15.1-10.7-10.87,3.51,16.93,9,17.49Z" transform="translate(-100.39 -123.39)"/><path class="cls-86" d="M1805.58,1093.07s13.94,13.64,16.63,11.65a48,48,0,0,0,5.72-6.13,6,6,0,0,0,.41-7l-3.29-5.08a9.51,9.51,0,0,0-14.19-2.07A17.16,17.16,0,0,0,1805.58,1093.07Z" transform="translate(-100.39 -123.39)"/><path class="cls-87" d="M2029.82,1191.56c-7.52-35.7-15-56.37-40.2-124-7.92-21.29-15.11-42.84-11.63-65.29l3.9-25.22s48.91-16.55,103.12-.69c0,0,74,32.13,23.73,190.82C2086.09,1192.47,2059.59,1199.69,2029.82,1191.56Z" transform="translate(-100.39 -123.39)"/><path class="cls-88" d="M1990.21,944.83l12.69,30.47a6.06,6.06,0,0,0,4.58,3.64c7.31,1.26,25,3.22,36.61-4.42a2.94,2.94,0,0,0,.79-4.15l-23.43-33.64Z" transform="translate(-100.39 -123.39)"/><path class="cls-89" d="M2021.49,1088a2.83,2.83,0,0,0-1.78,4l36.69,70.35a2.83,2.83,0,0,0,3.28,1.4l120-34.65a2.82,2.82,0,0,0,1.93-3.49l-20.68-71.56a2.81,2.81,0,0,0-3.42-1.94Z" transform="translate(-100.39 -123.39)"/><path class="cls-5" d="M2029.23,1079.74a3,3,0,0,0-2.08,3.89l29.37,79.78a2.94,2.94,0,0,0,3.58,1.81l119.65-34.54a3,3,0,0,0,2.07-3.46l-16.58-76.78a3,3,0,0,0-3.57-2.25Z" transform="translate(-100.39 -123.39)"/><path class="cls-90" d="M2039.66,1071.69a3.65,3.65,0,0,0-3,4.43l19.95,86.12a3.65,3.65,0,0,0,4.56,2.68l117.84-34a3.63,3.63,0,0,0,2.51-4.41l-18.12-70.29a3.64,3.64,0,0,0-4.07-2.7Z" transform="translate(-100.39 -123.39)"/><path class="cls-91" d="M2135,1104.53c9.15-69.08-44.09-122.21-44.09-122.21l-31.68,36.93c24.05,30,35.48,57.45,40.71,79C2106.9,1096.26,2123.58,1093.07,2135,1104.53Z" transform="translate(-100.39 -123.39)"/><path class="cls-92" d="M2100,1100.24a2,2,0,0,1-1.9-1.5c-6.44-26.6-20-52.93-40.33-78.26a2,2,0,1,1,3.06-2.45c20.69,25.78,34.51,52.62,41.08,79.78a2,2,0,0,1-1.44,2.37A1.89,1.89,0,0,1,2100,1100.24Z" transform="translate(-100.39 -123.39)"/><path class="cls-93" d="M2100,1098.27c4.85,20.06,4.34,35,3.6,42.16a5.55,5.55,0,0,1-5.14,5c-3.07.22-7.25.5-11,.72-4.1.23-8.65-2.36-11.7-4.53a1.83,1.83,0,0,0-2.69,2.32c2.27,4.44,8,8.4,12,10.73a1.89,1.89,0,0,1-.44,3.46l-17,4.82c27.92,26.31,46.36-3.13,46.36-3.13,12.33-19,18.7-37.67,21-55.27C2123.58,1093.07,2106.9,1096.26,2100,1098.27Z" transform="translate(-100.39 -123.39)"/><path class="cls-94" d="M2003.33,898.22c-.53.5-22.48,43.59-22.48,43.59l24.88,12,26.86-37.76S2012.25,889.82,2003.33,898.22Z" transform="translate(-100.39 -123.39)"/><path class="cls-95" d="M2021.29,920.59l-12.41,20.68a3.49,3.49,0,0,1-.68.85c-1.47,1.38-6.53,5.37-10.43-.07-3.33-4.64-6.45-8.86-9.8-10.6a4,4,0,0,0-5.35,1.77,145.86,145.86,0,0,0-8.49,20.14,4,4,0,0,0,2.29,4.84c5,2,15,5.73,23.83,6.95a4,4,0,0,0,3.75-1.6c3.8-5.2,14.51-19.75,18.17-23.39,3.39-3.39,9.66-2.11,12.49-1.3a4,4,0,0,0,3.17-.42c2.86-1.72,7.86-6,3.29-13.3a4,4,0,0,1,1.22-5.39c3.2-2.11,6.68-6.06,3.37-12.45s-9.33-7.06-13.4-6.57a4.1,4.1,0,0,1-4.32-2.4,2.65,2.65,0,0,0-2-1.61,3.85,3.85,0,0,1-3.12-4.52c.72-3.67.18-8.43-5.67-11.65-10.74-5.9-20.14,3.72-22.53,11.83s9.61,13.86,17.16,14.81c5.54.71,8.58,6.76,9.81,9.92A4,4,0,0,1,2021.29,920.59Z" transform="translate(-100.39 -123.39)"/><path class="cls-96" d="M2017.51,947.75s4.77-14,10.88-13.45,10.91,6.6,3.34,13.44C2022.32,956.25,2017.51,947.75,2017.51,947.75Z" transform="translate(-100.39 -123.39)"/><path class="cls-97" d="M2025,1506.2c11.82,1,32.32,2.68,48.48,3.39,9.71.43,15.31-.53,18.53-1.82,0,.37,0,.71,0,1a3.35,3.35,0,0,1-3.18,3.16,567.6,567.6,0,0,1-63.47.06,2.38,2.38,0,0,1-1.94-3.58A20.25,20.25,0,0,1,2025,1506.2Z" transform="translate(-100.39 -123.39)"/><path class="cls-98" d="M2073.48,1509.59c-16.16-.71-36.66-2.37-48.48-3.39,11.62-14.25,48.48-23.85,48.48-23.85h10.41a43.63,43.63,0,0,1,8.12,25.42C2088.79,1509.06,2083.19,1510,2073.48,1509.59Z" transform="translate(-100.39 -123.39)"/><path class="cls-99" d="M2085.64,1465.35l-1,19.28a4.41,4.41,0,0,1-3.76,4.14,17.14,17.14,0,0,1-7.82-.65,5.19,5.19,0,0,1-3.5-4l-3.37-18.77Z" transform="translate(-100.39 -123.39)"/><path class="cls-100" d="M2220.86,1509.44c5.13-.71,7.45-3.37,8.42-6.22l0,.08c.75,3-1,6.11-4.49,7.59a29.23,29.23,0,0,1-12.42,1.94c-3.85-.15-7.38-1.75-9.32-4.29l0,0C2206.91,1510.41,2212.32,1510.63,2220.86,1509.44Z" transform="translate(-100.39 -123.39)"/><path class="cls-101" d="M2196.71,1465.23h8.59c13.08-.27,21.29,27.31,24,38-1,2.85-3.29,5.51-8.42,6.22-8.54,1.19-14,1-17.81-.94-7.07-9.3-10.57-22.91-12.26-30.86A10.83,10.83,0,0,1,2196.71,1465.23Z" transform="translate(-100.39 -123.39)"/><path class="cls-102" d="M2204.2,1447.33l4.76,19a5.16,5.16,0,0,1-2.67,5.84c-2.67,1.36-6.43,2.8-9.88,2.39a4.29,4.29,0,0,1-3.5-2.87l-7-20Z" transform="translate(-100.39 -123.39)"/><path class="cls-103" d="M2209.88,1452.81c-5.93,5.26-25.22,6-25.22,6-69.5-166.8-98.47-212.72-98.47-212.72,10,63,2.16,224.56,2.16,224.56-11.47,5.06-26.25,0-26.25,0-.93-103.07-15.45-213.82-34.16-284.68,47-1.06,72.5-11.3,80.65-17.75C2147.75,1231.3,2209.88,1452.81,2209.88,1452.81Z" transform="translate(-100.39 -123.39)"/><path class="cls-104" d="M1889,157.61,2180.81,155a10.27,10.27,0,0,1,10.35,10.32l-1.28,224a10.24,10.24,0,0,1-10.55,10.19c-52.77-1.57-287.06-8.51-297.4-8.08s-4.67-179.48-3.14-223.87A10.26,10.26,0,0,1,1889,157.61Z" transform="translate(-100.39 -123.39)"/><path class="cls-105" d="M2179.64,391.37h-.07c-59-1.76-254.49-7.54-291.92-8.07h-.81l-.14-.8c-3.66-20.66-3.59-104.93.18-214.7a2.15,2.15,0,0,1,2.14-2.08l291.86-2.62a2.18,2.18,0,0,1,1.56.64,2.11,2.11,0,0,1,.62,1.53l-1.28,224A2.14,2.14,0,0,1,2179.64,391.37Zm-291.14-10c39.38.6,232.52,6.31,291.13,8.06h.06s.13-.09.13-.2l1.28-224-.21-1.18v1L1889,167.67a.2.2,0,0,0-.2.19C1885.12,276.13,1885,359.52,1888.5,381.35Z" transform="translate(-100.39 -123.39)"/><path class="cls-106" d="M1924.17,362.23h191.32a7.7,7.7,0,0,0,6.64-11.61l-75.74-128.76a7.71,7.71,0,0,0-13.65.71l-36.57,80.13a7.7,7.7,0,0,1-12.21,2.48l-14.79-13.56a7.7,7.7,0,0,0-11.53,1.28l-39.79,57.23A7.7,7.7,0,0,0,1924.17,362.23Z" transform="translate(-100.39 -123.39)"/><circle class="cls-107" cx="2112.89" cy="217.97" r="27.5" transform="translate(-44.01 626.15) rotate(-20.38)"/><path class="cls-2" d="M456.07,330.74a74.56,74.56,0,1,0,74.55,74.56A74.56,74.56,0,0,0,456.07,330.74Zm0,117a42.48,42.48,0,1,1,42.47-42.48A42.48,42.48,0,0,1,456.07,447.78Z" transform="translate(-100.39 -123.39)"/><g class="cls-108"><rect class="cls-109" x="251.56" y="265.51" width="221.47" height="93.72"/></g><path class="cls-110" d="M637.82,330.74a74.56,74.56,0,1,0,74.55,74.56A74.56,74.56,0,0,0,637.82,330.74Zm0,117a42.48,42.48,0,1,1,42.47-42.48A42.48,42.48,0,0,1,637.82,447.78Z" transform="translate(-100.39 -123.39)"/><path class="cls-2" d="M637.82,330.74a74.56,74.56,0,1,0,74.55,74.56A74.56,74.56,0,0,0,637.82,330.74Zm0,117a42.48,42.48,0,1,1,42.47-42.48A42.48,42.48,0,0,1,637.82,447.78Z" transform="translate(-100.39 -123.39)"/><path class="cls-110" d="M819.56,330.74a74.56,74.56,0,1,0,74.56,74.56A74.56,74.56,0,0,0,819.56,330.74Zm0,117A42.48,42.48,0,1,1,862,405.3,42.47,42.47,0,0,1,819.56,447.78Z" transform="translate(-100.39 -123.39)"/><path class="cls-2" d="M819.56,330.74a74.56,74.56,0,1,0,74.56,74.56A74.56,74.56,0,0,0,819.56,330.74Zm0,117A42.48,42.48,0,1,1,862,405.3,42.47,42.47,0,0,1,819.56,447.78Z" transform="translate(-100.39 -123.39)"/><g class="cls-111"><rect class="cls-112" x="433.31" y="229.29" width="221.47" height="129.95"/></g><g class="cls-113"><rect class="cls-114" x="615.06" y="312.37" width="221.47" height="46.86"/></g><path class="cls-115" d="M1714.88,586.43a4,4,0,0,1,.77-7.77c19.11-2.47,47.13-10,56.3-32.38,14.4-35.19-15.42-170.86,121.56-195.13,126.35-22.4,196.73,17.59,195.13,134.35C2087.09,598.67,1905.21,651.74,1714.88,586.43Z" transform="translate(-100.39 -123.39)"/><g class="cls-116"><rect class="cls-117" x="1711.36" y="335.02" width="12.88" height="100.82"/><rect class="cls-117" x="1732.89" y="369.67" width="12.88" height="66.17"/><rect class="cls-117" x="1754.42" y="284.03" width="12.88" height="151.81"/><rect class="cls-117" x="1775.95" y="399.37" width="12.88" height="36.47"/><rect class="cls-117" x="1797.47" y="304.33" width="12.88" height="131.51"/><rect class="cls-117" x="1819" y="327.1" width="12.88" height="108.74"/><rect class="cls-117" x="1840.53" y="351.85" width="12.88" height="83.99"/><rect class="cls-117" x="1862.06" y="253.34" width="12.88" height="182.5"/><rect class="cls-117" x="1883.59" y="272.65" width="12.88" height="163.19"/><rect class="cls-117" x="1905.12" y="301.85" width="12.88" height="133.99"/><rect class="cls-117" x="1926.65" y="402.76" width="12.88" height="33.09"/></g><path class="cls-118" d="M2103.39,763.22l-123.21,7a18.91,18.91,0,0,1-19.93-17.52L1950,609.76a18.91,18.91,0,0,1,18.86-20.27h133.49a18.91,18.91,0,0,1,18.91,18.91v136A18.9,18.9,0,0,1,2103.39,763.22Z" transform="translate(-100.39 -123.39)"/><path class="cls-117" d="M2035.57,753.59a17.9,17.9,0,0,1-15.43-8.71c-18.2-30.06-39.89-69.67-39.89-87.64,0-28.17,24.82-51.08,55.32-51.08s55.33,22.91,55.33,51.08c0,18-21.69,57.58-39.89,87.64A17.92,17.92,0,0,1,2035.57,753.59Zm0-139.59c-26.18,0-47.47,19.4-47.47,43.24,0,12.43,14.12,42.89,38.75,83.58a10.2,10.2,0,0,0,17.45,0c24.63-40.69,38.75-71.15,38.75-83.58C2083.05,633.4,2061.75,614,2035.57,614Z" transform="translate(-100.39 -123.39)"/><path class="cls-117" d="M2031.32,693a34.5,34.5,0,0,1-34.46-34.46,3.93,3.93,0,0,1,7.85,0,26.6,26.6,0,1,0,5.26-15.89,3.92,3.92,0,1,1-6.29-4.69,34.46,34.46,0,1,1,27.64,55Z" transform="translate(-100.39 -123.39)"/><path class="cls-119" d="M2113.73,450.25V556.47a23.64,23.64,0,0,0,22.52,23.61l132.83,6.24a23.64,23.64,0,0,0,24.74-23.61V450.25a23.63,23.63,0,0,0-23.63-23.63H2137.36A23.63,23.63,0,0,0,2113.73,450.25Z" transform="translate(-100.39 -123.39)"/><path class="cls-120" d="M2161.85,560.27c-1.72,0-3.17,0-4.32,0a3.95,3.95,0,0,1-1-7.75h0c10.21-2.86,21.32-7.72,29.51-11.65-39.06-3.18-46.85-23.24-48.36-32.42-3.8-23.14,16.28-49.32,44.77-58.37,29.07-9.22,58.52-5.9,75,8.47,8.78,7.64,18.3,22.26,13.81,48.58C2262.93,556.32,2186.15,560.27,2161.85,560.27Zm-3.36-1h0Zm-.81-6.16h0Zm56.43-19.25-12.37,6.9A272.07,272.07,0,0,1,2177,552.72c30.15-1.82,81.17-10.34,87.39-46.83,3.16-18.52-.7-32.67-11.47-42-16.7-14.54-46.3-14-68.24-7.06-24.83,7.88-43.12,31-39.92,50.46,2.91,17.68,23,27.56,55.24,26.89Z" transform="translate(-100.39 -123.39)"/><path class="cls-121" d="M2319.16,400.33H2227a12.76,12.76,0,0,1-12.76-12.76V295.18A12.77,12.77,0,0,1,2226,282.46l98.17-7.95A12.77,12.77,0,0,1,2337.93,288l-6,100.34A12.77,12.77,0,0,1,2319.16,400.33Z" transform="translate(-100.39 -123.39)"/><path class="cls-120" d="M2240.15,383.25a10.66,10.66,0,0,1-10.66-10.66V313.35a3.93,3.93,0,0,1,7.85,0v59.24a2.8,2.8,0,0,0,.88,2.05,2.85,2.85,0,0,0,2.09.75l70.2-4.18a2.81,2.81,0,0,0,2.64-2.8V310.25a2.8,2.8,0,0,0-.92-2.08,2.88,2.88,0,0,0-2.17-.72l-58.39,5.79a2.82,2.82,0,0,0-2,4.45l22.27,30.73a2.79,2.79,0,0,0,2.26,1.16,3,3,0,0,0,2.27-1.12L2301,315.77a3.93,3.93,0,0,1,6.28,4.71l-24.54,32.69a10.54,10.54,0,0,1-8.52,4.26h-.09a10.56,10.56,0,0,1-8.54-4.4l-22.27-30.74a10.66,10.66,0,0,1,7.58-16.86l58.39-5.78a10.64,10.64,0,0,1,11.71,10.6v58.16a10.67,10.67,0,0,1-10,10.64l-70.19,4.18Z" transform="translate(-100.39 -123.39)"/></g></g></svg>