<svg xmlns="http://www.w3.org/2000/svg" xmlns:xlink="http://www.w3.org/1999/xlink" viewBox="0 0 2152.48 1474.56"><defs><style>.cls-1{isolation:isolate;}.cls-2{fill:url(#linear-gradient);}.cls-3{fill:#91b3fa;}.cls-4{fill:url(#linear-gradient-2);}.cls-5{fill:#bdd0fb;}.cls-6{fill:url(#linear-gradient-3);}.cls-7{fill:url(#linear-gradient-4);}.cls-8{fill:url(#linear-gradient-5);}.cls-9{fill:url(#linear-gradient-6);}.cls-10{opacity:0.68;}.cls-11,.cls-12,.cls-14{fill:#fff;}.cls-11{mix-blend-mode:soft-light;}.cls-13{fill:url(#linear-gradient-7);}.cls-14{opacity:0.49;}.cls-15{fill:url(#linear-gradient-8);}.cls-16{fill:url(#linear-gradient-9);}.cls-17{fill:url(#linear-gradient-10);}.cls-18{fill:url(#linear-gradient-11);}.cls-19{fill:url(#linear-gradient-12);}.cls-20{fill:url(#linear-gradient-13);}.cls-21{fill:url(#linear-gradient-14);}.cls-22{fill:url(#linear-gradient-15);}.cls-23{fill:url(#linear-gradient-16);}.cls-24{fill:url(#linear-gradient-17);}.cls-25{fill:url(#linear-gradient-18);}.cls-26{fill:url(#linear-gradient-19);}.cls-27{fill:url(#linear-gradient-20);}.cls-28{fill:url(#linear-gradient-21);}.cls-29{fill:url(#linear-gradient-22);}.cls-30{fill:url(#linear-gradient-23);}.cls-31{fill:url(#linear-gradient-24);}.cls-32{fill:url(#linear-gradient-25);}.cls-33{fill:url(#linear-gradient-26);}.cls-34{fill:url(#linear-gradient-27);}.cls-35{fill:url(#linear-gradient-28);}.cls-36{fill:url(#linear-gradient-29);}.cls-37{fill:url(#linear-gradient-30);}.cls-38{fill:url(#linear-gradient-31);}.cls-39{fill:url(#linear-gradient-32);}.cls-40{fill:url(#linear-gradient-33);}.cls-41{fill:url(#linear-gradient-34);}.cls-42{fill:url(#linear-gradient-35);}.cls-43{fill:url(#linear-gradient-36);}.cls-44{fill:url(#linear-gradient-37);}.cls-45{fill:url(#linear-gradient-38);}.cls-46{fill:url(#linear-gradient-39);}.cls-47{fill:url(#linear-gradient-40);}.cls-48{fill:url(#linear-gradient-41);}.cls-49{fill:url(#linear-gradient-42);}.cls-50{fill:url(#linear-gradient-43);}.cls-51{fill:url(#linear-gradient-44);}.cls-52{fill:url(#linear-gradient-45);}.cls-53{fill:url(#linear-gradient-46);}.cls-54{fill:#7d97f4;}.cls-55{fill:url(#linear-gradient-47);}.cls-56{fill:url(#linear-gradient-48);}.cls-57{fill:url(#linear-gradient-49);}.cls-58{fill:url(#linear-gradient-50);}.cls-59{fill:url(#linear-gradient-51);}.cls-60{fill:url(#linear-gradient-52);}.cls-61{fill:url(#linear-gradient-53);}.cls-62{fill:url(#linear-gradient-54);}.cls-63{fill:url(#linear-gradient-55);}.cls-64{fill:url(#linear-gradient-56);}.cls-65{fill:url(#linear-gradient-57);}.cls-66{fill:url(#linear-gradient-58);}.cls-67{fill:url(#linear-gradient-59);}</style><linearGradient id="linear-gradient" x1="161.23" y1="818.78" x2="2313.71" y2="818.78" gradientUnits="userSpaceOnUse"><stop offset="0" stop-color="#dae3fe"/><stop offset="1" stop-color="#e9effd"/></linearGradient><linearGradient id="linear-gradient-2" x1="1391.83" y1="1151.37" x2="2174.67" y2="1151.37" xlink:href="#linear-gradient"/><linearGradient id="linear-gradient-3" x1="1433.1" y1="759.22" x2="1855.84" y2="759.22" xlink:href="#linear-gradient"/><linearGradient id="linear-gradient-4" x1="402.15" y1="721.71" x2="967.14" y2="721.71" xlink:href="#linear-gradient"/><linearGradient id="linear-gradient-5" x1="398.23" y1="1220.86" x2="1099.19" y2="1220.86" xlink:href="#linear-gradient"/><linearGradient id="linear-gradient-6" x1="1235.38" y1="815.01" x2="963.54" y2="194.26" gradientTransform="translate(2083.01 -422.88) rotate(87.49)" gradientUnits="userSpaceOnUse"><stop offset="0" stop-color="#4042e2"/><stop offset="1" stop-color="#4f52ff"/></linearGradient><linearGradient id="linear-gradient-7" x1="1360.23" y1="1094.66" x2="1618.18" y2="230.83" gradientUnits="userSpaceOnUse"><stop offset="0" stop-color="#fe7062"/><stop offset="1" stop-color="#ff928e"/></linearGradient><linearGradient id="linear-gradient-8" x1="1095.41" y1="1015.58" x2="1353.36" y2="151.76" xlink:href="#linear-gradient-7"/><linearGradient id="linear-gradient-9" x1="1207.35" y1="1049.01" x2="1465.29" y2="185.18" xlink:href="#linear-gradient-7"/><linearGradient id="linear-gradient-10" x1="1800.37" y1="572.03" x2="2280.72" y2="572.03" gradientUnits="userSpaceOnUse"><stop offset="0" stop-color="#09005d"/><stop offset="1" stop-color="#1a0f91"/></linearGradient><linearGradient id="linear-gradient-11" x1="1916.31" y1="657" x2="1919.58" y2="818.53" xlink:href="#linear-gradient-10"/><linearGradient id="linear-gradient-12" x1="1848.72" y1="556.64" x2="2174.17" y2="556.64" xlink:href="#linear-gradient-7"/><linearGradient id="linear-gradient-13" x1="1979.54" y1="457.34" x2="2011.04" y2="266.85" gradientUnits="userSpaceOnUse"><stop offset="0" stop-color="#ff928e"/><stop offset="1" stop-color="#feb3b1"/></linearGradient><linearGradient id="linear-gradient-14" x1="2036.09" y1="250.7" x2="1944.09" y2="313.7" xlink:href="#linear-gradient-13"/><linearGradient id="linear-gradient-15" x1="-7328.38" y1="-8090.12" x2="-7208.37" y2="-8090.12" gradientTransform="matrix(-0.69, -0.73, -0.73, 0.69, -8899.24, 544.78)" xlink:href="#linear-gradient-10"/><linearGradient id="linear-gradient-16" x1="-7353.84" y1="-8062.91" x2="-7273.25" y2="-8145.59" gradientTransform="matrix(-0.69, -0.73, -0.73, 0.69, -8899.24, 544.78)" xlink:href="#linear-gradient-13"/><linearGradient id="linear-gradient-17" x1="1426.51" y1="3107.52" x2="1362.51" y2="3359.52" xlink:href="#linear-gradient-13"/><linearGradient id="linear-gradient-18" x1="1703.06" y1="466.99" x2="1960.62" y2="466.99" xlink:href="#linear-gradient-7"/><linearGradient id="linear-gradient-19" x1="-9291.05" y1="299.26" x2="-9637.59" y2="742.63" gradientTransform="matrix(-1, 0, 0, 1, -7760.49, 0)" xlink:href="#linear-gradient-13"/><linearGradient id="linear-gradient-20" x1="-9244.67" y1="335.51" x2="-9591.21" y2="778.88" gradientTransform="matrix(-1, 0, 0, 1, -7760.49, 0)" xlink:href="#linear-gradient-13"/><linearGradient id="linear-gradient-21" x1="-9143.94" y1="682.25" x2="-9027.3" y2="682.25" gradientTransform="matrix(-1, 0, 0, 1, -6992.72, 0)" xlink:href="#linear-gradient-13"/><linearGradient id="linear-gradient-22" x1="479.03" y1="1298.17" x2="987.31" y2="1298.17" xlink:href="#linear-gradient-10"/><linearGradient id="linear-gradient-23" x1="861.44" y1="1398.62" x2="864.91" y2="1569.53" xlink:href="#linear-gradient-10"/><linearGradient id="linear-gradient-24" x1="539.02" y1="1205.51" x2="610.6" y2="1205.51" xlink:href="#linear-gradient"/><linearGradient id="linear-gradient-25" x1="-3546.74" y1="891.83" x2="-3488.08" y2="1059.42" gradientTransform="matrix(-1, 0, 0, 1, -2359.4, 0)" gradientUnits="userSpaceOnUse"><stop offset="0" stop-color="#a22b25"/><stop offset="1" stop-color="#c0423c"/></linearGradient><linearGradient id="linear-gradient-26" x1="-3501.68" y1="998.9" x2="-3545.86" y2="909.77" xlink:href="#linear-gradient-25"/><linearGradient id="linear-gradient-27" x1="1054.81" y1="951.66" x2="604.77" y2="1533.72" xlink:href="#linear-gradient-7"/><linearGradient id="linear-gradient-28" x1="-3496.61" y1="874.28" x2="-3437.95" y2="1041.87" xlink:href="#linear-gradient-25"/><linearGradient id="linear-gradient-29" x1="957.74" y1="876.6" x2="507.7" y2="1458.66" xlink:href="#linear-gradient-7"/><linearGradient id="linear-gradient-30" x1="846.74" y1="996.82" x2="808.74" y2="1198.82" gradientTransform="matrix(1, 0, 0, 1, 0, 0)" xlink:href="#linear-gradient-25"/><linearGradient id="linear-gradient-31" x1="-386.29" y1="2025.16" x2="-438.29" y2="2145.16" gradientTransform="matrix(0.75, -0.67, 0.67, 0.75, -443.44, -1476.32)" xlink:href="#linear-gradient-25"/><linearGradient id="linear-gradient-32" x1="-700.58" y1="2575.93" x2="-674.02" y2="2727.44" gradientTransform="matrix(0.75, -0.67, 0.67, 0.75, -443.44, -1476.32)" xlink:href="#linear-gradient-10"/><linearGradient id="linear-gradient-33" x1="-417.45" y1="2011.65" x2="-469.45" y2="2131.65" gradientTransform="matrix(0.75, -0.67, 0.67, 0.75, -443.44, -1476.32)" xlink:href="#linear-gradient-25"/><linearGradient id="linear-gradient-34" x1="715.77" y1="1707.8" x2="646.68" y2="1211.63" gradientTransform="matrix(1, 0, 0, 1, 0, 0)" xlink:href="#linear-gradient-25"/><linearGradient id="linear-gradient-35" x1="707.54" y1="1660.07" x2="652.41" y2="1264.12" gradientTransform="matrix(1, 0, 0, 1, 0, 0)" xlink:href="#linear-gradient-25"/><linearGradient id="linear-gradient-36" x1="609.29" y1="830.85" x2="965.29" y2="362.85" xlink:href="#linear-gradient-10"/><linearGradient id="linear-gradient-37" x1="-1603" y1="726.32" x2="-1599.84" y2="881.72" gradientTransform="matrix(-1, 0, 0, 1, -732.52, 0)" xlink:href="#linear-gradient-10"/><linearGradient id="linear-gradient-38" x1="911.47" y1="77.73" x2="819.47" y2="329.73" xlink:href="#linear-gradient-10"/><linearGradient id="linear-gradient-39" x1="588.35" y1="426.36" x2="796.16" y2="426.36" xlink:href="#linear-gradient"/><linearGradient id="linear-gradient-40" x1="612.6" y1="474.01" x2="754.09" y2="474.01" xlink:href="#linear-gradient"/><linearGradient id="linear-gradient-41" x1="902.51" y1="809.52" x2="1013.52" y2="1220.56" xlink:href="#linear-gradient-7"/><linearGradient id="linear-gradient-42" x1="859.33" y1="415.88" x2="857.33" y2="769.88" xlink:href="#linear-gradient-13"/><linearGradient id="linear-gradient-43" x1="-11234.87" y1="1544.4" x2="-11224.87" y2="1646.4" gradientTransform="matrix(-0.96, 0.26, 0.26, 0.96, -10549.98, 791.76)" xlink:href="#linear-gradient-13"/><linearGradient id="linear-gradient-44" x1="939.63" y1="88.01" x2="847.63" y2="340.01" xlink:href="#linear-gradient-10"/><linearGradient id="linear-gradient-45" x1="-11185.85" y1="1539.6" x2="-11175.85" y2="1641.6" gradientTransform="matrix(-0.96, 0.26, 0.26, 0.96, -10549.98, 791.76)" xlink:href="#linear-gradient-13"/><linearGradient id="linear-gradient-46" x1="-1474.36" y1="535.91" x2="-1503.13" y2="773.13" gradientTransform="matrix(-1, 0, 0, 1, -732.52, 0)" xlink:href="#linear-gradient-13"/><linearGradient id="linear-gradient-47" x1="11977.43" y1="1819.14" x2="11710.43" y2="2147.38" gradientTransform="matrix(-0.99, -0.12, -0.12, 0.99, 13649.89, 630.32)" xlink:href="#linear-gradient-13"/><linearGradient id="linear-gradient-48" x1="1650.82" y1="1353.46" x2="1533.8" y2="1860.51" xlink:href="#linear-gradient-7"/><linearGradient id="linear-gradient-49" x1="-1312.71" y1="1315.24" x2="-835.34" y2="1315.24" gradientTransform="matrix(-1, 0, 0, 1, 842.9, 0)" xlink:href="#linear-gradient-10"/><linearGradient id="linear-gradient-50" x1="-953.55" y1="1409.58" x2="-950.29" y2="1570.09" gradientTransform="matrix(-1, 0, 0, 1, 842.9, 0)" xlink:href="#linear-gradient-10"/><linearGradient id="linear-gradient-51" x1="2032.04" y1="1228.22" x2="2099.27" y2="1228.22" xlink:href="#linear-gradient"/><linearGradient id="linear-gradient-52" x1="-12895.25" y1="3566.57" x2="-12795.25" y2="4062.57" gradientTransform="translate(15335.53 929.35) rotate(16.22)" xlink:href="#linear-gradient-10"/><linearGradient id="linear-gradient-53" x1="1825.39" y1="1393.75" x2="1708.37" y2="1900.8" xlink:href="#linear-gradient-7"/><linearGradient id="linear-gradient-54" x1="1841.57" y1="981.27" x2="1858.07" y2="1161.26" xlink:href="#linear-gradient-13"/><linearGradient id="linear-gradient-55" x1="-12974.46" y1="3810.74" x2="-12841.08" y2="3964.09" gradientTransform="translate(15335.53 929.35) rotate(16.22)" xlink:href="#linear-gradient-13"/><linearGradient id="linear-gradient-56" x1="-12971.07" y1="3581.86" x2="-12871.07" y2="4077.86" gradientTransform="translate(15335.53 929.35) rotate(16.22)" xlink:href="#linear-gradient-10"/><linearGradient id="linear-gradient-57" x1="-12941.13" y1="3781.75" x2="-12807.76" y2="3935.1" gradientTransform="translate(15335.53 929.35) rotate(16.22)" xlink:href="#linear-gradient-13"/><linearGradient id="linear-gradient-58" x1="1786.1" y1="1349.87" x2="1952.1" y2="1307.2" xlink:href="#linear-gradient-13"/><linearGradient id="linear-gradient-59" x1="1937.18" y1="1419.54" x2="1820.17" y2="1926.59" xlink:href="#linear-gradient-7"/></defs><g class="cls-1"><g id="Illustration"><path class="cls-2" d="M2228.38,852.41c-43.53-87.69-47.05-162.91-24.53-258.65C2228.71,488,2252.72,353,2193.22,256.82,2140.79,172.07,2058.38,112,1970.09,89.87c-112.08-28.08-205.94,17.37-295.81,92.82-123.36,103.57-336.65,188.05-488.65,142.23-132.79-40-230.93-173.44-370.89-199.28C718.23,107.82,574.34,136.2,543.29,261c-8.15,32.71-7.83,68.37-21,98.85C491.76,430.34,414.46,423.63,356.57,430,185.3,448.84,76.7,629.11,246.36,742.19c52.48,35,113.91,61.52,149.45,113.63,35.76,52.43,37.88,120,38.77,183.46q1.1,79.41,2.21,158.81c.69,49.82,1.48,100.36,15.38,148.21,56,192.85,303.11,234.93,472.81,197.18,182-40.47,338.42-172.08,523.51-200.54,76-11.69,156.87-4.22,226.58,34.4,66.65,36.92,121,103.33,194.12,124.59,44.8,13,92,6.93,137.74-.64,81.42-13.46,167.92-34.65,224.92-102.59,41-48.91,61.14-116,73.42-182.36C2332.53,1069,2290.27,977.06,2228.38,852.41Z" transform="translate(-161.23 -81.5)"/><path class="cls-3" d="M2278.91,753.69c-27.55,118.5-220.5,801.12-996.23,729,0,0-7.2-483.2,980.78-741.39C2272.11,739,2280.71,746,2278.91,753.69Z" transform="translate(-161.23 -81.5)"/><path class="cls-4" d="M2174.31,831.66c-25.29,34.2-52,67.22-79.27,99.78s-55.49,64.33-84.35,95.5a2452.3,2452.3,0,0,1-182.31,178q-48.11,41.85-98.6,80.85-50.82,38.57-104.28,73.5c-35.9,22.84-72.7,44.31-110.58,63.79a1079.9,1079.9,0,0,1-117.33,50.63,4.3,4.3,0,0,1-2.92-8.09h0l.07,0A1070.89,1070.89,0,0,0,1511.32,1416c37.7-19.16,74.38-40.31,110.21-62.86q53.38-34.39,104.16-72.66,50.52-38.57,98.67-80.1a2452.49,2452.49,0,0,0,182.76-176.74q43.43-46.47,84.66-94.93c27.38-32.36,54.24-65.25,79.58-99.18l0,0a1.82,1.82,0,1,1,2.92,2.18Z" transform="translate(-161.23 -81.5)"/><path class="cls-5" d="M1912.18,110.6c45.09,133.77,270.93,921.07-540.81,1227.54,0,0-302.16-486.92,517.94-1232.58C1896.48,99,1909.23,101.87,1912.18,110.6Z" transform="translate(-161.23 -81.5)"/><path class="cls-6" d="M1855.84,240.68c-1.71,23.78-4.21,47.43-7,71.06s-6,47.21-9.48,70.74q-10.5,70.59-25.06,140.51c-19.44,93.15-44.06,185.32-75.61,275.19s-70,177.48-118.58,259.6A998,998,0,0,1,1539,1175.55c-15,18.53-30.67,36.62-47.26,53.82s-34,33.63-52.08,49.24a4,4,0,0,1-5.2-6h0l0,0q27-23,51.71-48.5c16.5-17,32-34.81,47-53.13a990.65,990.65,0,0,0,81-116.6c48.61-81.44,87.25-168.63,119.09-258s56.75-181.33,76.53-274.23q14.76-69.7,25.59-140.17,5.38-35.22,9.74-70.58c2.85-23.57,5.44-47.21,7.23-70.85v0a1.69,1.69,0,0,1,3.37.24Z" transform="translate(-161.23 -81.5)"/><path class="cls-3" d="M990.27,1094.83S788,481.09,341,198.58a9.48,9.48,0,0,0-14.48,6.66C311.49,313.1,246,997.9,990.27,1094.83Z" transform="translate(-161.23 -81.5)"/><path class="cls-7" d="M407.26,373.84c15,34.43,31.39,68.39,49,101.59q26.15,50,55.2,98.35c19.43,32.16,39.54,63.92,60.83,94.86,21.13,31.05,43.14,61.49,66.39,91s47,58.52,72.31,86.25c3.13,3.5,6.21,7,9.38,10.49l9.65,10.24c6.47,6.79,12.77,13.75,19.39,20.4l19.86,19.93,5,5,5.1,4.85,10.21,9.69c13.4,13.14,27.7,25.3,41.6,37.91,7.07,6.18,14.35,12.09,21.52,18.16l10.8,9c3.63,3,7.4,5.78,11.06,8.71l22.14,17.44,22.77,16.61,11.4,8.31,11.71,7.85,23.34,15.87.07,0a2.66,2.66,0,0,1-2.83,4.49A1054.94,1054.94,0,0,1,780.2,936.55L769.67,927l-5.27-4.79-5.12-4.94-20.39-19.84c-6.78-6.63-13.24-13.58-19.88-20.36l-9.89-10.22c-3.25-3.45-6.42-7-9.63-10.47-25.87-27.77-50-57-73.57-86.77A1582.91,1582.91,0,0,1,499.5,580.8q-28.23-49.31-52.79-100.57-12.22-25.62-23.42-51.72c-7.51-17.38-14.64-34.87-21-52.79a2.65,2.65,0,0,1,4.93-2Z" transform="translate(-161.23 -81.5)"/><path class="cls-5" d="M1114,1468.27S701.81,887.69,306.46,910.18a10.91,10.91,0,0,0-9.81,14C319.92,1002.56,471.3,1410.44,1114,1468.27Z" transform="translate(-161.23 -81.5)"/><path class="cls-8" d="M402.46,995c26.07,22.58,53,44.3,80.1,65.72,13.6,10.65,27.21,21.29,40.93,31.79s27.51,20.91,41.45,31.12,27.88,20.42,41.93,30.48l42.4,29.8c28.57,19.43,57.13,38.88,86.22,57.52,28.77,19.15,58.41,36.92,87.72,55.22l44.69,26.24c7.46,4.34,14.87,8.79,22.38,13l22.7,12.51c15.14,8.3,30.21,16.77,45.43,24.94l46.08,23.7c7.68,4,15.3,8,23,11.85l23.38,11.17,46.77,22.35.06,0a2.53,2.53,0,0,1-2.15,4.59c-62.91-28.91-125.46-58.83-185.78-92.91L887,1341.74c-7.54-4.24-15-8.68-22.48-13l-44.89-26.14c-29.43-18.24-59.2-35.95-88.1-55Q644.28,1191.21,561,1129c-13.92-10.29-27.6-20.9-41.41-31.34s-27.31-21.3-40.9-32c-27-21.75-53.63-43.79-79.61-66.79a2.54,2.54,0,0,1,3.34-3.82Z" transform="translate(-161.23 -81.5)"/><ellipse class="cls-9" cx="1262.43" cy="876.79" rx="616.91" ry="665.89" transform="translate(169.89 2018.06) rotate(-87.49)"/><g class="cls-10"><path class="cls-11" d="M1432.54,879.77c-.16,108.81-7.62,217.83-26.79,325.1-4.86,26.79-10.48,53.46-17.19,79.87a767.83,767.83,0,0,1-24,78.17c-9.58,25.52-20.71,50.67-35.8,73.67-7.6,11.41-16.23,22.34-26.87,31.34a76.32,76.32,0,0,1-17.59,11.33,52.63,52.63,0,0,1-20.54,4.84,51.64,51.64,0,0,1-20.75-3.82,71.69,71.69,0,0,1-18-10.71c-10.9-8.72-19.71-19.53-27.45-30.85-15.36-22.83-26.64-47.93-36.32-73.42a752.28,752.28,0,0,1-24.26-78.08c-6.77-26.4-12.45-53-17.35-79.83-9.77-53.59-16.43-107.68-20.92-161.93s-6.71-108.68-7-163.12c-.13-27.22.61-54.43,1.58-81.62s2.51-54.37,4.51-81.51c4-54.27,10-108.42,19-162.12,4.48-26.85,9.71-53.58,16-80.08a771.08,771.08,0,0,1,22.73-78.47c4.57-12.84,9.56-25.55,15.26-37.95a277.73,277.73,0,0,1,19.53-36c7.5-11.42,16.12-22.32,26.86-31.05a68.7,68.7,0,0,1,17.75-10.63,50.2,50.2,0,0,1,20.42-3.63,54.22,54.22,0,0,1,20.17,4.73,78.59,78.59,0,0,1,17.53,10.94c10.71,8.7,19.57,19.34,27.43,30.51,15.63,22.5,27.42,47.31,37.62,72.56a742.7,742.7,0,0,1,25.79,77.52c7.26,26.25,13.41,52.8,18.73,79.49C1423.68,661.91,1432.23,771,1432.54,879.77Zm-8,0c.1-54.21-2-108.44-6.47-162.47s-11.17-107.89-21.19-161.17c-5-26.63-10.84-53.11-17.78-79.3a738.26,738.26,0,0,0-24.78-77.32c-9.85-25.17-21.28-49.89-36.44-72.23-7.63-11.09-16.22-21.63-26.54-30.19a76,76,0,0,0-16.82-10.76,50.09,50.09,0,0,0-19.2-4.68,47.2,47.2,0,0,0-19.37,3.64A65.9,65.9,0,0,0,1219,295.7c-10.3,8.56-18.65,19.32-25.9,30.64a274.19,274.19,0,0,0-18.9,35.76c-5.5,12.35-10.32,25-14.71,37.8a764.78,764.78,0,0,0-21.74,78.24c-6,26.43-10.88,53.1-15.06,79.88-8.31,53.58-13.71,107.59-17.13,161.71s-4.65,108.37-4.55,162.59q-.21,81.31,5.7,162.5c4.06,54.06,10.28,108,19.59,161.37,4.66,26.69,10.11,53.24,16.64,79.52a746.82,746.82,0,0,0,23.47,77.67c9.39,25.3,20.37,50.2,35.21,72.62,7.47,11.11,16,21.66,26.27,30a67,67,0,0,0,16.8,10.19,46.21,46.21,0,0,0,19,3.62,48.21,48.21,0,0,0,18.81-4.61,72.3,72.3,0,0,0,16.46-10.8c10.08-8.65,18.39-19.33,25.73-30.54,14.58-22.6,25.4-47.55,34.69-72.9a763.18,763.18,0,0,0,23.19-77.75c6.45-26.29,11.84-52.86,16.46-79.56,9.24-53.4,15.39-107.32,19.47-161.38S1424.51,934,1424.49,879.77Z" transform="translate(-161.23 -81.5)"/><path class="cls-11" d="M1707,879.77c-.38,70.07-9.39,140.17-28.14,207.74C1659.8,1154.92,1631,1219.78,1592,1278a548.64,548.64,0,0,1-66.39,81.29,465.77,465.77,0,0,1-81.71,65.79,393.88,393.88,0,0,1-95.35,43.59,356.65,356.65,0,0,1-207.31.09,393.76,393.76,0,0,1-95.42-43.52A466.6,466.6,0,0,1,964,1359.5a549.39,549.39,0,0,1-66.51-81.27c-39.14-58.23-68-123.12-87.14-190.56a754.87,754.87,0,0,1-21.1-103,774.62,774.62,0,0,1,.07-209.79,754.2,754.2,0,0,1,21.17-103c19.22-67.43,48.09-132.26,87.26-190.44a548.1,548.1,0,0,1,66.52-81.18,464.45,464.45,0,0,1,81.8-65.62,395.67,395.67,0,0,1,95.34-43.36,354.15,354.15,0,0,1,207,.08,395.47,395.47,0,0,1,95.27,43.44,464.42,464.42,0,0,1,81.69,65.67,548.54,548.54,0,0,1,66.39,81.2c39.08,58.17,67.9,123,87,190.36C1697.55,739.62,1706.6,809.7,1707,879.77Zm-9.24,0c-.1-69.27-8.73-138.62-27-205.49s-46.06-131.22-84.15-189.19a543.12,543.12,0,0,0-64.89-81c-24.22-24.77-51-47.18-80.25-65.8a388.21,388.21,0,0,0-94.13-43.52,345.26,345.26,0,0,0-204.93.09,387.61,387.61,0,0,0-94.06,43.59c-29.23,18.65-56,41.07-80.14,65.85a542.24,542.24,0,0,0-64.75,81.07c-38,58-65.64,122.39-83.93,189.12a760.16,760.16,0,0,0-20.17,101.78,791.75,791.75,0,0,0,.06,207.09,759.34,759.34,0,0,0,20.25,101.75c18.34,66.71,46,131.09,84,189a541.83,541.83,0,0,0,64.76,81c24.19,24.74,50.89,47.15,80.12,65.74a389.15,389.15,0,0,0,94,43.43,342.94,342.94,0,0,0,204.61.09,389.37,389.37,0,0,0,94-43.36c29.26-18.57,56-41,80.23-65.69a541.37,541.37,0,0,0,64.89-81c38.12-57.91,65.84-122.32,84.27-189.06S1697.65,949,1697.79,879.77Z" transform="translate(-161.23 -81.5)"/><path class="cls-11" d="M705.61,640.63l138.79-1.12,138.78-.64,277.58-.51,277.57.57,138.78.69,138.79,1.21a.41.41,0,0,1,.4.41.42.42,0,0,1-.4.41l-138.79,1.21-138.78.69-277.57.56-277.58-.51L844.4,643l-138.79-1.12a.62.62,0,0,1-.6-.62A.6.6,0,0,1,705.61,640.63Z" transform="translate(-161.23 -81.5)"/><path class="cls-11" d="M866.62,408.18c32.85-.52,65.69-.75,98.53-1.12l98.54-.64c32.84-.27,65.69-.24,98.53-.32l98.54-.19,197.06.56,98.54.7c32.84.41,65.68.65,98.53,1.21a.41.41,0,0,1,.4.41.4.4,0,0,1-.4.4c-32.85.56-65.69.8-98.53,1.21l-98.54.7-197.06.56-98.54-.19c-32.84-.08-65.69-.05-98.53-.32l-98.54-.64c-32.84-.37-65.68-.6-98.53-1.12a.61.61,0,0,1,0-1.21Z" transform="translate(-161.23 -81.5)"/><path class="cls-11" d="M657.38,873.09,808.23,872l150.84-.64,301.69-.51,301.68.56,150.84.69,150.85,1.21a.42.42,0,0,1,.4.42.4.4,0,0,1-.4.4l-150.85,1.21-150.84.69-301.68.57-301.69-.51-150.84-.64L657.38,874.3a.61.61,0,0,1-.6-.61A.6.6,0,0,1,657.38,873.09Z" transform="translate(-161.23 -81.5)"/><path class="cls-11" d="M705.61,1105.54l138.79-1.12,138.78-.64,277.58-.51,277.57.56,138.78.7,138.79,1.21a.41.41,0,0,1,0,.81l-138.79,1.21-138.78.7-277.57.56-277.58-.51-138.78-.64-138.79-1.12a.61.61,0,0,1,0-1.21Z" transform="translate(-161.23 -81.5)"/><path class="cls-11" d="M1676.88,1338.6a2.14,2.14,0,0,1-2.13,2.13H886.48a2.13,2.13,0,1,1,0-4.26h788.27A2.13,2.13,0,0,1,1676.88,1338.6Z" transform="translate(-161.23 -81.5)"/></g><path class="cls-12" d="M1549.77,994.31a1.44,1.44,0,0,1-1.13-.54,1.46,1.46,0,0,1,.19-2.06q2.25-1.86,4.43-3.78a1.47,1.47,0,0,1,1.94,2.2q-2.21,1.95-4.5,3.84A1.43,1.43,0,0,1,1549.77,994.31Z" transform="translate(-161.23 -81.5)"/><path class="cls-12" d="M1440,1035.9a1.47,1.47,0,0,1,0-2.94c3.74-.13,7.53-.38,11.27-.74a1.47,1.47,0,1,1,.28,2.92c-3.79.37-7.64.63-11.45.75Zm-18.48-.32h-.1c-3.81-.26-7.65-.65-11.42-1.15a1.47,1.47,0,1,1,.38-2.91c3.71.49,7.49.87,11.24,1.13a1.47,1.47,0,0,1-.1,2.93Zm48.12-3.16a1.47,1.47,0,0,1-.29-2.91c3.67-.74,7.37-1.6,11-2.58a1.47,1.47,0,0,1,.76,2.84c-3.69,1-7.45,1.87-11.18,2.62A1.36,1.36,0,0,1,1469.62,1032.42ZM1392,1031.1l-.34,0c-3.7-.88-7.42-1.89-11.07-3a1.46,1.46,0,1,1,.85-2.8c3.59,1.09,7.26,2.08,10.9,2.94a1.46,1.46,0,0,1-.34,2.89Zm106.32-7a1.47,1.47,0,0,1-.52-2.84l1-.38c3.17-1.22,6.35-2.55,9.44-3.94a1.47,1.47,0,0,1,1.21,2.67c-3.15,1.42-6.38,2.77-9.6,4l-1,.38A1.42,1.42,0,0,1,1498.3,1024.14Zm-134.7-2.26a1.65,1.65,0,0,1-.57-.11c-3.52-1.47-7-3.07-10.44-4.75a1.47,1.47,0,1,1,1.3-2.64c3.35,1.66,6.81,3.23,10.27,4.68a1.47,1.47,0,0,1-.56,2.82Zm161.67-10.54a1.47,1.47,0,0,1-.74-2.74c3.25-1.88,6.47-3.88,9.59-6a1.46,1.46,0,1,1,1.62,2.44c-3.16,2.11-6.44,4.15-9.74,6.06A1.39,1.39,0,0,1,1525.27,1011.34Zm-188.18-3.17a1.51,1.51,0,0,1-.78-.22c-3.23-2-6.44-4.17-9.53-6.38a1.47,1.47,0,0,1,1.71-2.39c3,2.17,6.2,4.29,9.38,6.28a1.47,1.47,0,0,1-.78,2.71Zm-23.91-17.83a1.49,1.49,0,0,1-1-.37c-2.86-2.52-5.67-5.16-8.36-7.85a1.47,1.47,0,1,1,2.08-2.08c2.64,2.65,5.41,5.25,8.22,7.73a1.47,1.47,0,0,1-1,2.57Zm-20.66-21.51a1.45,1.45,0,0,1-1.14-.54c-2.4-2.94-4.74-6-7-9.11a1.47,1.47,0,1,1,2.38-1.71c2.18,3,4.48,6.07,6.84,9a1.46,1.46,0,0,1-.21,2.06A1.41,1.41,0,0,1,1292.52,968.83Zm-16.86-24.61a1.47,1.47,0,0,1-1.28-.74c-1.88-3.31-3.68-6.72-5.36-10.14a1.47,1.47,0,0,1,2.64-1.29c1.65,3.37,3.42,6.72,5.28,10a1.46,1.46,0,0,1-1.28,2.19Zm-12.61-27a1.47,1.47,0,0,1-1.38-1c-1.33-3.59-2.56-7.25-3.66-10.87a1.47,1.47,0,1,1,2.81-.85c1.08,3.57,2.29,7.17,3.6,10.7a1.46,1.46,0,0,1-.86,1.88A1.32,1.32,0,0,1,1263.05,917.18ZM1255,888.44a1.45,1.45,0,0,1-1.43-1.19c-.73-3.72-1.35-7.53-1.84-11.32a1.47,1.47,0,0,1,1.26-1.65,1.49,1.49,0,0,1,1.65,1.27c.48,3.73,1.09,7.48,1.81,11.14a1.48,1.48,0,0,1-1.16,1.73Zm-3.27-29.67a1.46,1.46,0,0,1-1.46-1.42c0-1.65-.07-3.29-.07-4.94,0-2.18,0-4.38.12-6.54a1.47,1.47,0,0,1,1.47-1.41h0a1.46,1.46,0,0,1,1.41,1.52c-.07,2.12-.11,4.28-.11,6.43q0,2.43.06,4.86a1.45,1.45,0,0,1-1.42,1.5Z" transform="translate(-161.23 -81.5)"/><path class="cls-12" d="M1253.37,828.87l-.21,0a1.46,1.46,0,0,1-1.25-1.65c.27-2,.58-3.9.91-5.85a1.47,1.47,0,0,1,2.9.5q-.49,2.86-.9,5.75A1.46,1.46,0,0,1,1253.37,828.87Z" transform="translate(-161.23 -81.5)"/><path class="cls-12" d="M1325.33,707.5a1.49,1.49,0,0,1-1.19-.6,1.47,1.47,0,0,1,.31-2c1.58-1.17,3.19-2.32,4.81-3.44a1.47,1.47,0,0,1,1.67,2.41q-2.4,1.66-4.73,3.39A1.44,1.44,0,0,1,1325.33,707.5Z" transform="translate(-161.23 -81.5)"/><path class="cls-12" d="M1615.41,867.68h-.11a1.46,1.46,0,0,1-1.35-1.57c.3-3.94.48-8,.52-11.91a1.47,1.47,0,0,1,1.47-1.46h0a1.47,1.47,0,0,1,1.45,1.49c0,4-.22,8.1-.52,12.1A1.48,1.48,0,0,1,1615.41,867.68Zm-.33-31.52a1.48,1.48,0,0,1-1.46-1.32c-.38-3.94-.91-7.91-1.56-11.83a1.47,1.47,0,0,1,2.9-.48c.66,4,1.19,8,1.58,12a1.46,1.46,0,0,1-1.31,1.6Zm-5.79-31a1.48,1.48,0,0,1-1.42-1.08c-1.06-3.8-2.26-7.63-3.57-11.38a1.47,1.47,0,0,1,2.77-1c1.33,3.81,2.56,7.7,3.63,11.56a1.47,1.47,0,0,1-1,1.81A1.32,1.32,0,0,1,1609.29,805.18Zm-11-29.54a1.46,1.46,0,0,1-1.32-.84c-1.7-3.57-3.54-7.14-5.46-10.59a1.47,1.47,0,1,1,2.56-1.43c2,3.51,3.83,7.13,5.55,10.77a1.46,1.46,0,0,1-.7,2A1.41,1.41,0,0,1,1598.26,775.64Zm-15.91-27.2a1.46,1.46,0,0,1-1.2-.62c-2.28-3.23-4.71-6.42-7.2-9.48a1.47,1.47,0,1,1,2.27-1.86c2.54,3.12,5,6.36,7.33,9.64a1.47,1.47,0,0,1-1.2,2.32Zm-20.37-24a1.45,1.45,0,0,1-1-.43c-2.81-2.78-5.75-5.5-8.74-8.09a1.47,1.47,0,1,1,1.92-2.22c3,2.63,6,5.4,8.89,8.23a1.47,1.47,0,0,1-1,2.51Zm-24.24-20.13a1.47,1.47,0,0,1-.84-.27c-3.25-2.25-6.62-4.43-10-6.47a1.46,1.46,0,0,1,1.51-2.51c3.45,2.07,6.87,4.28,10.18,6.57a1.47,1.47,0,0,1-.84,2.68Zm-191-10.44a1.47,1.47,0,0,1-.7-2.76c3.53-1.91,7.17-3.74,10.83-5.42a1.47,1.47,0,1,1,1.23,2.67c-3.6,1.65-7.19,3.45-10.67,5.34A1.44,1.44,0,0,1,1346.74,693.86Zm163.65-5.23a1.36,1.36,0,0,1-.61-.14c-3.59-1.66-7.29-3.23-11-4.65a1.47,1.47,0,1,1,1.06-2.74c3.75,1.45,7.5,3,11.15,4.73a1.47,1.47,0,0,1-.62,2.8Zm-134.76-7.36a1.47,1.47,0,0,1-.47-2.86c3.82-1.29,7.72-2.47,11.6-3.5a1.47,1.47,0,1,1,.76,2.83c-3.82,1-7.66,2.18-11.42,3.45A1.5,1.5,0,0,1,1375.63,681.27Zm105.14-3.39a1.31,1.31,0,0,1-.39,0c-3.82-1-7.73-1.93-11.61-2.7a1.47,1.47,0,0,1-1.15-1.73,1.46,1.46,0,0,1,1.72-1.15c4,.78,7.92,1.71,11.8,2.75a1.46,1.46,0,0,1-.37,2.88Zm-74.52-4.09a1.47,1.47,0,0,1-.22-2.92c4-.61,8-1.1,12-1.45a1.45,1.45,0,0,1,1.59,1.34,1.47,1.47,0,0,1-1.33,1.59c-4,.34-7.93.82-11.84,1.42Zm43.47-1.4h-.13c-3.94-.35-7.95-.57-11.9-.65a1.47,1.47,0,0,1-1.44-1.5,1.49,1.49,0,0,1,1.5-1.44c4,.09,8.09.31,12.1.67a1.47,1.47,0,0,1-.13,2.93Z" transform="translate(-161.23 -81.5)"/><path class="cls-12" d="M1611.68,892.89l-.32,0a1.46,1.46,0,0,1-1.11-1.75c.42-1.89.8-3.79,1.16-5.7a1.47,1.47,0,0,1,2.89.54c-.37,1.94-.76,3.87-1.19,5.79A1.45,1.45,0,0,1,1611.68,892.89Z" transform="translate(-161.23 -81.5)"/><path class="cls-13" d="M1565.56,899.36a2.16,2.16,0,0,0-.43-2.5l-18.88-18.74a116,116,0,0,0,2.14-37.48l20.86-16.47a2.18,2.18,0,0,0,.71-2.44l-10.52-30.12a2.2,2.2,0,0,0-2.07-1.47l-26.59.11a115.68,115.68,0,0,0-25-28l3.12-26.42a2.21,2.21,0,0,0-1.23-2.23l-28.74-13.86a2.2,2.2,0,0,0-2.5.43l-18.73,18.89a116,116,0,0,0-37.49-2.14l-16.47-20.87a2.17,2.17,0,0,0-2.43-.71l-30.13,10.52a2.18,2.18,0,0,0-1.46,2.08l.1,26.58a116.1,116.1,0,0,0-28,25l-26.42-3.11a2.18,2.18,0,0,0-2.22,1.22l-13.86,28.74a2.2,2.2,0,0,0,.43,2.51l18.88,18.73a115.72,115.72,0,0,0-2.13,37.48l-20.87,16.47a2.18,2.18,0,0,0-.71,2.44l10.52,30.12a2.18,2.18,0,0,0,2.07,1.47l26.59-.11a115.5,115.5,0,0,0,25,28L1356,969.91a2.19,2.19,0,0,0,1.22,2.23L1386,986a2.2,2.2,0,0,0,2.5-.43l18.74-18.89a115.7,115.7,0,0,0,37.48,2.14l16.47,20.87a2.19,2.19,0,0,0,2.44.71l30.12-10.52a2.18,2.18,0,0,0,1.46-2.07l-.1-26.59a116.1,116.1,0,0,0,28-25l26.42,3.11a2.18,2.18,0,0,0,2.22-1.22Z" transform="translate(-161.23 -81.5)"/><path class="cls-14" d="M1432.48,882.66a29.79,29.79,0,1,1,16.37-4.92A29.8,29.8,0,0,1,1432.48,882.66Zm-.1-56.66A26.88,26.88,0,0,0,1410,867.67a26.87,26.87,0,1,0,27.82-41.12A27.31,27.31,0,0,0,1432.38,826Z" transform="translate(-161.23 -81.5)"/><path class="cls-14" d="M1431.87,931.1a78.47,78.47,0,1,1,74-104.35h0a79.64,79.64,0,0,1,3.62,14.85c.07.47.13.94.19,1.42a1.09,1.09,0,0,1,0,.18,1.47,1.47,0,0,1-2.92.18,76.46,76.46,0,0,0-3.67-15.66A75.5,75.5,0,1,0,1489.79,901a1.47,1.47,0,1,1,2.26,1.88,78.61,78.61,0,0,1-60.18,28.18Z" transform="translate(-161.23 -81.5)"/><path class="cls-12" d="M1267.29,758.92a1.5,1.5,0,0,1-.85-.27,1.46,1.46,0,0,1-.35-2c1.11-1.57,2.18-3.19,3.19-4.82a1.47,1.47,0,0,1,2.5,1.54c-1,1.69-2.15,3.36-3.29,5A1.46,1.46,0,0,1,1267.29,758.92Z" transform="translate(-161.23 -81.5)"/><path class="cls-12" d="M1192.28,799.41a1.47,1.47,0,0,1,0-2.93,96.12,96.12,0,0,0,11-1,1.47,1.47,0,0,1,.45,2.91,100,100,0,0,1-11.34,1Zm-18.16-1.11h-.23a97.71,97.71,0,0,1-11.11-2.42,1.46,1.46,0,0,1,.78-2.82,96.39,96.39,0,0,0,10.79,2.34,1.46,1.46,0,0,1-.23,2.91Zm47-4.35a1.48,1.48,0,0,1-1.39-1,1.47,1.47,0,0,1,.89-1.87,93.65,93.65,0,0,0,10.17-4.31,1.47,1.47,0,0,1,1.3,2.64,97.31,97.31,0,0,1-10.48,4.43A1.41,1.41,0,0,1,1221.1,794Zm-74.92-4.55a1.54,1.54,0,0,1-.65-.15,97.26,97.26,0,0,1-9.87-5.66,1.47,1.47,0,0,1,1.61-2.46,92.49,92.49,0,0,0,9.57,5.49,1.47,1.47,0,0,1-.66,2.78ZM1246.89,780a1.46,1.46,0,0,1-.89-2.63l1-.81a95.07,95.07,0,0,0,7.36-6.36,1.46,1.46,0,1,1,2,2.11c-2.4,2.3-5,4.51-7.58,6.57l-1.08.82A1.38,1.38,0,0,1,1246.89,780Zm-124.62-7.54a1.44,1.44,0,0,1-1-.42,97.16,97.16,0,0,1-7.69-8.39,1.47,1.47,0,0,1,2.28-1.85,95.84,95.84,0,0,0,7.45,8.14,1.46,1.46,0,0,1,0,2.07A1.44,1.44,0,0,1,1122.27,772.45Zm-17.69-23.39a1.46,1.46,0,0,1-1.29-.77,96.46,96.46,0,0,1-4.81-10.31,1.47,1.47,0,0,1,2.73-1.09,93.64,93.64,0,0,0,4.66,10,1.47,1.47,0,0,1-.59,2A1.64,1.64,0,0,1,1104.58,749.06Z" transform="translate(-161.23 -81.5)"/><path class="cls-12" d="M1094.78,721.37a1.49,1.49,0,0,1-1.45-1.2c-.36-1.94-.67-3.92-.91-5.89a1.47,1.47,0,1,1,2.91-.36c.24,1.91.54,3.83.89,5.71a1.47,1.47,0,0,1-1.17,1.71Z" transform="translate(-161.23 -81.5)"/><path class="cls-15" d="M1265.07,720.83l-11.38-9.63a64.94,64.94,0,0,0-.47-21l10.92-10.12a1.23,1.23,0,0,0,.29-1.4l-7.21-16.36a1.23,1.23,0,0,0-1.23-.72l-14.84,1.24a65.05,65.05,0,0,0-15.21-14.53l.56-14.89a1.22,1.22,0,0,0-.78-1.19l-16.67-6.47a1.21,1.21,0,0,0-1.37.35l-9.63,11.38a64.94,64.94,0,0,0-21,.47L1166.89,627a1.23,1.23,0,0,0-1.39-.29l-16.36,7.22a1.22,1.22,0,0,0-.72,1.22l1.24,14.84a64.9,64.9,0,0,0-14.53,15.22l-14.9-.57a1.21,1.21,0,0,0-1.18.78l-6.47,16.67a1.22,1.22,0,0,0,.35,1.38l11.38,9.62a64.94,64.94,0,0,0,.47,21l-10.92,10.13a1.23,1.23,0,0,0-.29,1.39l7.22,16.36a1.23,1.23,0,0,0,1.22.73l14.84-1.24A65,65,0,0,0,1152.06,756l-.56,14.9a1.22,1.22,0,0,0,.78,1.19l16.67,6.46a1.22,1.22,0,0,0,1.38-.35l9.62-11.38a64.94,64.94,0,0,0,21-.47l10.13,10.92a1.21,1.21,0,0,0,1.39.29l16.36-7.21a1.2,1.2,0,0,0,.72-1.22l-1.24-14.85a64.85,64.85,0,0,0,14.53-15.21l14.9.56a1.22,1.22,0,0,0,1.19-.78l6.46-16.67A1.21,1.21,0,0,0,1265.07,720.83Z" transform="translate(-161.23 -81.5)"/><path class="cls-14" d="M1189,719.49a17.34,17.34,0,1,1,10.65-3.67A17.31,17.31,0,0,1,1189,719.49Zm0-31.75a14.44,14.44,0,1,0,1.79.11A15.22,15.22,0,0,0,1189,687.74Z" transform="translate(-161.23 -81.5)"/><path class="cls-12" d="M1112,646.5a1.42,1.42,0,0,1-.87-.29,1.46,1.46,0,0,1-.3-2.05c1.18-1.59,2.42-3.16,3.7-4.67a1.47,1.47,0,1,1,2.24,1.89c-1.23,1.46-2.44,3-3.59,4.53A1.45,1.45,0,0,1,1112,646.5Z" transform="translate(-161.23 -81.5)"/><path class="cls-12" d="M1279.76,672.79a1.48,1.48,0,0,1-1.39-1,94.11,94.11,0,0,0-4.08-10.06,1.47,1.47,0,0,1,2.65-1.26,98,98,0,0,1,4.21,10.38,1.46,1.46,0,0,1-.92,1.86A1.5,1.5,0,0,1,1279.76,672.79Zm-13.31-25.6a1.45,1.45,0,0,1-1.18-.6c-.62-.84-1.24-1.67-1.89-2.5-1.58-2-3.27-4-5-5.9a1.47,1.47,0,0,1,2.16-2c1.79,1.94,3.52,4,5.16,6.08.66.85,1.31,1.71,1.94,2.58a1.46,1.46,0,0,1-1.19,2.33Zm-138-17.84a1.46,1.46,0,0,1-.93-2.6c.54-.44,1.09-.88,1.65-1.31,2.38-1.87,4.88-3.64,7.41-5.26a1.47,1.47,0,0,1,1.59,2.47c-2.46,1.58-4.88,3.29-7.2,5.1-.54.42-1.07.84-1.59,1.27A1.49,1.49,0,0,1,1128.4,629.35Zm117.77-2.67a1.52,1.52,0,0,1-.88-.29,95.68,95.68,0,0,0-9.06-6,1.46,1.46,0,0,1,1.46-2.54A95.36,95.36,0,0,1,1247,624a1.47,1.47,0,0,1-.87,2.65Zm-92.94-12a1.47,1.47,0,0,1-.54-2.83,96.5,96.5,0,0,1,10.61-3.57,1.47,1.47,0,0,1,.77,2.83,93.49,93.49,0,0,0-10.29,3.46A1.5,1.5,0,0,1,1153.23,614.67Zm67.46-1.51a1.34,1.34,0,0,1-.48-.08,95.79,95.79,0,0,0-10.44-3,1.47,1.47,0,1,1,.65-2.86,97.82,97.82,0,0,1,10.76,3.08,1.47,1.47,0,0,1-.49,2.85Zm-39.37-5.09a1.47,1.47,0,0,1-.12-2.93c2.55-.2,5.13-.3,7.69-.3h0c1.15,0,2.31,0,3.47.06a1.47,1.47,0,1,1-.1,2.93c-1.13,0-2.3-.08-3.4-.06-2.48,0-5,.1-7.46.3Z" transform="translate(-161.23 -81.5)"/><path class="cls-12" d="M1284.54,696.09a1.46,1.46,0,0,1-1.46-1.35c-.15-1.92-.36-3.85-.63-5.75a1.47,1.47,0,0,1,2.91-.4c.27,1.95.49,3.94.64,5.92a1.47,1.47,0,0,1-1.35,1.58Z" transform="translate(-161.23 -81.5)"/><path class="cls-14" d="M1188.7,746.65A44.61,44.61,0,1,1,1229.45,684c.44,1,.83,2,1.2,3a44.89,44.89,0,0,1,1.54,5.32c0,.24.1.48.16.73a1.5,1.5,0,0,1,0,.29,1.47,1.47,0,0,1-2.91.3,42.23,42.23,0,0,0-2.71-8.45h0a41.72,41.72,0,0,0-43.87-24.46,41,41,0,0,0-10.26,2.8l-.43.18-.38.17a41.67,41.67,0,1,0,50.83,62.22,1.46,1.46,0,0,1,2.66.84,1.41,1.41,0,0,1-.27.85,44.59,44.59,0,0,1-36.34,18.82Z" transform="translate(-161.23 -81.5)"/><path class="cls-12" d="M1431.42,617.57a1.48,1.48,0,0,1-.85-.27,1.46,1.46,0,0,1-.35-2c1.1-1.57,2.18-3.19,3.19-4.82a1.46,1.46,0,1,1,2.49,1.54c-1,1.69-2.14,3.36-3.28,5A1.46,1.46,0,0,1,1431.42,617.57Z" transform="translate(-161.23 -81.5)"/><path class="cls-12" d="M1356.41,658.06a1.47,1.47,0,0,1-.05-2.93,96.12,96.12,0,0,0,11-1,1.47,1.47,0,0,1,1.67,1.23,1.48,1.48,0,0,1-1.23,1.68,99.79,99.79,0,0,1-11.33,1ZM1338.25,657H1338a97.88,97.88,0,0,1-11.12-2.42,1.46,1.46,0,1,1,.79-2.82,96.39,96.39,0,0,0,10.79,2.34,1.46,1.46,0,0,1-.23,2.91Zm47-4.35a1.47,1.47,0,0,1-.49-2.85,92.67,92.67,0,0,0,10.16-4.31,1.47,1.47,0,0,1,1.3,2.64,95.63,95.63,0,0,1-10.48,4.43A1.37,1.37,0,0,1,1385.22,652.6Zm-74.91-4.55a1.51,1.51,0,0,1-.65-.15,97.26,97.26,0,0,1-9.87-5.66,1.47,1.47,0,0,1,1.61-2.46,91.46,91.46,0,0,0,9.57,5.49,1.47,1.47,0,0,1-.66,2.78Zm100.7-9.41a1.47,1.47,0,0,1-1.17-.58,1.46,1.46,0,0,1,.29-2l1-.81a95.07,95.07,0,0,0,7.36-6.36,1.45,1.45,0,0,1,2.07,0,1.47,1.47,0,0,1,0,2.07c-2.4,2.3-5,4.51-7.58,6.57l-1.08.82A1.41,1.41,0,0,1,1411,638.64ZM1286.4,631.1a1.48,1.48,0,0,1-1-.42,98.69,98.69,0,0,1-7.68-8.39,1.47,1.47,0,0,1,2.28-1.85,95.84,95.84,0,0,0,7.45,8.14,1.47,1.47,0,0,1-1,2.52Zm-17.69-23.39a1.49,1.49,0,0,1-1.3-.77,95.64,95.64,0,0,1-4.8-10.32,1.46,1.46,0,1,1,2.72-1.08,93.71,93.71,0,0,0,4.67,10,1.48,1.48,0,0,1-1.29,2.16Z" transform="translate(-161.23 -81.5)"/><path class="cls-12" d="M1258.9,580a1.47,1.47,0,0,1-1.44-1.2c-.36-1.94-.67-3.92-.92-5.89a1.47,1.47,0,1,1,2.92-.36c.24,1.91.54,3.83.89,5.71a1.47,1.47,0,0,1-1.17,1.71Z" transform="translate(-161.23 -81.5)"/><path class="cls-16" d="M1429.2,579.48l-11.38-9.63a64.94,64.94,0,0,0-.47-21l10.92-10.13a1.23,1.23,0,0,0,.29-1.39l-7.22-16.36a1.22,1.22,0,0,0-1.22-.72l-14.84,1.24a64.9,64.9,0,0,0-15.22-14.53l.57-14.89a1.22,1.22,0,0,0-.78-1.19l-16.67-6.47a1.22,1.22,0,0,0-1.38.35l-9.62,11.38a64.94,64.94,0,0,0-21,.47L1331,485.66a1.23,1.23,0,0,0-1.39-.29l-16.36,7.22a1.2,1.2,0,0,0-.72,1.22l1.23,14.84a64.86,64.86,0,0,0-14.52,15.22l-14.9-.57a1.22,1.22,0,0,0-1.19.78l-6.46,16.67a1.22,1.22,0,0,0,.35,1.38l11.38,9.62a64.94,64.94,0,0,0,.47,21L1278,582.91a1.21,1.21,0,0,0-.29,1.39l7.21,16.36a1.23,1.23,0,0,0,1.23.73l14.84-1.24a65,65,0,0,0,15.21,14.52l-.56,14.9a1.22,1.22,0,0,0,.78,1.19l16.67,6.46a1.21,1.21,0,0,0,1.37-.35l9.63-11.38a64.94,64.94,0,0,0,21-.47l10.13,10.92a1.21,1.21,0,0,0,1.39.29L1393,629a1.22,1.22,0,0,0,.72-1.22L1392.47,613A65.05,65.05,0,0,0,1407,597.74l14.89.56a1.22,1.22,0,0,0,1.19-.78l6.47-16.67A1.21,1.21,0,0,0,1429.2,579.48Z" transform="translate(-161.23 -81.5)"/><path class="cls-14" d="M1353.15,578.14a17.34,17.34,0,1,1,10.65-3.67A17.3,17.3,0,0,1,1353.15,578.14Zm-.05-31.75a14.44,14.44,0,1,0,1.79.11A15.49,15.49,0,0,0,1353.1,546.39Z" transform="translate(-161.23 -81.5)"/><path class="cls-12" d="M1276.11,505.15a1.42,1.42,0,0,1-.87-.29,1.46,1.46,0,0,1-.3-2.05c1.18-1.59,2.42-3.16,3.7-4.67a1.47,1.47,0,1,1,2.24,1.89c-1.24,1.46-2.44,3-3.59,4.53A1.46,1.46,0,0,1,1276.11,505.15Z" transform="translate(-161.23 -81.5)"/><path class="cls-12" d="M1443.89,531.44a1.47,1.47,0,0,1-1.39-1,94.17,94.17,0,0,0-4.09-10.06,1.47,1.47,0,0,1,2.66-1.26,100.18,100.18,0,0,1,4.21,10.38,1.46,1.46,0,0,1-.92,1.86A1.6,1.6,0,0,1,1443.89,531.44Zm-13.31-25.6a1.45,1.45,0,0,1-1.18-.6c-.62-.84-1.25-1.68-1.89-2.5-1.58-2-3.27-4-5-5.9a1.47,1.47,0,0,1,2.16-2c1.79,1.94,3.52,4,5.15,6.08q1,1.27,2,2.58a1.46,1.46,0,0,1-1.19,2.33Zm-138-17.84a1.46,1.46,0,0,1-.93-2.6l1.64-1.31c2.39-1.87,4.89-3.64,7.42-5.26a1.47,1.47,0,1,1,1.59,2.47c-2.46,1.58-4.89,3.29-7.2,5.1l-1.6,1.27A1.46,1.46,0,0,1,1292.53,488Zm117.77-2.67a1.5,1.5,0,0,1-.88-.29,94.56,94.56,0,0,0-9.07-6,1.47,1.47,0,0,1,1.47-2.54,96.57,96.57,0,0,1,9.35,6.15,1.47,1.47,0,0,1-.87,2.65Zm-92.94-12a1.47,1.47,0,0,1-.55-2.83,97.94,97.94,0,0,1,10.61-3.57,1.47,1.47,0,1,1,.78,2.83,93.49,93.49,0,0,0-10.29,3.46A1.54,1.54,0,0,1,1317.36,473.32Zm67.46-1.51a1.34,1.34,0,0,1-.48-.08,97.09,97.09,0,0,0-10.44-3,1.47,1.47,0,1,1,.64-2.86A96.58,96.58,0,0,1,1385.3,469a1.46,1.46,0,0,1-.48,2.85Zm-39.38-5.09a1.47,1.47,0,0,1-.11-2.93c2.54-.2,5.13-.3,7.69-.3h0q1.74,0,3.48.06a1.47,1.47,0,1,1-.1,2.93c-1.14,0-2.3-.08-3.4-.06-2.48,0-5,.1-7.46.3Z" transform="translate(-161.23 -81.5)"/><path class="cls-12" d="M1448.67,554.74a1.47,1.47,0,0,1-1.47-1.35c-.15-1.92-.36-3.85-.62-5.75a1.47,1.47,0,0,1,2.91-.4c.27,2,.49,3.94.64,5.92a1.47,1.47,0,0,1-1.35,1.58Z" transform="translate(-161.23 -81.5)"/><path class="cls-14" d="M1352.83,605.3a44.61,44.61,0,1,1,40.75-62.61c.43,1,.83,2,1.19,3a44.93,44.93,0,0,1,1.55,5.32l.15.73a1.43,1.43,0,0,1,0,.29,1.47,1.47,0,0,1-2.9.3,42.23,42.23,0,0,0-2.71-8.45h0a41.63,41.63,0,0,0-54.14-21.66l-.42.18-.38.17a41.73,41.73,0,0,0-24.86,38.19,41.68,41.68,0,0,0,75.69,24,1.46,1.46,0,0,1,2.66.85,1.48,1.48,0,0,1-.27.85,44.59,44.59,0,0,1-36.34,18.82Z" transform="translate(-161.23 -81.5)"/><path class="cls-17" d="M2279.58,424.5,2158,730.26a36.22,36.22,0,0,1-38.82,22.47l-318.82-22.31,114.84-326.37A20.3,20.3,0,0,1,1934.66,391c55.9,1.28,259.49,6.31,332.32,12.79A15.09,15.09,0,0,1,2279.58,424.5Z" transform="translate(-161.23 -81.5)"/><path class="cls-5" d="M2129.93,738.85,2251.4,430.34a9.61,9.61,0,0,0-8.73-13.14l-300.24-11.39a18.18,18.18,0,0,0-17.63,11.54l-110,300.74Z" transform="translate(-161.23 -81.5)"/><path class="cls-18" d="M1692,742.78a10.32,10.32,0,0,0,10.32,10.32h419.31a15.68,15.68,0,0,0,15.68-15.68l6.6-7.67L1708.49,726A16.76,16.76,0,0,0,1692,742.78Z" transform="translate(-161.23 -81.5)"/><path class="cls-5" d="M2225.33,540.57a1.36,1.36,0,0,1-.48-.09,1.29,1.29,0,0,1-.72-1.68l44.77-112a12.55,12.55,0,0,0-11.07-17.2l-81.18-3.82a1.29,1.29,0,1,1,.12-2.57l81.18,3.81a15.14,15.14,0,0,1,13.35,20.73l-44.78,112A1.27,1.27,0,0,1,2225.33,540.57Z" transform="translate(-161.23 -81.5)"/><path class="cls-19" d="M1848.72,455.94a223.58,223.58,0,0,0,22.71-34.66c8.91-16.84.72,10.89,3.15-8.11,66.72-48.15,167.19-23.78,206.05-18.89a51.93,51.93,0,0,1,32.79,17.61c33.3,38.54,106.38,144,20.37,250.36-11-6.11-26.65-15.91-37.27-27.25,9.51-26.82,10.29-61.1-9.65-103.13a98.56,98.56,0,0,1-2.55,9.87c-27.49,87.08-29,159.54-28.89,176.24,0,2.27,1.64,10.41-.63,10.56-52.1,3.39-139.67-3.25-139.67-3.25,16.51-82.09-45.84-227.45-61.88-262.78A22.54,22.54,0,0,0,1848.72,455.94Z" transform="translate(-161.23 -81.5)"/><path class="cls-20" d="M2018.1,324.3l7,71.23S1985,407.6,1955.86,387l20.49-64.73Z" transform="translate(-161.23 -81.5)"/><path class="cls-21" d="M1971.61,243.11c-1,.91-40.7,78.95-40.7,78.95l45,21.74,48.66-68.37S1987.75,227.91,1971.61,243.11Z" transform="translate(-161.23 -81.5)"/><path class="cls-22" d="M2004.67,277.33a7.24,7.24,0,0,1-.54,6.31l-22.47,37.44a6.72,6.72,0,0,1-1.23,1.53c-2.67,2.49-11.82,9.73-18.89-.12-6-8.4-11.69-16-17.75-19.19a7.18,7.18,0,0,0-9.69,3.19c-3.7,7.33-10.87,22.29-15.37,36.47a7.15,7.15,0,0,0,4.16,8.77c9.12,3.69,27.14,10.37,43.14,12.58a7.19,7.19,0,0,0,6.79-2.89c6.88-9.43,26.28-35.77,32.9-42.36,6.15-6.13,17.5-3.82,22.61-2.35a7.22,7.22,0,0,0,5.74-.75c5.19-3.13,14.24-10.91,6-24.09a7.2,7.2,0,0,1,2.22-9.77c5.8-3.81,12.08-11,6.09-22.55s-16.89-12.78-24.26-11.88a7.46,7.46,0,0,1-7.83-4.35,4.77,4.77,0,0,0-3.71-2.92,7,7,0,0,1-5.64-8.19c1.3-6.63.32-15.25-10.27-21.08-19.44-10.68-36.46,6.73-40.79,21.42s17.4,25.08,31.07,26.82C1997,260.64,2002.45,271.6,2004.67,277.33Z" transform="translate(-161.23 -81.5)"/><path class="cls-23" d="M1997.28,332.81s8.64-25.29,19.7-24.36,19.77,11.95,6.06,24.34C2006,348.19,1997.28,332.81,1997.28,332.81Z" transform="translate(-161.23 -81.5)"/><path class="cls-24" d="M2090.52,525.35c14.58-39.9,9.29-88.08,9.23-88.56l-4,.46c.06.47,5.23,47.73-9,86.72Z" transform="translate(-161.23 -81.5)"/><path class="cls-25" d="M1713.29,478.34c75.46,11.32,124.64-36.29,161.29-65.17,48.39-38.14,86-19.59,86-19.59L1909,492.07c-77.06,72.66-156.07,56.52-205.88,33A95.93,95.93,0,0,1,1713.29,478.34Z" transform="translate(-161.23 -81.5)"/><path class="cls-26" d="M1607.23,433.32l25,13.47c30,18.27,56.87,27.92,81,31.55a95.93,95.93,0,0,0-10.15,46.71c-31.71-15-51.59-33-51.59-33C1594.86,458.26,1607.23,433.32,1607.23,433.32Z" transform="translate(-161.23 -81.5)"/><path class="cls-27" d="M1533.51,468.58a18.45,18.45,0,0,1,10.79-11.81l50.78-20.42s.77-6.51-10.73-10.94-8.81-17.3-8.81-17.3,15.71,7.16,38.71,18.53c13.15,6.5,20.52,18,24.44,26.61l-13.08,17.19c-31.3,9.41-63,11.21-94.91,7.48Z" transform="translate(-161.23 -81.5)"/><path class="cls-28" d="M2096.52,635c10.62,11.34,26.26,21.14,37.27,27.25-16.44,20.32-38.68,40.66-68.13,60.58l-.37,6.67h-48.14S2078.68,685.27,2096.52,635Z" transform="translate(-161.23 -81.5)"/><path class="cls-29" d="M480.23,1142.06l128.65,323.55A38.34,38.34,0,0,0,650,1489.38l337.36-24.91-121.51-344a21.51,21.51,0,0,0-20.59-13.85c-59.15,1.36-274.58,6.68-351.64,13.54A16,16,0,0,0,480.23,1142.06Z" transform="translate(-161.23 -81.5)"/><path class="cls-5" d="M638.58,1474.69,510.05,1148.25a10.18,10.18,0,0,1,9.24-13.91L837,1122.28a19.26,19.26,0,0,1,18.66,12.22L972,1452.73Z" transform="translate(-161.23 -81.5)"/><path class="cls-30" d="M1102,1478.85a10.91,10.91,0,0,1-10.92,10.92H647.41a16.59,16.59,0,0,1-16.59-16.59l-7-8.11,460.69-4a17.73,17.73,0,0,1,17.49,17.73Z" transform="translate(-161.23 -81.5)"/><path class="cls-31" d="M577.69,1261.86a2,2,0,0,1-1.91-1.31l-1.94-5c-12.71-33-27.11-70.42-33.88-87.73a13.64,13.64,0,0,1,12.7-18.61h55.89a2,2,0,1,1,0,4.1H552.66a9.54,9.54,0,0,0-8.89,13C550.55,1183.6,565,1221,577.66,1254l1.94,5a2,2,0,0,1-1.17,2.65A2.1,2.1,0,0,1,577.69,1261.86Z" transform="translate(-161.23 -81.5)"/><path class="cls-32" d="M1161.31,981.72c.9,2.87-9.56,7.24-15.71-4.49-.22-5.63-3.64-29.73-.27-34.31,17.9-24.4,52.6-55,52.6-55,5.87,5.79,1,11.48,1,11.48l-16.84,17.53c3.52,6.37,7.82,11.74,9.83,19.44a23.57,23.57,0,0,1-2.35,17.36c-3,5.33-7,12.25-10.8,17.67C1171.59,981.65,1161.31,981.72,1161.31,981.72Z" transform="translate(-161.23 -81.5)"/><path class="cls-33" d="M1174.77,928.32l-15.35,13-4.81,12.95,13.68,15.18s4.59-25.7,8-31.26S1178,929.94,1174.77,928.32Z" transform="translate(-161.23 -81.5)"/><path class="cls-34" d="M904,1108.43c-87.82-1.45-184.72,23-184.72,23-26.17,152.74-5.64,332.82-5.64,332.82,80.22,1.58,143.75-3.18,143.75-3.18,11.3-63.84,66-255.13,66-255.13,42.91-5.33,78.25-17.71,107.36-34.08-22.2-25.73-32.67-58.48-37.22-77.84C962.5,1103.72,931.09,1108.87,904,1108.43Z" transform="translate(-161.23 -81.5)"/><path class="cls-35" d="M1163.4,979.07c-8.63-10.42-19.55-5.49-19.55-5.49-12.92,54.59-80.68,98.85-150.3,120.49,4.55,19.36,15,52.11,37.22,77.84C1146.3,1107,1163.4,979.07,1163.4,979.07Z" transform="translate(-161.23 -81.5)"/><path class="cls-36" d="M753,1216.52l-33.69-85s-82,55.74-95.51,126.4c15.49,1.14,43.7,5.18,71.3,19.11C701.14,1243.63,753,1216.52,753,1216.52Z" transform="translate(-161.23 -81.5)"/><path class="cls-37" d="M815.05,1037.13l-27.95,80.81a2.92,2.92,0,0,0,1.33,3.51c7.62,4.21,35.06,16.38,68.13-4.59a13.69,13.69,0,0,0,6.31-9.79l9-69.94Z" transform="translate(-161.23 -81.5)"/><path class="cls-38" d="M875.84,962.3s30.69,57.76,26.76,81.09-42,21.66-75.17,2.71l-23.21-62.37Z" transform="translate(-161.23 -81.5)"/><path class="cls-39" d="M828.9,1015.47a2.38,2.38,0,0,0,1-3.48c-2.45-3.76-7.06-11.42-8.53-18.13,0,0-5.52-3.53,14-8.21s48.71-11.95,54.84-28.59c6-16.23-9.72-57-34.77-24.53a2.38,2.38,0,0,1-3.77,0c-4.11-5.34-14.91-16.44-29.9-9.71-14,6.29-15.61,16.57-15.41,21.75a2.37,2.37,0,0,1-2.81,2.42c-7.09-1.35-24.11-2.51-32,15-6.55,14.38-2.29,22.52,1.58,26.5a2.37,2.37,0,0,1-1,3.94c-4.66,1.43-10.68,5.38-10.07,16.3.83,15.1,17.71,13.77,22.51,13.08a2.41,2.41,0,0,1,2.12.75c4.12,4.56,22.68,23.92,42.78,26.26a2.41,2.41,0,0,0,2.52-3.18l-8.7-25.28a2.39,2.39,0,0,1,1.29-3Z" transform="translate(-161.23 -81.5)"/><path class="cls-40" d="M832.39,1019.06s-21.85-15-23.44-2.37,19.67,18.29,30.21,13.58Z" transform="translate(-161.23 -81.5)"/><path class="cls-41" d="M695.06,1277s-28.67,129.35-2.7,202.06c-31.84,14.76-26,12-26,12s-63-184-42.65-233.15C663.84,1253.63,683.73,1264.4,695.06,1277Z" transform="translate(-161.23 -81.5)"/><path class="cls-42" d="M692.36,1479.05s16.4,21.24,15.09,29.69-1.62,11.91-1.62,11.91-8.25-5.64-7.73-12.85c1.15,22.87,8.8,48.87,1.84,47.62s-43-34.46-34.84-69.86C683.59,1472.72,688.77,1474.12,692.36,1479.05Z" transform="translate(-161.23 -81.5)"/><path class="cls-43" d="M521,502.65,638,796.8a34.84,34.84,0,0,0,37.34,21.62L982,797,871.54,483a19.55,19.55,0,0,0-18.72-12.59c-53.77,1.24-249.63,6.08-319.7,12.31A14.51,14.51,0,0,0,521,502.65Z" transform="translate(-161.23 -81.5)"/><path class="cls-5" d="M665,805.07,548.11,508.27a9.25,9.25,0,0,1,8.4-12.64l288.84-11a17.49,17.49,0,0,1,17,11.1L968.1,785.09Z" transform="translate(-161.23 -81.5)"/><path class="cls-44" d="M1086.31,808.85a9.94,9.94,0,0,1-9.93,9.93H673a15.09,15.09,0,0,1-15.08-15.09l-6.35-7.37,418.84-3.59a16.13,16.13,0,0,1,15.91,16.12Z" transform="translate(-161.23 -81.5)"/><path class="cls-45" d="M924.21,533.3c-8.78-14.5-24.1-24-33.34-38.24-11.64-17.91-12-41.62-4.42-61.57,6.33-16.55,17.6-30.84,24.06-47.35,8.68-22.21,8.84-31.77,4.89-54.06-3.49-19.65-11.12-40.56-30-51.83-23.32-13.93-51.85-16.58-78.54-11.53-27.71,5.23-54.57,17-74.84,36.6s-33.49,47.1-33.15,75.3c.23,19.07,6.37,38.74.25,56.81a44.67,44.67,0,0,1-31.56,28.64c-16.05,3.75-32.74-1.74-49.22-1.52a71.74,71.74,0,0,0-45,16.83c-11.05,9.35-19.24,22.47-21.1,36.83s3.14,29.8,14.17,39.16c7.55,6.41,18.17,10.75,21,20.25,3.12,10.63-6,21.31-16.23,25.62s-21.68,4.69-32.06,8.55c-23.22,8.65-37.29,34.82-35.48,59.53s17.45,47.09,38,61S587,752.49,611.65,754.5s49.52,0,74.27-1.12c28.32-1.34,57.19-1.71,84-10.79,27.15-9.19,50.61-26.76,72.49-45.28,10.36-8.77,20.86-18.37,25.51-31.12,3.38-9.25,3.39-19.54,7.27-28.6,8.33-19.43,31.43-27.69,44.78-44.09C933.56,576.88,935.32,551.64,924.21,533.3Z" transform="translate(-161.23 -81.5)"/><path class="cls-46" d="M617,568.23l-.16,0a34.93,34.93,0,0,1-21.35-55.67c10.79-14,29.79-17.63,48.33-20.14l33.58-4.56c19-2.57,38.38-6.25,49.28-20.26,11.63-14.94,9.3-35.35,7.06-55.09q-.39-3.39-.74-6.72c-2.94-28.2,0-52.72,8.77-72.87,10.69-24.58,30.62-42.67,53.3-48.38a.85.85,0,0,1,1,.62.86.86,0,0,1-.62,1c-22.18,5.58-41.67,23.3-52.15,47.41-8.64,19.88-11.55,44.1-8.64,72,.23,2.21.49,4.45.74,6.7,2.28,20.09,4.64,40.85-7.41,56.34-11.3,14.52-31.09,18.29-50.4,20.91l-33.58,4.55c-18.19,2.47-36.81,6-47.2,19.5a33.22,33.22,0,0,0,20.3,52.94.85.85,0,0,1,.69,1A.86.86,0,0,1,617,568.23Z" transform="translate(-161.23 -81.5)"/><path class="cls-47" d="M627.62,557.92a1.72,1.72,0,0,1-1.16-.46c-4.11-3.85-8.76-8.21-11.53-13.74-2.5-5-3.76-12.47.26-18.34,2.61-3.82,6.89-6,11.11-7.8a138.63,138.63,0,0,1,32.05-9.28c7.16-1.17,14.49-1.78,21.58-2.37,9.15-.77,18.62-1.55,27.67-3.55,10.83-2.39,30.26-8.94,38.71-25.95,6.83-13.75,4.3-29.08,1.61-45.31-2.18-13.16-4.43-26.77-1.34-39.7a1.71,1.71,0,0,1,3.33.8c-2.93,12.26-.73,25.52,1.39,38.34,2.65,16.06,5.4,32.65-1.92,47.39-9.09,18.29-29.61,25.25-41,27.77-9.28,2-18.86,2.85-28.13,3.62-7,.58-14.28,1.19-21.31,2.33a135.71,135.71,0,0,0-31.26,9.06c-3.49,1.48-7.4,3.34-9.63,6.59-2.61,3.82-2.62,9.66,0,14.87,2.48,5,6.71,8.94,10.79,12.77a1.71,1.71,0,0,1,.08,2.42A1.69,1.69,0,0,1,627.62,557.92Z" transform="translate(-161.23 -81.5)"/><path class="cls-48" d="M899.74,500.23c-16-5.08-62.63-14.73-107.8,25.63a27.54,27.54,0,0,0-8.38,27.33c11.24,44.2,34.05,185.75,5.49,241.56,0,0,9-.07,108.37,1,0,0,25.53-103.58,57.5-148.72C977,615.92,922.43,528.2,908.61,507A16.56,16.56,0,0,0,899.74,500.23Z" transform="translate(-161.23 -81.5)"/><path class="cls-49" d="M856.78,412.08s-24.85,66.84-27.11,96.47a50.84,50.84,0,0,0,51.15-7.39s3.68-67.11,7.62-79.07Z" transform="translate(-161.23 -81.5)"/><path class="cls-50" d="M891.27,321s60.76,88,23.2,112.66-80.82-37.87-80.82-37.87S820,347.91,835.33,332,891.27,321,891.27,321Z" transform="translate(-161.23 -81.5)"/><path class="cls-51" d="M862.83,299.7s28.45,7.23,32.24,20.21-40.89,24.26-53.37,24.64l-10.89,52s-28.9-49.53-16.68-77.67S862.83,299.7,862.83,299.7Z" transform="translate(-161.23 -81.5)"/><path class="cls-52" d="M845.8,389.55s-23.74-28.41-33.66-10.3,21.26,32.33,32.28,23.54Z" transform="translate(-161.23 -81.5)"/><path class="cls-53" d="M785.43,534.54s-76.94,61.87-97.17,147.79,109.41,97.16,109.41,97.16,17.93-19.39,38.74-12,2.17-34.31-22.31-34.6-13.45,19.25-47.81,3c-33.48-15.82-53.57-63.4,33.63-133.64a39,39,0,0,0,11.62-15.29C828.93,545.13,816.12,517.33,785.43,534.54Z" transform="translate(-161.23 -81.5)"/><path class="cls-12" d="M1025,756.8l-2.14-6.47v0a1,1,0,0,1,1.87-.61h0l2.13,6.51a1,1,0,1,1-1.85.61Z" transform="translate(-161.23 -81.5)"/><path class="cls-12" d="M1018.25,737.47l-2.31-6.43a1,1,0,0,1,1.9-.68h0l2.29,6.43a1,1,0,1,1-1.88.67Z" transform="translate(-161.23 -81.5)"/><path class="cls-12" d="M1011.46,718.12l-2.13-6.51a1,1,0,0,1,.67-1.31,1,1,0,0,1,1.3.67h0v0l2.1,6.48h0a1,1,0,1,1-1.95.64Z" transform="translate(-161.23 -81.5)"/><path class="cls-12" d="M1005.42,698.49l-1.77-6.62a1.06,1.06,0,1,1,2.05-.55h0v0l1.74,6.58v0a1.05,1.05,0,0,1-2,.55Z" transform="translate(-161.23 -81.5)"/><path class="cls-12" d="M1000.55,678.51l-1.32-6.72a1.09,1.09,0,1,1,2.14-.42h0v0l1.3,6.68v0a1.08,1.08,0,1,1-2.12.41Z" transform="translate(-161.23 -81.5)"/><path class="cls-12" d="M997.07,658.24l-.83-6.8a1.13,1.13,0,0,1,1-1.25,1.11,1.11,0,0,1,1.24,1h0v0l.8,6.75v0a1.11,1.11,0,0,1-2.21.26Z" transform="translate(-161.23 -81.5)"/><path class="cls-12" d="M995.09,637.77l-.33-6.85a1.15,1.15,0,1,1,2.29-.11h0v0l.31,6.8v0a1.14,1.14,0,0,1-2.27.1Z" transform="translate(-161.23 -81.5)"/><path class="cls-12" d="M994.6,617.21l.16-6.86a1.18,1.18,0,0,1,2.35.06h0v0l-.18,6.8v0a1.17,1.17,0,0,1-2.33-.06Z" transform="translate(-161.23 -81.5)"/><path class="cls-12" d="M995.56,596.67l.62-6.83a1.2,1.2,0,1,1,2.39.22h0v0l-.64,6.77v0a1.19,1.19,0,0,1-2.37-.22Z" transform="translate(-161.23 -81.5)"/><path class="cls-12" d="M997.87,576.23l1-6.77a1.23,1.23,0,0,1,1.4-1,1.25,1.25,0,0,1,1,1.41h0v0l-1.06,6.72v0a1.22,1.22,0,0,1-1.4,1A1.21,1.21,0,0,1,997.87,576.23Z" transform="translate(-161.23 -81.5)"/><path class="cls-12" d="M1001.42,556l1.44-6.7a1.25,1.25,0,1,1,2.45.53h0v0l-1.45,6.66v0a1.24,1.24,0,1,1-2.43-.53Z" transform="translate(-161.23 -81.5)"/><path class="cls-12" d="M1006.11,536l1.85-6.6a1.28,1.28,0,1,1,2.47.69h0v0l-1.85,6.54v0a1.27,1.27,0,0,1-2.45-.69Z" transform="translate(-161.23 -81.5)"/><path class="cls-12" d="M1012.11,516.28l2.31-6.46a1.3,1.3,0,1,1,2.46.87h0v0l-2.3,6.4v0a1.3,1.3,0,0,1-2.45-.88Z" transform="translate(-161.23 -81.5)"/><path class="cls-12" d="M1019.46,497.06l2.75-6.29a1.32,1.32,0,0,1,1.75-.69,1.34,1.34,0,0,1,.7,1.76h0v0l-2.73,6.22,0,0a1.33,1.33,0,0,1-2.43-1.06Z" transform="translate(-161.23 -81.5)"/><path class="cls-12" d="M1028.12,478.39l3.16-6.09a1.36,1.36,0,1,1,2.42,1.26h0v0l-3.16,6v0a1.35,1.35,0,0,1-2.4-1.25Z" transform="translate(-161.23 -81.5)"/><path class="cls-12" d="M1038,460.35l3.57-5.86a1.39,1.39,0,1,1,2.37,1.44h0v0l-3.55,5.8,0,0a1.38,1.38,0,0,1-2.36-1.43Z" transform="translate(-161.23 -81.5)"/><path class="cls-12" d="M1049.11,443l3.94-5.61a1.42,1.42,0,0,1,2.32,1.63h0l0,0-3.93,5.55v0a1.41,1.41,0,0,1-2.3-1.63Z" transform="translate(-161.23 -81.5)"/><path class="cls-12" d="M1061.3,426.43l4.3-5.35a1.43,1.43,0,1,1,2.22,1.79h0l0,0-4.26,5.3,0,0a1.42,1.42,0,1,1-2.22-1.78Z" transform="translate(-161.23 -81.5)"/><path class="cls-12" d="M1074.53,410.66l4.62-5.06a1.43,1.43,0,1,1,2.11,1.92h0l0,0-4.58,5,0,0a1.43,1.43,0,0,1-2.11-1.93Z" transform="translate(-161.23 -81.5)"/><path class="cls-12" d="M1088.69,395.74l4.92-4.78a1.44,1.44,0,0,1,2,2.06h0l0,0-4.88,4.74,0,0a1.44,1.44,0,0,1-2-2.06Z" transform="translate(-161.23 -81.5)"/><path class="cls-12" d="M1103.73,381.7l5.18-4.49a1.44,1.44,0,1,1,1.89,2.18h0l0,0-5.15,4.45h0a1.44,1.44,0,1,1-1.88-2.17Z" transform="translate(-161.23 -81.5)"/><path class="cls-12" d="M1119.54,368.54l5.44-4.18a1.45,1.45,0,1,1,1.76,2.3h0l-5.39,4.15,0,0a1.45,1.45,0,0,1-1.77-2.3Z" transform="translate(-161.23 -81.5)"/><path class="cls-12" d="M1136.08,356.31l5.66-3.88a1.45,1.45,0,1,1,1.64,2.4h0l0,0-5.62,3.84h0a1.45,1.45,0,1,1-1.64-2.39Z" transform="translate(-161.23 -81.5)"/><path class="cls-12" d="M1153.26,345l5.86-3.56a1.48,1.48,0,0,1,2,.49,1.46,1.46,0,0,1-.49,2h0l-5.82,3.53,0,0a1.46,1.46,0,0,1-1.51-2.5Z" transform="translate(-161.23 -81.5)"/><path class="cls-12" d="M1171,334.65l6-3.24a1.46,1.46,0,1,1,1.38,2.58h0l0,0-6,3.21h0a1.47,1.47,0,1,1-1.39-2.58Z" transform="translate(-161.23 -81.5)"/><path class="cls-12" d="M1189.33,325.26l6.21-2.91a1.47,1.47,0,1,1,1.25,2.66h0l-6.16,2.89h0a1.47,1.47,0,0,1-1.25-2.66Z" transform="translate(-161.23 -81.5)"/><path class="cls-12" d="M1208.11,316.86l6.35-2.58a1.49,1.49,0,0,1,1.93.82,1.47,1.47,0,0,1-.82,1.92h0l-6.31,2.55h0a1.47,1.47,0,1,1-1.11-2.73Z" transform="translate(-161.23 -81.5)"/><path class="cls-12" d="M1227.3,309.47l6.49-2.23a1.48,1.48,0,1,1,1,2.81h0l-6.44,2.22h0a1.48,1.48,0,0,1-1-2.8Z" transform="translate(-161.23 -81.5)"/><path class="cls-12" d="M1246.87,303.13l6.6-1.88a1.49,1.49,0,1,1,.81,2.87h0l-6.55,1.85h0a1.49,1.49,0,1,1-.82-2.86Z" transform="translate(-161.23 -81.5)"/><path class="cls-12" d="M1266.76,297.87l6.69-1.51a1.5,1.5,0,0,1,.66,2.92h0l-6.64,1.49h0a1.49,1.49,0,0,1-.65-2.91Z" transform="translate(-161.23 -81.5)"/><path class="cls-12" d="M1286.91,293.73l6.77-1.12a1.51,1.51,0,1,1,.49,3h0l-6.71,1.11h0a1.5,1.5,0,0,1-.49-3Z" transform="translate(-161.23 -81.5)"/><path class="cls-12" d="M1307.28,290.78l6.82-.71a1.52,1.52,0,0,1,1.66,1.35,1.5,1.5,0,0,1-1.34,1.65h0l-6.77.69h0a1.51,1.51,0,0,1-.31-3Z" transform="translate(-161.23 -81.5)"/><path class="cls-12" d="M1327.79,289.08l6.86-.28a1.52,1.52,0,0,1,.12,3h0l-6.79.27h0a1.51,1.51,0,0,1-.12-3Z" transform="translate(-161.23 -81.5)"/><path class="cls-12" d="M1348.38,288.71l6.86.18a1.53,1.53,0,0,1,1.48,1.56,1.51,1.51,0,0,1-1.56,1.48h0l-6.79-.19h0a1.52,1.52,0,1,1,.08-3Z" transform="translate(-161.23 -81.5)"/><path class="cls-12" d="M1369,289.75l6.83.68a1.54,1.54,0,0,1,1.37,1.67,1.52,1.52,0,0,1-1.67,1.37h0l-6.76-.68h0a1.53,1.53,0,1,1,.3-3Z" transform="translate(-161.23 -81.5)"/><path class="cls-12" d="M1389.39,292.23l6.77,1.11a1.53,1.53,0,0,1-.49,3h0l-6.71-1.1h0a1.53,1.53,0,0,1,.5-3Z" transform="translate(-161.23 -81.5)"/><path class="cls-12" d="M1409.63,296l6.69,1.53a1.54,1.54,0,0,1-.69,3h0L1409,299h0a1.53,1.53,0,0,1,.69-3Z" transform="translate(-161.23 -81.5)"/><path class="cls-12" d="M1429.59,301l6.58,2a1.55,1.55,0,0,1-.89,3h0l-6.51-1.95h0a1.54,1.54,0,1,1,.88-3Z" transform="translate(-161.23 -81.5)"/><path class="cls-12" d="M1449.18,307.34l6.44,2.4a1.55,1.55,0,1,1-1.09,2.9h0l-6.37-2.37,0,0a1.55,1.55,0,0,1,1.08-2.9Z" transform="translate(-161.23 -81.5)"/><path class="cls-12" d="M1468.32,315l6.26,2.81a1.56,1.56,0,0,1-1.28,2.84h0l-6.2-2.79,0,0a1.55,1.55,0,1,1,1.28-2.83Z" transform="translate(-161.23 -81.5)"/><path class="cls-12" d="M1486.91,323.79,1493,327a1.56,1.56,0,1,1-1.46,2.76h0l-6-3.18,0,0a1.56,1.56,0,1,1,1.46-2.75Z" transform="translate(-161.23 -81.5)"/><path class="cls-12" d="M1504.91,333.78l5.86,3.57a1.56,1.56,0,1,1-1.63,2.67h0l-5.8-3.54,0,0a1.56,1.56,0,0,1,1.63-2.67Z" transform="translate(-161.23 -81.5)"/><path class="cls-12" d="M1522.27,344.83l5.64,3.9a1.57,1.57,0,0,1-1.79,2.59h0l0,0-5.59-3.87,0,0a1.57,1.57,0,1,1,1.79-2.58Z" transform="translate(-161.23 -81.5)"/><path class="cls-12" d="M1539,356.84l5.42,4.19a1.58,1.58,0,0,1-1.93,2.5h0l0,0-5.37-4.16,0,0a1.58,1.58,0,1,1,1.94-2.49Z" transform="translate(-161.23 -81.5)"/><path class="cls-12" d="M1555,369.69l5.21,4.45a1.59,1.59,0,1,1-2.06,2.41h0l-5.17-4.43h0a1.59,1.59,0,0,1,2.06-2.41Z" transform="translate(-161.23 -81.5)"/><path class="cls-12" d="M1570.46,383.28l5,4.67a1.59,1.59,0,0,1-2.17,2.33h0v0l-5-4.64,0,0a1.59,1.59,0,0,1,2.17-2.32Z" transform="translate(-161.23 -81.5)"/><path class="cls-12" d="M1585.31,397.49l4.83,4.86a1.6,1.6,0,0,1-2.27,2.25h0l-4.8-4.84h0a1.6,1.6,0,1,1,2.27-2.25Z" transform="translate(-161.23 -81.5)"/><path class="cls-12" d="M1599.63,412.22l4.66,5a1.6,1.6,0,1,1-2.34,2.19h0v0l-4.65-5v0a1.6,1.6,0,0,1,2.35-2.18Z" transform="translate(-161.23 -81.5)"/><path class="cls-12" d="M1613.48,427.38l4.53,5.13a1.6,1.6,0,0,1-.14,2.27,1.62,1.62,0,0,1-2.27-.14h0l-4.51-5.12h0a1.6,1.6,0,1,1,2.41-2.12Z" transform="translate(-161.23 -81.5)"/><path class="cls-12" d="M1627,442.86l4.42,5.22a1.62,1.62,0,1,1-2.47,2.09h0l-4.4-5.21h0a1.61,1.61,0,0,1,2.47-2.08Z" transform="translate(-161.23 -81.5)"/><path class="cls-12" d="M1640.13,458.59l4.34,5.28a1.62,1.62,0,1,1-2.5,2.06h0l-4.33-5.27h0a1.62,1.62,0,0,1,2.5-2.05Z" transform="translate(-161.23 -81.5)"/><path class="cls-12" d="M1653.1,474.47l4.3,5.31a1.63,1.63,0,0,1-2.53,2.05h0l-4.29-5.31a1.62,1.62,0,1,1,2.52-2Z" transform="translate(-161.23 -81.5)"/><path class="cls-12" d="M1666,490.41l4.29,5.32a1.63,1.63,0,0,1-2.54,2h0l-4.29-5.32a1.63,1.63,0,0,1,2.54-2Z" transform="translate(-161.23 -81.5)"/><path class="cls-12" d="M1678.88,506.32l4.33,5.27h0a1.64,1.64,0,0,1-2.54,2.08h0l-4.33-5.29a1.64,1.64,0,0,1,2.53-2.08Z" transform="translate(-161.23 -81.5)"/><path class="cls-12" d="M1692,522.06l4.43,5.19h0a1.65,1.65,0,1,1-2.5,2.14h0l-4.44-5.22a1.64,1.64,0,0,1,.19-2.31,1.63,1.63,0,0,1,2.31.19Z" transform="translate(-161.23 -81.5)"/><path class="cls-12" d="M1705.36,537.5l4.58,5h0a1.65,1.65,0,0,1-2.44,2.22h0l-4.6-5.07a1.65,1.65,0,1,1,2.44-2.22Z" transform="translate(-161.23 -81.5)"/><path class="cls-12" d="M1719.31,552.41l4.81,4.8,0,0a1.65,1.65,0,0,1,0,2.34,1.67,1.67,0,0,1-2.34,0h0l-4.86-4.86a1.66,1.66,0,0,1,2.35-2.34Z" transform="translate(-161.23 -81.5)"/><path class="cls-12" d="M1734,566.49l5.13,4.45,0,0a1.66,1.66,0,1,1-2.17,2.51h0l-5.2-4.51a1.66,1.66,0,1,1,2.18-2.51Z" transform="translate(-161.23 -81.5)"/><path class="cls-12" d="M1749.8,579.31l5.54,3.89.05,0a1.67,1.67,0,1,1-1.91,2.73h0l-5.65-4a1.66,1.66,0,0,1,1.92-2.72Z" transform="translate(-161.23 -81.5)"/><path class="cls-12" d="M1766.87,590.21q3,1.6,6,3a1.67,1.67,0,1,1-1.43,3h0c-2.09-1-4.14-2-6.17-3.14a1.67,1.67,0,0,1,1.59-2.93Z" transform="translate(-161.23 -81.5)"/><path class="cls-12" d="M1785.36,598.28q3.18,1.05,6.44,1.89a1.68,1.68,0,1,1-.84,3.26h0q-3.36-.87-6.66-2a1.68,1.68,0,1,1,1.06-3.18Z" transform="translate(-161.23 -81.5)"/><path class="cls-12" d="M1805,602.6c2.22.24,4.46.41,6.69.49a1.69,1.69,0,1,1-.13,3.37h0q-3.48-.13-6.93-.52a1.68,1.68,0,1,1,.37-3.34Z" transform="translate(-161.23 -81.5)"/><path class="cls-12" d="M1824.82,602.17a41.7,41.7,0,0,0,6.26-2,1.69,1.69,0,1,1,1.26,3.14h0a44.29,44.29,0,0,1-6.77,2.12,1.69,1.69,0,1,1-.75-3.29Z" transform="translate(-161.23 -81.5)"/><path class="cls-12" d="M1842.45,593.6a55.61,55.61,0,0,0,5-4.37,1.7,1.7,0,0,1,2.38,2.42h0a59.69,59.69,0,0,1-5.28,4.63,1.7,1.7,0,1,1-2.08-2.68Z" transform="translate(-161.23 -81.5)"/><path class="cls-12" d="M1855.83,578.94c1.22-1.85,2.35-3.77,3.39-5.73a1.7,1.7,0,1,1,3,1.59h0c-1.09,2.06-2.27,4.07-3.56,6a1.7,1.7,0,0,1-2.84-1.88Z" transform="translate(-161.23 -81.5)"/><path class="cls-12" d="M1864.29,560.9a65.69,65.69,0,0,0,1.64-6.46,1.68,1.68,0,0,1,3.3.65,68.85,68.85,0,0,1-1.68,6.8,1.7,1.7,0,0,1-3.26-1Z" transform="translate(-161.23 -81.5)"/><path class="cls-12" d="M1867.1,541.21c0-2.24-.13-4.49-.28-6.73a1.61,1.61,0,0,1,3.22-.24c.18,2.3.3,4.61.34,6.92a1.64,1.64,0,0,1-3.28.06Z" transform="translate(-161.23 -81.5)"/><path class="cls-12" d="M1865.31,521l-1.09-6.7v0a1.55,1.55,0,0,1,3.06-.51l1.15,6.78a1.57,1.57,0,0,1-3.1.52h0Z" transform="translate(-161.23 -81.5)"/><path class="cls-12" d="M1861.56,501l-1.54-6.63v0a1.41,1.41,0,0,1,2.75-.66l1.66,6.65a1.47,1.47,0,1,1-2.86.72V501Z" transform="translate(-161.23 -81.5)"/><path class="cls-12" d="M1856.54,481.24l-2-6.51v0a1.23,1.23,0,0,1,2.35-.73l2.09,6.53a1.29,1.29,0,1,1-2.46.79h0Z" transform="translate(-161.23 -81.5)"/><path class="cls-12" d="M1850.23,461.84l-2.43-6.35v0a1,1,0,0,1,1.81-.72l2.64,6.33a1.08,1.08,0,1,1-2,.83v0Z" transform="translate(-161.23 -81.5)"/><path class="cls-12" d="M1842.18,443.14c-1-2-2.16-4-3.38-5.86a.64.64,0,0,1,1.06-.71c1.33,1.88,2.53,3.84,3.67,5.83a.78.78,0,0,1-.29,1.06.77.77,0,0,1-1-.29Z" transform="translate(-161.23 -81.5)"/><polygon class="cls-54" points="1669.97 317.44 1657.86 335.79 1650.64 319.7 1669.97 317.44"/><path class="cls-3" d="M1755.64,333.94l20.86,76.17a5.56,5.56,0,0,0,7,3.84l75.69-23.83a2.23,2.23,0,0,0,.32-4.12Z" transform="translate(-161.23 -81.5)"/><polygon class="cls-54" points="1669.96 317.44 1594.41 252.45 1657.76 321.32 1654.62 326.55 1669.96 317.44"/><polygon class="cls-54" points="1650.51 323.57 1657.86 335.79 1657.76 321.32 1650.51 323.57"/><path class="cls-12" d="M1853.33,1371l-.3-2.45v0a.65.65,0,0,1,1.28-.16h0l.27,2.52a.62.62,0,0,1-1.24.15Z" transform="translate(-161.23 -81.5)"/><path class="cls-12" d="M1850.59,1356.36l-.63-2.4v0a.73.73,0,0,1,.53-.89.72.72,0,0,1,.89.52h0l.61,2.44a.72.72,0,0,1-1.4.36Z" transform="translate(-161.23 -81.5)"/><path class="cls-12" d="M1846.13,1342.12l-.9-2.31v0a.83.83,0,1,1,1.54-.6h0l.88,2.36a.81.81,0,0,1-1.52.58Z" transform="translate(-161.23 -81.5)"/><path class="cls-12" d="M1840.07,1328.51l-1.18-2.18v0a.91.91,0,0,1,.37-1.25.92.92,0,0,1,1.25.38h0l1.17,2.24a.91.91,0,0,1-.39,1.22.9.9,0,0,1-1.21-.38Z" transform="translate(-161.23 -81.5)"/><path class="cls-12" d="M1832.32,1315.82l-1.46-2,0,0a1,1,0,0,1,1.64-1.2h0l1.46,2.06a1,1,0,1,1-1.62,1.17Z" transform="translate(-161.23 -81.5)"/><path class="cls-12" d="M1822.83,1304.41l-1.75-1.74,0,0a1.11,1.11,0,0,1,1.57-1.57h0l1.77,1.81a1.09,1.09,0,0,1-1.55,1.54Z" transform="translate(-161.23 -81.5)"/><path class="cls-12" d="M1811.65,1294.7l-2-1.43,0,0a1.2,1.2,0,1,1,1.39-2h0l2,1.5a1.19,1.19,0,0,1-1.39,1.92Z" transform="translate(-161.23 -81.5)"/><path class="cls-12" d="M1799,1287l-2.22-1.06,0,0a1.29,1.29,0,0,1,1.11-2.33h0l2.27,1.13a1.28,1.28,0,0,1-1.11,2.3Z" transform="translate(-161.23 -81.5)"/><path class="cls-12" d="M1785.27,1281.58l-2.36-.7h0a1.39,1.39,0,0,1-.94-1.72,1.4,1.4,0,0,1,1.73-.94h0l2.43.74a1.37,1.37,0,0,1-.79,2.63Z" transform="translate(-161.23 -81.5)"/><path class="cls-12" d="M1770.85,1278.26l-2.44-.36h0a1.44,1.44,0,0,1-1.22-1.63,1.45,1.45,0,0,1,1.64-1.22h0l2.5.38a1.43,1.43,0,0,1-.42,2.83Z" transform="translate(-161.23 -81.5)"/><path class="cls-12" d="M1756.09,1276.88l-2.47-.06h0a1.49,1.49,0,0,1,.07-3h0l2.53.08a1.48,1.48,0,1,1-.08,3Z" transform="translate(-161.23 -81.5)"/><path class="cls-12" d="M1741.25,1277.18l-2.48.19h0a1.55,1.55,0,0,1-.24-3.09h0l2.52-.18a1.54,1.54,0,0,1,.23,3.07Z" transform="translate(-161.23 -81.5)"/><path class="cls-12" d="M1726.47,1278.87l-2.45.4h0a1.6,1.6,0,1,1-.52-3.16h0l2.49-.39a1.59,1.59,0,0,1,.51,3.14Z" transform="translate(-161.23 -81.5)"/><path class="cls-12" d="M1711.85,1281.72l-2.42.57h0a1.65,1.65,0,0,1-.76-3.22h0l2.46-.56a1.64,1.64,0,0,1,.74,3.2Z" transform="translate(-161.23 -81.5)"/><path class="cls-12" d="M1697.43,1285.52l-2.39.71h0a1.71,1.71,0,0,1-1-3.27h0l2.42-.7a1.69,1.69,0,0,1,1,3.24Z" transform="translate(-161.23 -81.5)"/><path class="cls-12" d="M1683.22,1290.11l-2.34.83h0a1.75,1.75,0,0,1-1.18-3.3h0l2.38-.82a1.74,1.74,0,0,1,1.16,3.29Z" transform="translate(-161.23 -81.5)"/><path class="cls-12" d="M1669.24,1295.36l-2.3.93h0a1.81,1.81,0,1,1-1.35-3.35h0l2.34-.92a1.8,1.8,0,0,1,1.34,3.34Z" transform="translate(-161.23 -81.5)"/><path class="cls-12" d="M1655.48,1301.18l-2.28,1h0a1.86,1.86,0,0,1-1.53-3.39h0l2.3-1a1.85,1.85,0,0,1,1.5,3.38Z" transform="translate(-161.23 -81.5)"/><path class="cls-12" d="M1641.83,1307.43l-2.3,1A1.91,1.91,0,1,1,1638,1305h0l2.28-1h0a1.9,1.9,0,1,1,1.52,3.48Z" transform="translate(-161.23 -81.5)"/><path class="cls-12" d="M1627.88,1313.22l-2.35.9a1.92,1.92,0,1,1-1.37-3.59h0l2.33-.89h0a1.92,1.92,0,1,1,1.37,3.59Z" transform="translate(-161.23 -81.5)"/><path class="cls-12" d="M1613.71,1318.4l-2.37.81a2,2,0,0,1-2.46-1.21,1.92,1.92,0,0,1,1.2-2.45h0l2.36-.8h0a1.92,1.92,0,0,1,2.45,1.2A2,2,0,0,1,1613.71,1318.4Z" transform="translate(-161.23 -81.5)"/><path class="cls-12" d="M1599.39,1323.08l-2.4.74a1.95,1.95,0,1,1-1.15-3.72h0l2.39-.73h0a1.95,1.95,0,1,1,1.14,3.72Z" transform="translate(-161.23 -81.5)"/><path class="cls-12" d="M1584.94,1327.36l-2.41.67a2,2,0,1,1-1.06-3.78h0l2.4-.67h0a2,2,0,0,1,1,3.78Z" transform="translate(-161.23 -81.5)"/><path class="cls-12" d="M1570.4,1331.27l-2.43.62a2,2,0,0,1-1-3.83h0l2.42-.61h0a2,2,0,0,1,1,3.82Z" transform="translate(-161.23 -81.5)"/><path class="cls-12" d="M1555.78,1334.85l-2.44.57a2,2,0,1,1-.9-3.86h0l2.43-.56h0a2,2,0,0,1,.9,3.86Z" transform="translate(-161.23 -81.5)"/><path class="cls-12" d="M1541.1,1338.15l-2.46.53a2,2,0,1,1-.83-3.91h0l2.44-.51a2,2,0,1,1,.84,3.9Z" transform="translate(-161.23 -81.5)"/><path class="cls-12" d="M1526.36,1341.18l-2.47.48a2,2,0,0,1-.77-3.94h0l2.45-.47a2,2,0,1,1,.78,3.94Z" transform="translate(-161.23 -81.5)"/><path class="cls-12" d="M1511.57,1344l-2.47.44a2,2,0,1,1-.71-4h0l2.46-.44a2,2,0,0,1,.71,4Z" transform="translate(-161.23 -81.5)"/><path class="cls-12" d="M1496.74,1346.51l-2.47.4a2,2,0,0,1-.66-4h0l2.47-.4a2,2,0,0,1,.65,4Z" transform="translate(-161.23 -81.5)"/><path class="cls-12" d="M1481.71,1348.85l-2.48.37a2.05,2.05,0,1,1-.6-4.06h0l2.47-.36a2,2,0,1,1,.6,4Z" transform="translate(-161.23 -81.5)"/><path class="cls-12" d="M1466.54,1351l-2.49.33a2.06,2.06,0,0,1-.54-4.09h0l2.48-.32a2.06,2.06,0,1,1,.54,4.08Z" transform="translate(-161.23 -81.5)"/><path class="cls-12" d="M1451.24,1352.92l-2.49.29a2.07,2.07,0,0,1-.49-4.11h0l2.48-.28a2.07,2.07,0,1,1,.49,4.11Z" transform="translate(-161.23 -81.5)"/><path class="cls-12" d="M1436.29,1354.6l-2.49.26a2.09,2.09,0,0,1-.44-4.15h0l2.49-.26a2.09,2.09,0,0,1,.43,4.15Z" transform="translate(-161.23 -81.5)"/><path class="cls-12" d="M1421.32,1356.07l-2.5.23a2.1,2.1,0,1,1-.38-4.18h0l2.49-.22a2.09,2.09,0,1,1,.38,4.17Z" transform="translate(-161.23 -81.5)"/><path class="cls-12" d="M1406.33,1357.35l-2.5.19a2.11,2.11,0,1,1-.32-4.21h0l2.49-.19a2.11,2.11,0,0,1,.32,4.21Z" transform="translate(-161.23 -81.5)"/><path class="cls-12" d="M1391.33,1358.43l-2.5.16a2.14,2.14,0,0,1-2.26-2,2.12,2.12,0,0,1,2-2.25h0l2.5-.16a2.12,2.12,0,0,1,.27,4.24Z" transform="translate(-161.23 -81.5)"/><path class="cls-12" d="M1376.31,1359.3l-2.5.13a2.14,2.14,0,0,1-.22-4.27h0l2.49-.12a2.13,2.13,0,0,1,.22,4.26Z" transform="translate(-161.23 -81.5)"/><path class="cls-12" d="M1361.28,1360l-2.5.09a2.15,2.15,0,0,1-.16-4.3h0l2.49-.08a2.15,2.15,0,1,1,.16,4.29Z" transform="translate(-161.23 -81.5)"/><path class="cls-12" d="M1346.25,1360.43l-2.51,0a2.14,2.14,0,0,1-.09-4.28l2.5,0a2.14,2.14,0,0,1,.11,4.28Z" transform="translate(-161.23 -81.5)"/><path class="cls-12" d="M1331.21,1360.66l-2.51,0a2.13,2.13,0,1,1,0-4.25l2.49,0a2.13,2.13,0,1,1,0,4.25Z" transform="translate(-161.23 -81.5)"/><path class="cls-12" d="M1316.16,1360.69l-2.51,0a2.12,2.12,0,0,1,0-4.23h2.5a2.12,2.12,0,0,1,0,4.24Z" transform="translate(-161.23 -81.5)"/><path class="cls-12" d="M1301.12,1360.49l-2.51,0a2.11,2.11,0,1,1,.09-4.21l2.5,0a2.11,2.11,0,1,1-.08,4.21Z" transform="translate(-161.23 -81.5)"/><path class="cls-12" d="M1286.08,1360.07l-2.51-.1a2.09,2.09,0,1,1,.16-4.17l2.49.09a2.09,2.09,0,1,1-.14,4.18Z" transform="translate(-161.23 -81.5)"/><path class="cls-12" d="M1271,1359.41l-2.5-.13a2.08,2.08,0,1,1,.22-4.15l2.49.12a2.08,2.08,0,1,1-.2,4.16Z" transform="translate(-161.23 -81.5)"/><path class="cls-12" d="M1256,1358.51l-2.5-.18a2.07,2.07,0,1,1,.29-4.12l2.49.17a2.07,2.07,0,1,1-.27,4.13Z" transform="translate(-161.23 -81.5)"/><path class="cls-12" d="M1241,1357.35l-2.5-.22a2.05,2.05,0,1,1,.36-4.09l2.48.21a2.06,2.06,0,1,1-.34,4.1Z" transform="translate(-161.23 -81.5)"/><path class="cls-12" d="M1226,1355.92l-2.49-.27a2,2,0,1,1,.43-4.06h0l2.48.26h0a2,2,0,1,1-.43,4.07Z" transform="translate(-161.23 -81.5)"/><path class="cls-12" d="M1211.08,1354.2l-2.49-.31a2,2,0,0,1,.5-4h0l2.47.31h0a2,2,0,1,1-.5,4Z" transform="translate(-161.23 -81.5)"/><path class="cls-12" d="M1196.15,1352.19l-2.48-.37a2,2,0,0,1,.59-4h0l2.47.36h0a2,2,0,1,1-.58,4Z" transform="translate(-161.23 -81.5)"/><path class="cls-12" d="M1181.28,1349.85l-2.48-.42a2,2,0,1,1,.68-4h0l2.46.42h0a2,2,0,0,1-.67,4Z" transform="translate(-161.23 -81.5)"/><path class="cls-12" d="M1166.46,1347.16l-2.47-.48a2,2,0,0,1,.77-3.91h0l2.45.48h0a2,2,0,1,1-.76,3.91Z" transform="translate(-161.23 -81.5)"/><path class="cls-12" d="M1151.7,1344.11l-2.45-.55a2,2,0,1,1,.86-3.86h0l2.43.54h0a2,2,0,1,1-.85,3.87Z" transform="translate(-161.23 -81.5)"/><path class="cls-12" d="M1137,1340.65l-2.43-.61a2,2,0,1,1,1-3.82h0l2.42.61h0a2,2,0,0,1-1,3.83Z" transform="translate(-161.23 -81.5)"/><path class="cls-12" d="M1122.47,1336.76l-2.42-.69a2,2,0,0,1,1.08-3.76h0l2.4.69h0a2,2,0,0,1-1.08,3.76Z" transform="translate(-161.23 -81.5)"/><path class="cls-12" d="M1108,1332.4l-2.39-.78a1.94,1.94,0,0,1,1.2-3.69h0l2.37.76h0a1.94,1.94,0,1,1-1.19,3.7Z" transform="translate(-161.23 -81.5)"/><path class="cls-12" d="M1093.76,1327.51l-2.36-.87a1.93,1.93,0,1,1,1.33-3.62h0l2.34.86h0a1.93,1.93,0,0,1-1.33,3.63Z" transform="translate(-161.23 -81.5)"/><path class="cls-12" d="M1079.69,1322.06l-2.33-1a1.92,1.92,0,0,1,1.48-3.54h0l2.3,1h0a1.92,1.92,0,1,1-1.47,3.55Z" transform="translate(-161.23 -81.5)"/><path class="cls-12" d="M1065.87,1316l-2.27-1.08a1.89,1.89,0,1,1,1.63-3.42h0l2.25,1.06h0a1.9,1.9,0,0,1-1.62,3.44Z" transform="translate(-161.23 -81.5)"/><path class="cls-12" d="M1052.37,1309.16l-2.21-1.21a1.86,1.86,0,1,1,1.78-3.26h0l2.18,1.17h0a1.86,1.86,0,1,1-1.77,3.28Z" transform="translate(-161.23 -81.5)"/><path class="cls-12" d="M1039.28,1301.59l-2.13-1.34a1.82,1.82,0,1,1,1.93-3.09h0l2.11,1.31h0a1.83,1.83,0,0,1-1.93,3.1Z" transform="translate(-161.23 -81.5)"/><path class="cls-12" d="M1026.7,1293.18l-2-1.49a1.78,1.78,0,0,1,2.1-2.88h0l2,1.45h0a1.79,1.79,0,0,1-2.09,2.9Z" transform="translate(-161.23 -81.5)"/><path class="cls-12" d="M1014.76,1283.85l-1.92-1.64a1.75,1.75,0,0,1,2.28-2.65h0l1.89,1.61h0a1.75,1.75,0,1,1-2.27,2.67Z" transform="translate(-161.23 -81.5)"/><path class="cls-12" d="M1003.63,1273.56l-1.77-1.81a1.72,1.72,0,0,1,0-2.42,1.7,1.7,0,0,1,2.41,0h0l1.73,1.76,0,0a1.72,1.72,0,1,1-2.45,2.41Z" transform="translate(-161.23 -81.5)"/><path class="cls-12" d="M993.5,1262.26l-1.58-2a1.67,1.67,0,0,1,2.62-2.08h0l1.55,1.93,0,0a1.68,1.68,0,0,1-2.62,2.1Z" transform="translate(-161.23 -81.5)"/><path class="cls-12" d="M984.59,1250l-1.35-2.14a1.63,1.63,0,0,1,2.76-1.74v0l1.33,2.08,0,0a1.64,1.64,0,1,1-2.77,1.77Z" transform="translate(-161.23 -81.5)"/><path class="cls-12" d="M977.1,1236.74l-1.1-2.28a1.6,1.6,0,1,1,2.88-1.38v0l1.08,2.22,0,0a1.61,1.61,0,0,1-2.89,1.4Z" transform="translate(-161.23 -81.5)"/><path class="cls-12" d="M971.2,1222.75l-.82-2.4a1.56,1.56,0,1,1,3-1v0l.81,2.33v0a1.57,1.57,0,1,1-3,1Z" transform="translate(-161.23 -81.5)"/><path class="cls-12" d="M967,1208.16l-.54-2.48a1.52,1.52,0,0,1,3-.64v0l.54,2.41v0a1.53,1.53,0,0,1-3,.66Z" transform="translate(-161.23 -81.5)"/><path class="cls-12" d="M964.45,1193.2l-.27-2.52a1.49,1.49,0,0,1,3-.31v0l.27,2.46v0a1.49,1.49,0,0,1-3,.32Z" transform="translate(-161.23 -81.5)"/><path class="cls-12" d="M963.52,1178.07v-2.53a1.45,1.45,0,0,1,2.89,0v0l0,2.48v0a1.45,1.45,0,1,1-2.9,0Z" transform="translate(-161.23 -81.5)"/><path class="cls-12" d="M964.05,1162.94l.22-2.51a1.41,1.41,0,1,1,2.81.24v0l-.21,2.47v0a1.41,1.41,0,1,1-2.82-.23Z" transform="translate(-161.23 -81.5)"/><path class="cls-12" d="M965.89,1147.93l.42-2.48a1.36,1.36,0,0,1,2.69.44v0l-.4,2.45v0a1.37,1.37,0,1,1-2.71-.44Z" transform="translate(-161.23 -81.5)"/><path class="cls-12" d="M968.88,1133.12l.6-2.44a1.3,1.3,0,0,1,2.52.6v0l-.57,2.42h0a1.3,1.3,0,1,1-2.54-.6Z" transform="translate(-161.23 -81.5)"/><path class="cls-12" d="M972.85,1118.57l.75-2.4a1.23,1.23,0,0,1,2.35.72h0l-.72,2.38h0a1.24,1.24,0,0,1-2.38-.71Z" transform="translate(-161.23 -81.5)"/><path class="cls-12" d="M977.67,1104.28l.87-2.36a1.17,1.17,0,0,1,1.5-.68,1.15,1.15,0,0,1,.69,1.48h0l-.85,2.35h0a1.18,1.18,0,0,1-2.21-.8Z" transform="translate(-161.23 -81.5)"/><path class="cls-12" d="M983.2,1090.26l1-2.3a1.09,1.09,0,0,1,1.44-.58,1.08,1.08,0,0,1,.58,1.43h0l-1,2.3h0a1.11,1.11,0,0,1-2-.86Z" transform="translate(-161.23 -81.5)"/><path class="cls-12" d="M989.37,1076.52l1.08-2.26a1,1,0,0,1,1.86.88h0l-1,2.26h0a1,1,0,0,1-1.89-.89Z" transform="translate(-161.23 -81.5)"/><path class="cls-12" d="M996.07,1063.05l1.17-2.22a1,1,0,0,1,1.3-.41,1,1,0,0,1,.41,1.3l-1.14,2.22a1,1,0,1,1-1.74-.88Z" transform="translate(-161.23 -81.5)"/><path class="cls-12" d="M1003.25,1049.83l1.24-2.18a.9.9,0,0,1,1.56.88l-1.21,2.19a.91.91,0,0,1-1.6-.88Z" transform="translate(-161.23 -81.5)"/><path class="cls-12" d="M1010.84,1036.85l1.31-2.14a.83.83,0,0,1,1.42.86l-1.28,2.14a.84.84,0,1,1-1.45-.85Z" transform="translate(-161.23 -81.5)"/><path class="cls-12" d="M1018.8,1024.09l1.36-2.1a.77.77,0,0,1,1.3.83l-1.34,2.11a.78.78,0,0,1-1.07.24.77.77,0,0,1-.25-1.07Z" transform="translate(-161.23 -81.5)"/><path class="cls-12" d="M1027.09,1011.55l1.41-2.07a.71.71,0,0,1,1-.18.69.69,0,0,1,.18,1l-1.39,2.08a.71.71,0,1,1-1.18-.79Z" transform="translate(-161.23 -81.5)"/><path class="cls-12" d="M1035.67,999.21l1.46-2a.63.63,0,1,1,1,.74l-1.43,2.05a.65.65,0,0,1-.9.16.64.64,0,0,1-.16-.9Z" transform="translate(-161.23 -81.5)"/><polygon class="cls-54" points="873.94 875.95 882.57 896.17 892.55 881.63 873.94 875.95"/><path class="cls-3" d="M1121.15,907,1087,978.24a5.51,5.51,0,0,1-3.27,2.88,5.61,5.61,0,0,1-4.34-.36l-70.19-37a2.23,2.23,0,0,1,.41-4.11Z" transform="translate(-161.23 -81.5)"/><polygon class="cls-54" points="873.95 875.95 959.92 825.55 885.25 881.96 887.41 887.67 873.95 875.95"/><polygon class="cls-54" points="891.99 885.47 882.57 896.17 885.25 881.96 891.99 885.47"/><path class="cls-55" d="M1564.47,1034.63a4.14,4.14,0,0,1,7.66.81c3.72,13.38,12.71,36.72,31.59,45,1,.42,1.85.84,2.72,1.27a9.61,9.61,0,0,0-1.18-8.68c-5.87-9,4.72-21.21,4.72-21.21s.7,10.78,8.9,17.57c7.06,5.85,10.45,18.87,5.63,29.55-10.22,39.67-25.51,92.15,34.07,130.48s143.48-72.34,143.48-72.34l-41.64,132s-64.28,47.44-139.05-19.26-25.21-163.76-25.21-163.76S1539.14,1083.07,1564.47,1034.63Z" transform="translate(-161.23 -81.5)"/><path class="cls-56" d="M1658.07,1228.82c-17.51-11.28-28.61-23.77-35.31-36.81-13.44,5.3-27.77,5.58-42.42,5,3.81,24.48,15,50.3,40.14,72.72,75.55,67.49,140.5,19.5,140.5,19.5l42.08-133.59S1718.27,1267.61,1658.07,1228.82Z" transform="translate(-161.23 -81.5)"/><path class="cls-57" d="M2154.48,1168.63l-120.82,303.86a36,36,0,0,1-38.58,22.33l-316.84-23.39,114.13-323.13a20.2,20.2,0,0,1,19.33-13c55.55,1.28,257.88,6.28,330.25,12.72A15,15,0,0,1,2154.48,1168.63Z" transform="translate(-161.23 -81.5)"/><path class="cls-5" d="M2005.76,1481l120.72-306.59a9.57,9.57,0,0,0-8.68-13.07l-298.38-11.32a18.09,18.09,0,0,0-17.52,11.47l-109.28,298.87Z" transform="translate(-161.23 -81.5)"/><path class="cls-58" d="M1570.51,1484.93a10.26,10.26,0,0,0,10.26,10.26h416.7a15.59,15.59,0,0,0,15.58-15.59l6.56-7.61-432.67-3.71a16.65,16.65,0,0,0-16.43,16.65Z" transform="translate(-161.23 -81.5)"/><path class="cls-59" d="M2063,1281.14a1.92,1.92,0,0,0,1.79-1.23l1.83-4.75c11.93-31,25.45-66.13,31.82-82.39a12.81,12.81,0,0,0-11.94-17.47H2034a1.92,1.92,0,0,0,0,3.84h52.49a9,9,0,0,1,8.36,12.23c-6.37,16.27-19.9,51.41-31.83,82.41l-1.83,4.75a1.92,1.92,0,0,0,1.8,2.61Z" transform="translate(-161.23 -81.5)"/><path class="cls-60" d="M1812.49,963.1s-17.26-77.42,71.43-56.93c0,0,43-7,45.24,33.6,0,0,27.75,18.29,7.43,53.45,0,0,82.48-31.85,118.41,40.44s2.91,112.06-31.72,122.42c0,0,28,14.09,14.77,45.89s-80.52,54.23-120.25,15.55c0,0-113,14.94-110.77-64.9,0,0-52.57-33.95,2.64-99.94S1812.49,963.1,1812.49,963.1Z" transform="translate(-161.23 -81.5)"/><path class="cls-61" d="M1807.62,1142.57c17.82-5.34,69.72-15.2,119.07,30.35a30.53,30.53,0,0,1,8.81,30.45c-13.26,48.81-44.26,205.39-13.59,267.78,0,0-40,1.14-117-.82,0,0-26.45-115.3-61.1-165.92-23.93-35,38.14-131.23,53.85-154.49A18.41,18.41,0,0,1,1807.62,1142.57Z" transform="translate(-161.23 -81.5)"/><path class="cls-62" d="M1856.83,1045.61s26.36,74.55,28.34,107.44c0,0-29.13,13.25-56.58-9.11,0,0-2.88-74.47-7-87.8Z" transform="translate(-161.23 -81.5)"/><path class="cls-63" d="M1820.22,944s-68.94,96.48-27.73,124.5,90.29-40.54,90.29-40.54,16-52.8-.73-70.71S1820.22,944,1820.22,944Z" transform="translate(-161.23 -81.5)"/><path class="cls-64" d="M1852.13,920.9s-31.67,7.5-36.11,21.83,44.91,27.62,58.74,28.27l11.14,57.82s32.94-54.39,19.89-85.81S1852.13,920.9,1852.13,920.9Z" transform="translate(-161.23 -81.5)"/><path class="cls-65" d="M1869.41,1020.82s26.83-31.08,37.51-10.82-24.16,35.47-36.21,25.52Z" transform="translate(-161.23 -81.5)"/><path class="cls-66" d="M1933.76,1182.65s84.2,70,105.1,165.6-123,105.78-123,105.78-19.54-21.82-42.73-14-1.8-38.08,25.34-38,14.57,21.58,53,4.19c37.4-17,60.52-69.35-34.91-148.77a43.34,43.34,0,0,1-12.61-17.17C1885.33,1193.62,1900,1163,1933.76,1182.65Z" transform="translate(-161.23 -81.5)"/><path class="cls-67" d="M2038.85,1347.93c-21-95.62-105.59-165.6-105.59-165.6-33.87-19.62-48.64,11-30,57.64a43.2,43.2,0,0,0,12.67,17.16c73.94,61.26,77,106.44,57.34,131.68,9.93,3.11,19.35,8.17,28,13.74,6.7,4.44,12.85,7.79,18.44,12.08C2035.88,1399.15,2045.38,1377.68,2038.85,1347.93Z" transform="translate(-161.23 -81.5)"/></g></g></svg>